M48
; DRILL file {KiCad 7.0.2} date Tue Jan 23 17:51:23 2024
; FORMAT={-:-/ absolute / metric / decimal}
; #@! TF.CreationDate,2024-01-23T17:51:23-06:00
; #@! TF.GenerationSoftware,Kicad,Pcbnew,7.0.2
; #@! TF.FileFunction,Plated,1,4,PTH
FMAT,2
METRIC
; #@! TA.AperFunction,Plated,PTH,ComponentDrill
T1C0.200
; #@! TA.AperFunction,Plated,PTH,ViaDrill
T2C0.300
; #@! TA.AperFunction,Plated,PTH,ComponentDrill
T3C0.900
%
G90
G05
T1
X208.0Y-54.0
X208.0Y-55.0
X208.0Y-56.0
X209.0Y-54.0
X209.0Y-55.0
X209.0Y-56.0
X210.0Y-54.0
X210.0Y-55.0
X210.0Y-56.0
T2
X178.0Y-51.0
X178.0Y-53.0
X178.0Y-55.0
X178.0Y-57.0
X178.0Y-59.0
X182.5Y-48.3
X183.5Y-58.9
X183.6Y-48.7
X186.0Y-49.0
X186.3Y-53.6
X186.6Y-58.4
X186.8Y-52.5
X187.0Y-51.8
X187.0Y-53.6
X187.5Y-51.0
X187.6Y-53.1
X188.0Y-49.0
X188.23Y-55.197
X189.1Y-53.2
X189.214Y-52.11
X189.5Y-49.2
X190.6Y-53.2
X190.6Y-54.4
X190.7Y-49.3
X192.4Y-54.4
X192.5Y-51.5
X193.3Y-52.3
X193.9Y-55.6
X193.9Y-56.5
X193.9Y-57.4
X194.0Y-59.0
X194.0Y-61.8
X194.3Y-53.6
X195.0Y-53.6
X195.0Y-59.6
X195.0Y-60.5
X195.0Y-61.4
X195.2Y-52.3
X195.3Y-49.0
X195.7Y-57.0
X196.4Y-49.0
X197.0Y-52.2
X197.4Y-51.0
X197.4Y-59.1
X197.4Y-60.0
X197.4Y-60.9
X197.5Y-49.2
X197.5Y-53.8
X198.6Y-53.2
X198.6Y-54.4
X198.7Y-49.3
X199.0Y-59.0
X199.0Y-61.8
X200.5Y-55.0
X200.98Y-52.5
X201.0Y-49.0
X201.0Y-57.5
X201.483Y-53.659
X201.702Y-52.995
X202.0Y-60.0
X202.9Y-60.0
X203.8Y-60.0
X204.0Y-51.3
X204.0Y-56.7
X205.0Y-48.8
X205.0Y-50.2
X205.1Y-55.5
X205.4Y-54.8
X205.4Y-60.0
X205.9Y-57.5
X206.02Y-59.6
X206.5Y-50.3
X206.8Y-51.8
X207.4Y-58.5
X208.0Y-61.3
X208.026Y-58.813
X208.651Y-59.126
X209.4Y-59.9
X209.5Y-51.5
X210.8Y-58.5
X211.0Y-51.5
X211.7Y-49.0
X212.4Y-57.7
X212.5Y-51.5
X212.8Y-57.1
X214.0Y-49.0
X214.6Y-53.5
X215.5Y-56.5
X216.1Y-51.0
X217.0Y-51.9
X217.5Y-57.0
X217.5Y-58.5
X217.5Y-60.0
X217.5Y-61.5
X218.0Y-49.0
X218.7Y-53.1
X219.0Y-55.6
X219.0Y-56.9
X219.0Y-58.1
X219.5Y-51.2
X220.7Y-51.2
X221.2Y-58.1
X221.5Y-53.1
X224.0Y-51.0
X224.0Y-53.0
X224.0Y-55.0
X224.0Y-57.0
X224.0Y-59.0
T3
X185.5Y-60.0
X188.0Y-60.0
X190.5Y-60.0
T0
M30
