%TF.GenerationSoftware,KiCad,Pcbnew,7.0.2*%
%TF.CreationDate,2024-01-22T16:16:06-06:00*%
%TF.ProjectId,imu-harvester,696d752d-6861-4727-9665-737465722e6b,rev?*%
%TF.SameCoordinates,Original*%
%TF.FileFunction,Paste,Bot*%
%TF.FilePolarity,Positive*%
%FSLAX46Y46*%
G04 Gerber Fmt 4.6, Leading zero omitted, Abs format (unit mm)*
G04 Created by KiCad (PCBNEW 7.0.2) date 2024-01-22 16:16:06*
%MOMM*%
%LPD*%
G01*
G04 APERTURE LIST*
G04 Aperture macros list*
%AMRoundRect*
0 Rectangle with rounded corners*
0 $1 Rounding radius*
0 $2 $3 $4 $5 $6 $7 $8 $9 X,Y pos of 4 corners*
0 Add a 4 corners polygon primitive as box body*
4,1,4,$2,$3,$4,$5,$6,$7,$8,$9,$2,$3,0*
0 Add four circle primitives for the rounded corners*
1,1,$1+$1,$2,$3*
1,1,$1+$1,$4,$5*
1,1,$1+$1,$6,$7*
1,1,$1+$1,$8,$9*
0 Add four rect primitives between the rounded corners*
20,1,$1+$1,$2,$3,$4,$5,0*
20,1,$1+$1,$4,$5,$6,$7,0*
20,1,$1+$1,$6,$7,$8,$9,0*
20,1,$1+$1,$8,$9,$2,$3,0*%
%AMFreePoly0*
4,1,7,1.299000,0.750000,1.299000,-0.750000,0.000000,-1.500000,-1.299000,-0.750000,-1.299000,0.750000,0.000000,1.500000,1.299000,0.750000,1.299000,0.750000,$1*%
G04 Aperture macros list end*
%ADD10FreePoly0,180.000000*%
%ADD11R,0.150000X0.250000*%
%ADD12R,0.500000X0.250000*%
%ADD13RoundRect,0.135000X0.135000X0.185000X-0.135000X0.185000X-0.135000X-0.185000X0.135000X-0.185000X0*%
%ADD14RoundRect,0.140000X0.140000X0.170000X-0.140000X0.170000X-0.140000X-0.170000X0.140000X-0.170000X0*%
%ADD15RoundRect,0.140000X-0.140000X-0.170000X0.140000X-0.170000X0.140000X0.170000X-0.140000X0.170000X0*%
%ADD16RoundRect,0.150000X-0.512500X-0.150000X0.512500X-0.150000X0.512500X0.150000X-0.512500X0.150000X0*%
%ADD17RoundRect,0.250000X-0.787500X-0.925000X0.787500X-0.925000X0.787500X0.925000X-0.787500X0.925000X0*%
%ADD18R,0.249200X0.784800*%
%ADD19R,0.784800X0.249200*%
%ADD20R,0.410000X0.280000*%
%ADD21R,0.280000X0.410000*%
%ADD22RoundRect,0.140000X-0.170000X0.140000X-0.170000X-0.140000X0.170000X-0.140000X0.170000X0.140000X0*%
G04 APERTURE END LIST*
G36*
X192400000Y-52675000D02*
G01*
X191325000Y-52675000D01*
X191325000Y-51600000D01*
X192400000Y-51600000D01*
X192400000Y-52675000D01*
G37*
G36*
X193675000Y-52675000D02*
G01*
X192600000Y-52675000D01*
X192600000Y-51600000D01*
X193675000Y-51600000D01*
X193675000Y-52675000D01*
G37*
G36*
X192400000Y-51400000D02*
G01*
X191325000Y-51400000D01*
X191325000Y-50325000D01*
X192400000Y-50325000D01*
X192400000Y-51400000D01*
G37*
G36*
X193675000Y-51400000D02*
G01*
X192600000Y-51400000D01*
X192600000Y-50325000D01*
X193675000Y-50325000D01*
X193675000Y-51400000D01*
G37*
D10*
X188100000Y-55000000D03*
X185100000Y-55000000D03*
D11*
X194825000Y-55675000D03*
X195175000Y-55675000D03*
D12*
X195000000Y-56325000D03*
D13*
X197510000Y-55500000D03*
X196490000Y-55500000D03*
D14*
X200980000Y-57500000D03*
X200020000Y-57500000D03*
X197480000Y-50500000D03*
X196520000Y-50500000D03*
X197480000Y-54500000D03*
X196520000Y-54500000D03*
X200980000Y-52500000D03*
X200020000Y-52500000D03*
D15*
X187520000Y-50500000D03*
X188480000Y-50500000D03*
D16*
X180862500Y-52450000D03*
X180862500Y-51500000D03*
X180862500Y-50550000D03*
X183137500Y-50550000D03*
X183137500Y-52450000D03*
D14*
X197480000Y-51500000D03*
X196520000Y-51500000D03*
D17*
X195537500Y-60500000D03*
X200462500Y-60500000D03*
D10*
X186600000Y-57500000D03*
D18*
X193500001Y-53462399D03*
X192999999Y-53462399D03*
X192500000Y-53462399D03*
X192000001Y-53462399D03*
X191499999Y-53462399D03*
D19*
X190537601Y-52500001D03*
X190537601Y-51999999D03*
X190537601Y-51500000D03*
X190537601Y-51000001D03*
X190537601Y-50499999D03*
D18*
X191499999Y-49537601D03*
X192000001Y-49537601D03*
X192500000Y-49537601D03*
X192999999Y-49537601D03*
X193500001Y-49537601D03*
D19*
X194462399Y-50499999D03*
X194462399Y-51000001D03*
X194462399Y-51500000D03*
X194462399Y-51999999D03*
X194462399Y-52500001D03*
D14*
X188480000Y-52500000D03*
X187520000Y-52500000D03*
X182480000Y-49000000D03*
X181520000Y-49000000D03*
D20*
X201315000Y-54250000D03*
X201315000Y-54750000D03*
X201315000Y-55250000D03*
X201315000Y-55750000D03*
D21*
X200750000Y-55815000D03*
X200250000Y-55815000D03*
D20*
X199685000Y-55750000D03*
X199685000Y-55250000D03*
X199685000Y-54750000D03*
X199685000Y-54250000D03*
D21*
X200250000Y-54185000D03*
X200750000Y-54185000D03*
D13*
X182510000Y-55000000D03*
X181490000Y-55000000D03*
X197510000Y-56500000D03*
X196490000Y-56500000D03*
D10*
X189600000Y-57500000D03*
D15*
X187520000Y-51500000D03*
X188480000Y-51500000D03*
D22*
X193000000Y-55520000D03*
X193000000Y-56480000D03*
D14*
X182480000Y-54000000D03*
X181520000Y-54000000D03*
M02*
