%TF.GenerationSoftware,KiCad,Pcbnew,7.0.2*%
%TF.CreationDate,2024-01-23T17:52:43-06:00*%
%TF.ProjectId,imu-harvester,696d752d-6861-4727-9665-737465722e6b,rev?*%
%TF.SameCoordinates,Original*%
%TF.FileFunction,Copper,L4,Bot*%
%TF.FilePolarity,Positive*%
%FSLAX46Y46*%
G04 Gerber Fmt 4.6, Leading zero omitted, Abs format (unit mm)*
G04 Created by KiCad (PCBNEW 7.0.2) date 2024-01-23 17:52:43*
%MOMM*%
%LPD*%
G01*
G04 APERTURE LIST*
G04 Aperture macros list*
%AMRoundRect*
0 Rectangle with rounded corners*
0 $1 Rounding radius*
0 $2 $3 $4 $5 $6 $7 $8 $9 X,Y pos of 4 corners*
0 Add a 4 corners polygon primitive as box body*
4,1,4,$2,$3,$4,$5,$6,$7,$8,$9,$2,$3,0*
0 Add four circle primitives for the rounded corners*
1,1,$1+$1,$2,$3*
1,1,$1+$1,$4,$5*
1,1,$1+$1,$6,$7*
1,1,$1+$1,$8,$9*
0 Add four rect primitives between the rounded corners*
20,1,$1+$1,$2,$3,$4,$5,0*
20,1,$1+$1,$4,$5,$6,$7,0*
20,1,$1+$1,$6,$7,$8,$9,0*
20,1,$1+$1,$8,$9,$2,$3,0*%
%AMFreePoly0*
4,1,7,1.299000,0.750000,1.299000,-0.750000,0.000000,-1.500000,-1.299000,-0.750000,-1.299000,0.750000,0.000000,1.500000,1.299000,0.750000,1.299000,0.750000,$1*%
G04 Aperture macros list end*
%TA.AperFunction,ComponentPad*%
%ADD10C,0.500000*%
%TD*%
%TA.AperFunction,SMDPad,CuDef*%
%ADD11R,2.500000X2.500000*%
%TD*%
%TA.AperFunction,ComponentPad*%
%ADD12RoundRect,0.400000X-0.400000X-0.400000X0.400000X-0.400000X0.400000X0.400000X-0.400000X0.400000X0*%
%TD*%
%TA.AperFunction,ComponentPad*%
%ADD13C,1.600000*%
%TD*%
%TA.AperFunction,SMDPad,CuDef*%
%ADD14C,1.000000*%
%TD*%
%TA.AperFunction,SMDPad,CuDef*%
%ADD15FreePoly0,180.000000*%
%TD*%
%TA.AperFunction,SMDPad,CuDef*%
%ADD16R,0.150000X0.250000*%
%TD*%
%TA.AperFunction,SMDPad,CuDef*%
%ADD17R,0.500000X0.250000*%
%TD*%
%TA.AperFunction,SMDPad,CuDef*%
%ADD18RoundRect,0.135000X0.135000X0.185000X-0.135000X0.185000X-0.135000X-0.185000X0.135000X-0.185000X0*%
%TD*%
%TA.AperFunction,SMDPad,CuDef*%
%ADD19RoundRect,0.140000X0.140000X0.170000X-0.140000X0.170000X-0.140000X-0.170000X0.140000X-0.170000X0*%
%TD*%
%TA.AperFunction,SMDPad,CuDef*%
%ADD20RoundRect,0.140000X-0.140000X-0.170000X0.140000X-0.170000X0.140000X0.170000X-0.140000X0.170000X0*%
%TD*%
%TA.AperFunction,SMDPad,CuDef*%
%ADD21RoundRect,0.150000X-0.512500X-0.150000X0.512500X-0.150000X0.512500X0.150000X-0.512500X0.150000X0*%
%TD*%
%TA.AperFunction,SMDPad,CuDef*%
%ADD22RoundRect,0.250000X-0.787500X-0.925000X0.787500X-0.925000X0.787500X0.925000X-0.787500X0.925000X0*%
%TD*%
%TA.AperFunction,SMDPad,CuDef*%
%ADD23R,0.249200X0.784800*%
%TD*%
%TA.AperFunction,SMDPad,CuDef*%
%ADD24R,0.784800X0.249200*%
%TD*%
%TA.AperFunction,SMDPad,CuDef*%
%ADD25R,2.550000X2.550000*%
%TD*%
%TA.AperFunction,SMDPad,CuDef*%
%ADD26R,0.410000X0.280000*%
%TD*%
%TA.AperFunction,SMDPad,CuDef*%
%ADD27R,0.280000X0.410000*%
%TD*%
%TA.AperFunction,SMDPad,CuDef*%
%ADD28RoundRect,0.140000X-0.170000X0.140000X-0.170000X-0.140000X0.170000X-0.140000X0.170000X0.140000X0*%
%TD*%
%TA.AperFunction,ViaPad*%
%ADD29C,0.500000*%
%TD*%
%TA.AperFunction,Conductor*%
%ADD30C,0.200000*%
%TD*%
%TA.AperFunction,Conductor*%
%ADD31C,0.400000*%
%TD*%
%TA.AperFunction,Conductor*%
%ADD32C,0.150000*%
%TD*%
G04 APERTURE END LIST*
D10*
X208000000Y-54000000D03*
X208000000Y-55000000D03*
X208000000Y-56000000D03*
X209000000Y-54000000D03*
X209000000Y-55000000D03*
D11*
X209000000Y-55000000D03*
D10*
X209000000Y-56000000D03*
X210000000Y-54000000D03*
X210000000Y-55000000D03*
X210000000Y-56000000D03*
D12*
X185500000Y-60000000D03*
D13*
X188000000Y-60000000D03*
X190500000Y-60000000D03*
D14*
X200300000Y-50800000D03*
D15*
X188100000Y-55000000D03*
X185100000Y-55000000D03*
D16*
X194825000Y-55675000D03*
X195175000Y-55675000D03*
D17*
X195000000Y-56325000D03*
D18*
X197510000Y-55500000D03*
X196490000Y-55500000D03*
D19*
X200980000Y-57500000D03*
X200020000Y-57500000D03*
X197480000Y-50500000D03*
X196520000Y-50500000D03*
X197480000Y-54500000D03*
X196520000Y-54500000D03*
X200980000Y-52500000D03*
X200020000Y-52500000D03*
D14*
X211400000Y-57300000D03*
D20*
X187520000Y-50500000D03*
X188480000Y-50500000D03*
D21*
X180862500Y-52450000D03*
X180862500Y-51500000D03*
X180862500Y-50550000D03*
X183137500Y-50550000D03*
X183137500Y-52450000D03*
D19*
X197480000Y-51500000D03*
X196520000Y-51500000D03*
D22*
X195537500Y-60500000D03*
X200462500Y-60500000D03*
D14*
X210000000Y-57300000D03*
D15*
X186600000Y-57500000D03*
D14*
X201700000Y-50800000D03*
D23*
X193500001Y-53462399D03*
X192999999Y-53462399D03*
X192500000Y-53462399D03*
X192000001Y-53462399D03*
X191499999Y-53462399D03*
D24*
X190537601Y-52500001D03*
X190537601Y-51999999D03*
X190537601Y-51500000D03*
X190537601Y-51000001D03*
X190537601Y-50499999D03*
D23*
X191499999Y-49537601D03*
X192000001Y-49537601D03*
X192500000Y-49537601D03*
X192999999Y-49537601D03*
X193500001Y-49537601D03*
D24*
X194462399Y-50499999D03*
X194462399Y-51000001D03*
X194462399Y-51500000D03*
X194462399Y-51999999D03*
X194462399Y-52500001D03*
D25*
X192500000Y-51500000D03*
D14*
X207200000Y-57300000D03*
D19*
X188480000Y-52500000D03*
X187520000Y-52500000D03*
X182480000Y-49000000D03*
X181520000Y-49000000D03*
D26*
X201315000Y-54250000D03*
X201315000Y-54750000D03*
X201315000Y-55250000D03*
X201315000Y-55750000D03*
D27*
X200750000Y-55815000D03*
X200250000Y-55815000D03*
D26*
X199685000Y-55750000D03*
X199685000Y-55250000D03*
X199685000Y-54750000D03*
X199685000Y-54250000D03*
D27*
X200250000Y-54185000D03*
X200750000Y-54185000D03*
D18*
X182510000Y-55000000D03*
X181490000Y-55000000D03*
X197510000Y-56500000D03*
X196490000Y-56500000D03*
D15*
X189600000Y-57500000D03*
D20*
X187520000Y-51500000D03*
X188480000Y-51500000D03*
D28*
X193000000Y-55520000D03*
X193000000Y-56480000D03*
D19*
X182480000Y-54000000D03*
X181520000Y-54000000D03*
D14*
X208600000Y-57300000D03*
D29*
X178000000Y-59000000D03*
X178000000Y-57000000D03*
X178000000Y-55000000D03*
X178000000Y-53000000D03*
X178000000Y-51000000D03*
X195000000Y-61400000D03*
X197400000Y-60900000D03*
X205900000Y-57500000D03*
X207400000Y-58500000D03*
X194000000Y-59000000D03*
X201000000Y-57500000D03*
X212500000Y-51500000D03*
X200500000Y-55000000D03*
X194000000Y-61800000D03*
X199000000Y-59000000D03*
X200980000Y-52500000D03*
X211000000Y-51500000D03*
X224000000Y-57000000D03*
X224000000Y-55000000D03*
X224000000Y-59000000D03*
X206800000Y-51800000D03*
X188230053Y-55197198D03*
X224000000Y-51000000D03*
X224000000Y-53000000D03*
X209500000Y-51500000D03*
X206500000Y-50300000D03*
X199000000Y-61800000D03*
X208025654Y-58812827D03*
X208651308Y-59125654D03*
X217500000Y-57000000D03*
X214600000Y-53500000D03*
X210800000Y-58500000D03*
X190600000Y-54400000D03*
X217500000Y-60000000D03*
X206020000Y-59600000D03*
X219000000Y-58100000D03*
X197400000Y-60000000D03*
X192500000Y-51500000D03*
X204000000Y-51300000D03*
X217500000Y-61500000D03*
X204000000Y-56700000D03*
X208000000Y-61300000D03*
X198600000Y-53200000D03*
X203800000Y-60000000D03*
X205000000Y-48800000D03*
X215500000Y-56500000D03*
X205000000Y-50200000D03*
X216100000Y-51000000D03*
X197400000Y-59100000D03*
X190600000Y-53200000D03*
X198600000Y-54400000D03*
X193300000Y-52300000D03*
X217000000Y-51900000D03*
X186800000Y-52500000D03*
X209400000Y-59900000D03*
X220700000Y-51200000D03*
X202000000Y-60000000D03*
X211700000Y-49000000D03*
X202900000Y-60000000D03*
X205400000Y-60000000D03*
X217500000Y-58500000D03*
X219500000Y-51200000D03*
X221200000Y-58100000D03*
X187600000Y-53100000D03*
X201701636Y-52995025D03*
X201483058Y-53659500D03*
X192400000Y-54400000D03*
X195200000Y-52300000D03*
X189214049Y-52110416D03*
X189100000Y-53200000D03*
X197000000Y-52200000D03*
X197400000Y-51000000D03*
X194300000Y-53600000D03*
X195000000Y-53600000D03*
X187500000Y-51000000D03*
X187000000Y-51800000D03*
X186300000Y-53600000D03*
X187000000Y-53600000D03*
X195000000Y-59600000D03*
X193900000Y-55600000D03*
X195000000Y-60500000D03*
X193900000Y-57400000D03*
X193900000Y-56500000D03*
X205400000Y-54800000D03*
X197500000Y-53800000D03*
X201000000Y-49000000D03*
X182500000Y-48300000D03*
X214000000Y-49000000D03*
X218700000Y-53100000D03*
X188000000Y-49000000D03*
X218000000Y-49000000D03*
X221500000Y-53100000D03*
X183600000Y-48700000D03*
X186600000Y-58400000D03*
X183500000Y-58900000D03*
X196400000Y-49000000D03*
X186000000Y-49000000D03*
X195300000Y-49000000D03*
X219000000Y-56900000D03*
X212400000Y-57700000D03*
X219000000Y-55600000D03*
X212800000Y-57100000D03*
X205100000Y-55500000D03*
X195700000Y-57000000D03*
X197500000Y-49200000D03*
X198700000Y-49300000D03*
X189500000Y-49200000D03*
X190700000Y-49300000D03*
D30*
X205900000Y-57500000D02*
X205600000Y-57800000D01*
X201715686Y-54250000D02*
X201315000Y-54250000D01*
X202300000Y-54834314D02*
X201715686Y-54250000D01*
X205900000Y-57500000D02*
X207000000Y-57500000D01*
X202300000Y-56190690D02*
X202300000Y-54834314D01*
X202760000Y-57662942D02*
X202760000Y-56650691D01*
X202897058Y-57800000D02*
X202760000Y-57662942D01*
X205600000Y-57800000D02*
X202897058Y-57800000D01*
X207000000Y-57500000D02*
X207200000Y-57300000D01*
X202760000Y-56650691D02*
X202300000Y-56190690D01*
X202360000Y-57828628D02*
X202731372Y-58200000D01*
X201315000Y-54750000D02*
X201650000Y-54750000D01*
X202731372Y-58200000D02*
X207100000Y-58200000D01*
X202360000Y-56816376D02*
X202360000Y-57828628D01*
X201900000Y-56356375D02*
X202360000Y-56816376D01*
X201900000Y-55000000D02*
X201900000Y-56356375D01*
X201650000Y-54750000D02*
X201900000Y-55000000D01*
X207400000Y-58500000D02*
X208600000Y-57300000D01*
X207100000Y-58200000D02*
X207400000Y-58500000D01*
X200980000Y-57490000D02*
X201000000Y-57500000D01*
X201315000Y-55250000D02*
X200750000Y-55250000D01*
X199685000Y-56195000D02*
X200980000Y-57490000D01*
X199685000Y-55750000D02*
X199685000Y-56195000D01*
X200750000Y-55250000D02*
X200500000Y-55000000D01*
X201000000Y-57500000D02*
X200980000Y-57500000D01*
X207738481Y-59100000D02*
X208025654Y-58812827D01*
X208924346Y-58575654D02*
X210000000Y-57500000D01*
X210000000Y-57500000D02*
X210000000Y-57300000D01*
X201467940Y-56490000D02*
X201960000Y-56982061D01*
X200750000Y-55815000D02*
X200750000Y-56084314D01*
X201960000Y-56982061D02*
X201960000Y-57994314D01*
X208025654Y-58812827D02*
X208262827Y-58575654D01*
X201155686Y-56490000D02*
X201467940Y-56490000D01*
X201960000Y-57994314D02*
X202565686Y-58600000D01*
X202565686Y-58600000D02*
X206643503Y-58600000D01*
X207143504Y-59100000D02*
X207738481Y-59100000D01*
X208262827Y-58575654D02*
X208924346Y-58575654D01*
X200750000Y-56084314D02*
X201155686Y-56490000D01*
X206643503Y-58600000D02*
X207143504Y-59100000D01*
X211200000Y-57300000D02*
X211400000Y-57300000D01*
X200250000Y-56150000D02*
X200990000Y-56890000D01*
X200990000Y-56890000D02*
X201302254Y-56890000D01*
X201560000Y-58160000D02*
X202400000Y-59000000D01*
X201560000Y-57147746D02*
X201560000Y-58160000D01*
X208276962Y-59500000D02*
X208651308Y-59125654D01*
X202400000Y-59000000D02*
X206477818Y-59000000D01*
X209374346Y-59125654D02*
X211200000Y-57300000D01*
X206477818Y-59000000D02*
X206977818Y-59500000D01*
X201302254Y-56890000D02*
X201560000Y-57147746D01*
X200250000Y-55815000D02*
X200250000Y-56150000D01*
X208651308Y-59125654D02*
X209374346Y-59125654D01*
X206977818Y-59500000D02*
X208276962Y-59500000D01*
X216200000Y-51900000D02*
X217000000Y-51900000D01*
X193500001Y-50499999D02*
X192500000Y-51500000D01*
X191499999Y-50499999D02*
X191499999Y-49537601D01*
X192500000Y-51500000D02*
X191499999Y-50499999D01*
D31*
X217000000Y-51900000D02*
X217100000Y-51900000D01*
D30*
X190537601Y-51500000D02*
X192500000Y-51500000D01*
D31*
X216100000Y-50900000D02*
X216500000Y-50500000D01*
X217100000Y-51900000D02*
X217500000Y-51500000D01*
D30*
X194462399Y-50499999D02*
X193500001Y-50499999D01*
D31*
X216100000Y-51000000D02*
X216100000Y-50900000D01*
D30*
X214600000Y-53500000D02*
X216200000Y-51900000D01*
X201701636Y-52201636D02*
X200300000Y-50800000D01*
X201586661Y-53110000D02*
X200380000Y-53110000D01*
X199685000Y-53805000D02*
X199685000Y-54250000D01*
X200380000Y-53110000D02*
X199685000Y-53805000D01*
X201701636Y-52995025D02*
X201586661Y-53110000D01*
X201701636Y-52995025D02*
X201701636Y-52201636D01*
X202300000Y-51400000D02*
X201700000Y-50800000D01*
X200750000Y-53870000D02*
X200750000Y-54185000D01*
X201483058Y-53659500D02*
X201442558Y-53700000D01*
X200920000Y-53700000D02*
X200750000Y-53870000D01*
X202300000Y-53174479D02*
X202300000Y-51400000D01*
X201483058Y-53659500D02*
X201814979Y-53659500D01*
X201442558Y-53700000D02*
X200920000Y-53700000D01*
X201814979Y-53659500D02*
X202300000Y-53174479D01*
X194762400Y-52300000D02*
X194462399Y-51999999D01*
X195200000Y-52300000D02*
X194762400Y-52300000D01*
X194662400Y-52300000D02*
X194462399Y-52500001D01*
X192999999Y-54400000D02*
X192400000Y-54400000D01*
X195200000Y-52300000D02*
X194662400Y-52300000D01*
X192999999Y-54400000D02*
X193000000Y-55520000D01*
X192999999Y-53462399D02*
X192999999Y-54400000D01*
D31*
X188480000Y-52500000D02*
X188480000Y-52580000D01*
X188480000Y-52580000D02*
X189100000Y-53200000D01*
X188824465Y-52500000D02*
X189214049Y-52110416D01*
D30*
X190537601Y-51999999D02*
X189324466Y-51999999D01*
D31*
X188480000Y-52500000D02*
X188824465Y-52500000D01*
D30*
X189324466Y-51999999D02*
X189214049Y-52110416D01*
D31*
X197480000Y-51080000D02*
X197480000Y-51500000D01*
X197480000Y-50920000D02*
X197400000Y-51000000D01*
X197480000Y-50500000D02*
X197480000Y-50920000D01*
X197480000Y-51720000D02*
X197000000Y-52200000D01*
X197480000Y-51500000D02*
X197480000Y-51720000D01*
X197400000Y-51000000D02*
X197480000Y-51080000D01*
D30*
X194462399Y-51500000D02*
X196520000Y-51500000D01*
X194462399Y-51000001D02*
X196019999Y-51000001D01*
X196019999Y-51000001D02*
X196520000Y-50500000D01*
D31*
X187520000Y-51020000D02*
X187520000Y-51500000D01*
X187520000Y-50500000D02*
X187520000Y-50980000D01*
X187300000Y-51500000D02*
X187000000Y-51800000D01*
X187500000Y-51000000D02*
X187520000Y-51020000D01*
X187520000Y-50980000D02*
X187500000Y-51000000D01*
X187520000Y-51500000D02*
X187300000Y-51500000D01*
D30*
X188979999Y-51000001D02*
X190537601Y-51000001D01*
X188480000Y-51500000D02*
X188979999Y-51000001D01*
X188480000Y-50500000D02*
X190537601Y-50499999D01*
D32*
X195175000Y-55275000D02*
X194000000Y-54100000D01*
X195175000Y-55675000D02*
X195175000Y-55275000D01*
D30*
X197480000Y-53820000D02*
X197500000Y-53800000D01*
X197510000Y-55500000D02*
X197510000Y-54530000D01*
X197480000Y-54500000D02*
X197480000Y-53820000D01*
X197510000Y-56500000D02*
X197510000Y-55500000D01*
X197510000Y-54530000D02*
X197480000Y-54500000D01*
X185100000Y-55000000D02*
X184200000Y-54100000D01*
D31*
X182480000Y-49000000D02*
X183300000Y-49000000D01*
D30*
X184200000Y-49300000D02*
X183600000Y-48700000D01*
D31*
X183300000Y-49000000D02*
X183600000Y-48700000D01*
X182480000Y-48320000D02*
X182500000Y-48300000D01*
D30*
X184200000Y-54100000D02*
X184200000Y-49300000D01*
D31*
X182480000Y-49000000D02*
X182480000Y-48320000D01*
D30*
X183500000Y-58900000D02*
X182500000Y-57900000D01*
X182500000Y-55010000D02*
X182510000Y-55000000D01*
X182500000Y-57900000D02*
X182500000Y-55010000D01*
X195600000Y-48200000D02*
X196400000Y-49000000D01*
X193154917Y-48200000D02*
X195600000Y-48200000D01*
X192500000Y-49537601D02*
X192500000Y-48854916D01*
X192500000Y-48854916D02*
X193154917Y-48200000D01*
X193320602Y-48600000D02*
X194500000Y-48600000D01*
X192999999Y-49537601D02*
X192999999Y-48920603D01*
X194500000Y-48600000D02*
X194900000Y-48600000D01*
X194900000Y-48600000D02*
X195300000Y-49000000D01*
X192999999Y-48920603D02*
X193320602Y-48600000D01*
X213000000Y-57700000D02*
X212400000Y-57700000D01*
X214900000Y-55800000D02*
X213000000Y-57700000D01*
X217900000Y-55800000D02*
X214900000Y-55800000D01*
X219000000Y-56900000D02*
X217900000Y-55800000D01*
X218800000Y-55400000D02*
X219000000Y-55600000D01*
X214500000Y-55400000D02*
X218800000Y-55400000D01*
X212800000Y-57100000D02*
X214500000Y-55400000D01*
D32*
X194825000Y-55675000D02*
X194475000Y-56025000D01*
X194750000Y-57000000D02*
X195700000Y-57000000D01*
X194475000Y-56725000D02*
X194750000Y-57000000D01*
X194475000Y-56025000D02*
X194475000Y-56725000D01*
D30*
X195000000Y-56325000D02*
X196315000Y-56325000D01*
X196315000Y-56325000D02*
X196490000Y-56500000D01*
%TA.AperFunction,Conductor*%
G36*
X182132239Y-47820185D02*
G01*
X182177994Y-47872989D01*
X182187938Y-47942147D01*
X182158913Y-48005702D01*
X182117118Y-48053935D01*
X182063302Y-48171773D01*
X182044867Y-48300000D01*
X182064729Y-48438150D01*
X182054785Y-48507308D01*
X182009030Y-48560112D01*
X181941990Y-48579796D01*
X181874951Y-48560111D01*
X181860149Y-48548182D01*
X181749356Y-48496518D01*
X181720000Y-48492653D01*
X181720000Y-49507344D01*
X181734904Y-49520414D01*
X181751662Y-49523028D01*
X181803919Y-49569407D01*
X181822805Y-49636676D01*
X181802325Y-49703476D01*
X181786496Y-49722883D01*
X181551197Y-49958182D01*
X181489877Y-49991666D01*
X181463518Y-49994500D01*
X180706488Y-49994500D01*
X180704448Y-49994550D01*
X180693046Y-49994940D01*
X180691045Y-49995055D01*
X180680125Y-49995787D01*
X180678082Y-49995971D01*
X180666745Y-49997105D01*
X180664747Y-49997352D01*
X180558727Y-50011324D01*
X180558688Y-50011330D01*
X180556686Y-50011594D01*
X180554688Y-50011991D01*
X180554678Y-50011993D01*
X180532327Y-50016438D01*
X180532308Y-50016442D01*
X180530324Y-50016837D01*
X180528367Y-50017361D01*
X180528347Y-50017366D01*
X180507327Y-50022998D01*
X180507308Y-50023003D01*
X180505370Y-50023523D01*
X180503461Y-50024170D01*
X180503451Y-50024174D01*
X180481843Y-50031508D01*
X180481818Y-50031517D01*
X180479913Y-50032164D01*
X180478051Y-50032934D01*
X180478033Y-50032942D01*
X180460848Y-50040061D01*
X180413395Y-50049500D01*
X180316737Y-50049500D01*
X180248609Y-50059426D01*
X180143515Y-50110802D01*
X180060802Y-50193515D01*
X180009426Y-50298609D01*
X179999500Y-50366736D01*
X179999500Y-50640427D01*
X179998439Y-50656610D01*
X179997105Y-50666744D01*
X179996887Y-50668782D01*
X179995787Y-50680124D01*
X179995640Y-50682125D01*
X179994940Y-50693044D01*
X179994856Y-50695095D01*
X179994500Y-50706487D01*
X179994484Y-50708504D01*
X179994499Y-50898490D01*
X179994500Y-50898507D01*
X179994500Y-50902042D01*
X179999882Y-50948767D01*
X180000688Y-50952222D01*
X180000691Y-50952235D01*
X180004576Y-50968872D01*
X180010118Y-50992607D01*
X180015438Y-51011335D01*
X180037096Y-51046776D01*
X180041389Y-51053800D01*
X180059550Y-51121268D01*
X180046983Y-51172920D01*
X180009911Y-51248753D01*
X180002444Y-51299999D01*
X180002445Y-51300000D01*
X180938500Y-51300000D01*
X181005539Y-51319685D01*
X181051294Y-51372489D01*
X181062500Y-51424000D01*
X181062500Y-51576000D01*
X181042815Y-51643039D01*
X180990011Y-51688794D01*
X180938500Y-51700000D01*
X180002447Y-51700000D01*
X180009912Y-51751250D01*
X180046997Y-51827110D01*
X180058755Y-51895983D01*
X180042044Y-51945168D01*
X180023463Y-51976267D01*
X180004558Y-52034453D01*
X180004557Y-52034456D01*
X180004557Y-52034458D01*
X179996872Y-52082986D01*
X179994500Y-52097962D01*
X179994500Y-52293511D01*
X179994550Y-52295551D01*
X179994940Y-52306953D01*
X179995055Y-52308954D01*
X179995787Y-52319874D01*
X179995971Y-52321913D01*
X179997105Y-52333255D01*
X179997352Y-52335257D01*
X179998439Y-52343386D01*
X179999500Y-52359572D01*
X179999500Y-52633263D01*
X180009426Y-52701390D01*
X180009426Y-52701391D01*
X180009427Y-52701393D01*
X180011575Y-52705786D01*
X180060802Y-52806484D01*
X180143515Y-52889197D01*
X180143516Y-52889197D01*
X180143517Y-52889198D01*
X180248607Y-52940573D01*
X180275860Y-52944543D01*
X180316737Y-52950500D01*
X180316740Y-52950500D01*
X180413399Y-52950500D01*
X180460850Y-52959938D01*
X180479907Y-52967832D01*
X180505361Y-52976473D01*
X180530325Y-52983162D01*
X180556689Y-52988406D01*
X180666742Y-53002894D01*
X180666743Y-53002895D01*
X180668769Y-53003111D01*
X180680125Y-53004213D01*
X180682131Y-53004360D01*
X180693047Y-53005060D01*
X180695101Y-53005145D01*
X180706488Y-53005500D01*
X180708505Y-53005516D01*
X181925791Y-53005500D01*
X181992830Y-53025185D01*
X182038585Y-53077989D01*
X182048529Y-53147147D01*
X182040351Y-53176955D01*
X182032188Y-53196659D01*
X182032182Y-53196675D01*
X182031255Y-53198913D01*
X182030505Y-53201219D01*
X182030502Y-53201229D01*
X182022438Y-53226044D01*
X182022434Y-53226056D01*
X182021684Y-53228366D01*
X182021115Y-53230732D01*
X182021114Y-53230739D01*
X182014721Y-53257366D01*
X182014718Y-53257379D01*
X182014154Y-53259730D01*
X182013775Y-53262117D01*
X182013773Y-53262132D01*
X182001077Y-53342297D01*
X182000612Y-53413270D01*
X181998713Y-53413257D01*
X181990486Y-53470913D01*
X181944786Y-53523765D01*
X181877767Y-53543519D01*
X181825233Y-53531901D01*
X181749355Y-53496518D01*
X181720000Y-53492653D01*
X181720000Y-54468637D01*
X181700315Y-54535676D01*
X181690000Y-54548477D01*
X181690000Y-55516609D01*
X181713042Y-55513576D01*
X181820110Y-55463649D01*
X181911964Y-55371796D01*
X181973287Y-55338311D01*
X182042979Y-55343295D01*
X182087328Y-55371796D01*
X182095934Y-55380402D01*
X182095935Y-55380404D01*
X182129535Y-55414004D01*
X182163182Y-55447651D01*
X182196666Y-55508975D01*
X182199500Y-55535332D01*
X182199500Y-57830756D01*
X182196756Y-57847577D01*
X182199368Y-57904078D01*
X182199500Y-57909804D01*
X182199500Y-57928818D01*
X182201181Y-57943307D01*
X182202415Y-57969993D01*
X182205213Y-57976330D01*
X182213666Y-58003626D01*
X182214938Y-58010434D01*
X182228997Y-58033140D01*
X182237002Y-58048327D01*
X182247792Y-58072763D01*
X182252688Y-58077659D01*
X182270434Y-58100063D01*
X182274081Y-58105952D01*
X182295396Y-58122048D01*
X182308351Y-58133322D01*
X183010618Y-58835590D01*
X183044103Y-58896913D01*
X183045675Y-58905624D01*
X183063302Y-59028226D01*
X183117118Y-59146064D01*
X183173866Y-59211555D01*
X183201951Y-59243967D01*
X183216329Y-59253207D01*
X183310931Y-59314005D01*
X183435227Y-59350500D01*
X183435228Y-59350500D01*
X183564773Y-59350500D01*
X183689068Y-59314005D01*
X183769340Y-59262417D01*
X183798049Y-59243967D01*
X183798050Y-59243965D01*
X183803460Y-59240489D01*
X183870499Y-59220804D01*
X183937539Y-59240488D01*
X183983294Y-59293292D01*
X183994500Y-59344804D01*
X183994500Y-60793511D01*
X183994550Y-60795551D01*
X183994940Y-60806953D01*
X183995055Y-60808954D01*
X183995787Y-60819874D01*
X183995971Y-60821913D01*
X183997105Y-60833255D01*
X183997352Y-60835257D01*
X184011327Y-60941286D01*
X184011328Y-60941294D01*
X184011594Y-60943312D01*
X184011987Y-60945288D01*
X184011989Y-60945300D01*
X184016439Y-60967671D01*
X184016837Y-60969673D01*
X184017360Y-60971626D01*
X184017364Y-60971642D01*
X184021218Y-60986024D01*
X184023524Y-60994631D01*
X184024167Y-60996526D01*
X184024174Y-60996548D01*
X184031519Y-61018182D01*
X184032166Y-61020088D01*
X184032927Y-61021926D01*
X184032936Y-61021949D01*
X184071364Y-61114722D01*
X184071369Y-61114733D01*
X184072143Y-61116601D01*
X184084029Y-61140705D01*
X184085038Y-61142454D01*
X184085041Y-61142459D01*
X184096947Y-61163081D01*
X184111885Y-61185438D01*
X184175482Y-61268318D01*
X184193205Y-61288526D01*
X184211473Y-61306794D01*
X184231681Y-61324517D01*
X184233296Y-61325756D01*
X184311797Y-61385994D01*
X184314558Y-61388112D01*
X184336912Y-61403048D01*
X184359294Y-61415970D01*
X184383401Y-61427858D01*
X184479907Y-61467832D01*
X184505361Y-61476473D01*
X184530325Y-61483162D01*
X184556689Y-61488406D01*
X184664859Y-61502647D01*
X184666743Y-61502895D01*
X184668769Y-61503111D01*
X184680125Y-61504213D01*
X184682131Y-61504360D01*
X184693047Y-61505060D01*
X184695101Y-61505145D01*
X184706488Y-61505500D01*
X184708505Y-61505516D01*
X186193512Y-61505500D01*
X186195552Y-61505450D01*
X186206953Y-61505060D01*
X186208952Y-61504945D01*
X186219875Y-61504213D01*
X186221910Y-61504029D01*
X186233258Y-61502895D01*
X186235271Y-61502647D01*
X186338765Y-61489004D01*
X186343311Y-61488406D01*
X186369674Y-61483162D01*
X186394638Y-61476473D01*
X186420092Y-61467832D01*
X186516598Y-61427858D01*
X186540705Y-61415970D01*
X186563087Y-61403048D01*
X186585440Y-61388113D01*
X186668314Y-61324521D01*
X186688523Y-61306797D01*
X186706797Y-61288523D01*
X186724521Y-61268314D01*
X186788113Y-61185440D01*
X186803048Y-61163087D01*
X186815970Y-61140705D01*
X186827858Y-61116598D01*
X186867832Y-61020092D01*
X186876473Y-60994636D01*
X186883162Y-60969671D01*
X186888406Y-60943308D01*
X186902894Y-60833254D01*
X186903112Y-60831220D01*
X186904212Y-60819874D01*
X186904359Y-60817872D01*
X186905059Y-60806953D01*
X186905144Y-60804900D01*
X186905499Y-60793511D01*
X186905515Y-60791494D01*
X186905499Y-60569783D01*
X186925184Y-60502744D01*
X186977988Y-60456989D01*
X187047146Y-60447045D01*
X187110702Y-60476070D01*
X187138854Y-60511325D01*
X187164090Y-60558538D01*
X187289117Y-60710883D01*
X187441462Y-60835910D01*
X187615273Y-60928814D01*
X187803868Y-60986024D01*
X188000000Y-61005341D01*
X188196132Y-60986024D01*
X188384727Y-60928814D01*
X188558538Y-60835910D01*
X188710883Y-60710883D01*
X188835910Y-60558538D01*
X188928814Y-60384727D01*
X188986024Y-60196132D01*
X189005341Y-60000000D01*
X189494659Y-60000000D01*
X189513976Y-60196133D01*
X189571185Y-60384726D01*
X189609811Y-60456989D01*
X189664090Y-60558538D01*
X189789117Y-60710883D01*
X189941462Y-60835910D01*
X190115273Y-60928814D01*
X190303868Y-60986024D01*
X190500000Y-61005341D01*
X190696132Y-60986024D01*
X190884727Y-60928814D01*
X191058538Y-60835910D01*
X191210883Y-60710883D01*
X191335910Y-60558538D01*
X191428814Y-60384727D01*
X191486024Y-60196132D01*
X191505341Y-60000000D01*
X191486024Y-59803868D01*
X191428814Y-59615273D01*
X191335910Y-59441462D01*
X191210883Y-59289117D01*
X191058538Y-59164090D01*
X190990738Y-59127850D01*
X190884726Y-59071185D01*
X190696133Y-59013976D01*
X190500000Y-58994659D01*
X190303866Y-59013976D01*
X190115273Y-59071185D01*
X189941463Y-59164089D01*
X189789117Y-59289117D01*
X189664089Y-59441463D01*
X189571185Y-59615273D01*
X189513976Y-59803866D01*
X189494659Y-60000000D01*
X189005341Y-60000000D01*
X188986024Y-59803868D01*
X188928814Y-59615273D01*
X188835910Y-59441462D01*
X188710883Y-59289117D01*
X188558538Y-59164090D01*
X188490738Y-59127850D01*
X188384726Y-59071185D01*
X188196133Y-59013976D01*
X188000000Y-58994659D01*
X187803866Y-59013976D01*
X187615273Y-59071185D01*
X187441463Y-59164089D01*
X187289117Y-59289117D01*
X187164089Y-59441463D01*
X187138857Y-59488669D01*
X187089895Y-59538514D01*
X187021757Y-59553974D01*
X186956077Y-59530142D01*
X186913709Y-59474585D01*
X186905499Y-59430216D01*
X186905499Y-59213595D01*
X186905449Y-59211555D01*
X186905059Y-59200153D01*
X186904944Y-59198152D01*
X186904212Y-59187232D01*
X186904028Y-59185189D01*
X186902894Y-59173852D01*
X186902647Y-59171854D01*
X186899922Y-59151275D01*
X186910688Y-59082240D01*
X186957068Y-59029985D01*
X186960826Y-59027724D01*
X188001216Y-58427039D01*
X188043552Y-58394552D01*
X188087867Y-58328231D01*
X188095354Y-58290593D01*
X188103428Y-58250002D01*
X188103428Y-56799430D01*
X188123113Y-56732391D01*
X188175917Y-56686636D01*
X188187570Y-56682011D01*
X188191169Y-56680789D01*
X188193493Y-56680000D01*
X192492654Y-56680000D01*
X192496518Y-56709356D01*
X192547192Y-56818025D01*
X192631974Y-56902807D01*
X192740643Y-56953481D01*
X192786139Y-56959470D01*
X192794213Y-56960000D01*
X192800000Y-56960000D01*
X192800000Y-56680000D01*
X192492654Y-56680000D01*
X188193493Y-56680000D01*
X188202216Y-56677039D01*
X189501216Y-55927039D01*
X189543552Y-55894552D01*
X189587867Y-55828231D01*
X189603428Y-55750000D01*
X189603428Y-54250000D01*
X189596463Y-54197093D01*
X189561185Y-54125554D01*
X189553875Y-54119143D01*
X189501214Y-54072959D01*
X189153528Y-53872217D01*
X189105313Y-53821650D01*
X189092091Y-53753043D01*
X189118059Y-53688178D01*
X189174974Y-53647650D01*
X189180566Y-53645862D01*
X189289069Y-53614004D01*
X189398049Y-53543967D01*
X189482882Y-53446063D01*
X189536697Y-53328226D01*
X189555133Y-53200000D01*
X189536697Y-53071774D01*
X189535354Y-53068834D01*
X189482881Y-52953935D01*
X189398050Y-52856034D01*
X189398049Y-52856033D01*
X189306374Y-52797117D01*
X189260621Y-52744314D01*
X189250677Y-52675156D01*
X189279702Y-52611600D01*
X189285720Y-52605136D01*
X189328812Y-52562044D01*
X189381556Y-52530750D01*
X189403118Y-52524420D01*
X189512098Y-52454383D01*
X189559220Y-52400000D01*
X189608354Y-52343297D01*
X189667132Y-52305522D01*
X189702067Y-52300499D01*
X189820701Y-52300499D01*
X189887740Y-52320184D01*
X189933495Y-52372988D01*
X189944701Y-52424499D01*
X189944701Y-52644349D01*
X189956333Y-52702831D01*
X190000648Y-52769153D01*
X190066970Y-52813468D01*
X190125452Y-52825101D01*
X190951659Y-52825101D01*
X191018698Y-52844786D01*
X191054761Y-52880210D01*
X191080807Y-52919192D01*
X191119790Y-52945239D01*
X191164595Y-52998851D01*
X191174899Y-53048341D01*
X191174899Y-53874547D01*
X191186531Y-53933029D01*
X191230846Y-53999351D01*
X191297168Y-54043666D01*
X191355650Y-54055299D01*
X191355651Y-54055299D01*
X191644348Y-54055299D01*
X191670655Y-54050066D01*
X191702830Y-54043666D01*
X191702830Y-54043665D01*
X191725807Y-54039095D01*
X191774191Y-54039095D01*
X191855652Y-54055299D01*
X191855653Y-54055299D01*
X191869216Y-54055299D01*
X191936255Y-54074984D01*
X191982010Y-54127788D01*
X191991954Y-54196946D01*
X191982010Y-54230811D01*
X191963302Y-54271773D01*
X191944867Y-54400000D01*
X191963302Y-54528226D01*
X192017118Y-54646064D01*
X192100500Y-54742293D01*
X192101951Y-54743967D01*
X192103288Y-54744826D01*
X192210931Y-54814005D01*
X192335227Y-54850500D01*
X192335228Y-54850500D01*
X192464773Y-54850500D01*
X192540565Y-54828246D01*
X192610435Y-54828246D01*
X192669212Y-54866021D01*
X192698237Y-54929577D01*
X192699499Y-54947223D01*
X192699499Y-54986157D01*
X192679814Y-55053196D01*
X192643856Y-55084604D01*
X192546774Y-55181685D01*
X192496028Y-55290512D01*
X192494200Y-55304402D01*
X192489500Y-55340099D01*
X192489500Y-55344151D01*
X192489500Y-55344152D01*
X192489500Y-55695840D01*
X192489500Y-55695855D01*
X192489501Y-55699900D01*
X192490029Y-55703916D01*
X192490030Y-55703921D01*
X192496028Y-55749488D01*
X192546776Y-55858317D01*
X192601132Y-55912673D01*
X192634617Y-55973996D01*
X192629633Y-56043688D01*
X192601132Y-56088035D01*
X192547192Y-56141974D01*
X192496518Y-56250643D01*
X192492653Y-56279999D01*
X192492654Y-56280000D01*
X193076000Y-56280000D01*
X193143039Y-56299685D01*
X193188794Y-56352489D01*
X193200000Y-56404000D01*
X193200000Y-56875779D01*
X193198738Y-56893426D01*
X193194500Y-56922901D01*
X193194500Y-57576000D01*
X193194854Y-57579297D01*
X193194855Y-57579306D01*
X193198840Y-57616372D01*
X193198842Y-57616388D01*
X193199197Y-57619684D01*
X193199903Y-57622933D01*
X193199904Y-57622934D01*
X193210403Y-57671195D01*
X193210768Y-57672732D01*
X193212878Y-57681350D01*
X193255899Y-57762085D01*
X193300399Y-57813441D01*
X193300420Y-57813464D01*
X193301655Y-57814889D01*
X193319246Y-57832843D01*
X193399063Y-57877490D01*
X193466102Y-57897175D01*
X193524000Y-57905500D01*
X193524004Y-57905500D01*
X194072678Y-57905500D01*
X194076000Y-57905500D01*
X194119684Y-57900803D01*
X194171195Y-57889597D01*
X194172732Y-57889232D01*
X194181350Y-57887121D01*
X194181368Y-57887111D01*
X194181373Y-57887110D01*
X194262085Y-57844100D01*
X194295796Y-57814889D01*
X194313441Y-57799600D01*
X194313446Y-57799595D01*
X194314889Y-57798345D01*
X194332843Y-57780754D01*
X194377490Y-57700937D01*
X194377765Y-57700000D01*
X199540000Y-57700000D01*
X199540000Y-57705786D01*
X199540529Y-57713860D01*
X199546518Y-57759356D01*
X199597192Y-57868025D01*
X199681974Y-57952807D01*
X199790642Y-58003480D01*
X199819999Y-58007344D01*
X199820000Y-58007344D01*
X199820000Y-57700000D01*
X199540000Y-57700000D01*
X194377765Y-57700000D01*
X194397175Y-57633898D01*
X194405500Y-57576000D01*
X194405500Y-57333139D01*
X194425185Y-57266101D01*
X194477989Y-57220346D01*
X194547147Y-57210402D01*
X194598387Y-57230036D01*
X194642505Y-57259515D01*
X194722867Y-57275500D01*
X194722868Y-57275500D01*
X194734846Y-57277882D01*
X194734847Y-57277883D01*
X194750000Y-57280897D01*
X194765153Y-57277883D01*
X194789344Y-57275500D01*
X195285996Y-57275500D01*
X195353035Y-57295185D01*
X195379706Y-57318294D01*
X195401951Y-57343967D01*
X195444587Y-57371368D01*
X195510931Y-57414005D01*
X195635227Y-57450500D01*
X195635228Y-57450500D01*
X195764773Y-57450500D01*
X195889068Y-57414005D01*
X195943578Y-57378973D01*
X195998049Y-57343967D01*
X196082882Y-57246063D01*
X196136697Y-57128226D01*
X196137784Y-57120661D01*
X196166806Y-57057108D01*
X196225582Y-57019331D01*
X196276704Y-57015368D01*
X196315684Y-57020500D01*
X196319737Y-57020500D01*
X196660263Y-57020500D01*
X196664316Y-57020500D01*
X196713173Y-57014068D01*
X196820404Y-56964065D01*
X196866251Y-56918218D01*
X196912319Y-56872151D01*
X196973642Y-56838666D01*
X197043334Y-56843650D01*
X197087681Y-56872151D01*
X197179594Y-56964064D01*
X197179595Y-56964064D01*
X197179596Y-56964065D01*
X197286827Y-57014068D01*
X197335684Y-57020500D01*
X197339737Y-57020500D01*
X197680263Y-57020500D01*
X197684316Y-57020500D01*
X197733173Y-57014068D01*
X197840404Y-56964065D01*
X197924065Y-56880404D01*
X197974068Y-56773173D01*
X197980500Y-56724316D01*
X197980500Y-56275684D01*
X197974068Y-56226827D01*
X197966382Y-56210344D01*
X197924065Y-56119595D01*
X197892151Y-56087682D01*
X197858665Y-56026359D01*
X197863649Y-55956668D01*
X197892151Y-55912318D01*
X197924065Y-55880404D01*
X197928023Y-55871916D01*
X197974068Y-55773173D01*
X197980500Y-55724316D01*
X197980500Y-55275684D01*
X197974068Y-55226827D01*
X197924065Y-55119596D01*
X197924064Y-55119595D01*
X197924064Y-55119594D01*
X197875686Y-55071216D01*
X197842201Y-55009893D01*
X197847185Y-54940201D01*
X197875687Y-54895853D01*
X197881540Y-54890000D01*
X199280000Y-54890000D01*
X199280000Y-54909696D01*
X199293150Y-54975810D01*
X199293150Y-55024190D01*
X199280000Y-55090303D01*
X199280000Y-55110000D01*
X199545000Y-55110000D01*
X199545000Y-54890000D01*
X199280000Y-54890000D01*
X197881540Y-54890000D01*
X197883721Y-54887819D01*
X197903224Y-54868316D01*
X197953972Y-54759487D01*
X197960500Y-54709901D01*
X197960499Y-54290100D01*
X197953972Y-54240513D01*
X197903224Y-54131684D01*
X197903223Y-54131683D01*
X197897376Y-54119143D01*
X197886884Y-54050066D01*
X197896961Y-54015233D01*
X197936697Y-53928226D01*
X197955133Y-53800000D01*
X197936697Y-53671774D01*
X197926981Y-53650500D01*
X197882881Y-53553935D01*
X197798049Y-53456033D01*
X197689068Y-53385994D01*
X197564773Y-53349500D01*
X197564772Y-53349500D01*
X197435228Y-53349500D01*
X197435227Y-53349500D01*
X197310931Y-53385994D01*
X197201950Y-53456033D01*
X197117118Y-53553935D01*
X197063302Y-53671773D01*
X197044867Y-53800000D01*
X197064729Y-53938150D01*
X197054785Y-54007308D01*
X197009030Y-54060112D01*
X196941990Y-54079796D01*
X196874951Y-54060111D01*
X196860149Y-54048182D01*
X196749356Y-53996518D01*
X196720000Y-53992653D01*
X196720000Y-54300000D01*
X196719999Y-54968638D01*
X196700314Y-55035678D01*
X196690000Y-55048477D01*
X196690000Y-55576000D01*
X196670315Y-55643039D01*
X196617511Y-55688794D01*
X196566000Y-55700000D01*
X196020001Y-55700000D01*
X196020001Y-55720194D01*
X196020531Y-55728289D01*
X196026421Y-55773040D01*
X196061421Y-55848095D01*
X196071913Y-55917172D01*
X196043394Y-55980956D01*
X195984917Y-56019196D01*
X195949039Y-56024500D01*
X195560866Y-56024500D01*
X195493827Y-56004815D01*
X195448072Y-55952011D01*
X195438128Y-55882853D01*
X195439245Y-55876326D01*
X195450500Y-55819748D01*
X195450500Y-55530252D01*
X195450500Y-55314343D01*
X195451913Y-55300000D01*
X196020000Y-55300000D01*
X196290000Y-55300000D01*
X196290000Y-55021361D01*
X196309685Y-54954322D01*
X196320000Y-54941521D01*
X196320000Y-54700000D01*
X196040000Y-54700000D01*
X196040000Y-54705786D01*
X196040529Y-54713860D01*
X196046518Y-54759356D01*
X196097192Y-54868025D01*
X196125021Y-54895854D01*
X196158506Y-54957177D01*
X196153522Y-55026869D01*
X196125022Y-55071216D01*
X196076350Y-55119888D01*
X196026422Y-55226957D01*
X196020529Y-55271724D01*
X196020000Y-55279798D01*
X196020000Y-55300000D01*
X195451913Y-55300000D01*
X195452883Y-55290151D01*
X195455897Y-55275000D01*
X195445815Y-55224316D01*
X195434515Y-55167505D01*
X195399000Y-55114354D01*
X195388994Y-55099378D01*
X195388992Y-55099376D01*
X195382210Y-55089225D01*
X195382209Y-55089225D01*
X195382205Y-55089219D01*
X195380051Y-55085996D01*
X195373624Y-55076376D01*
X195360776Y-55067791D01*
X195341986Y-55052370D01*
X194589616Y-54300000D01*
X196040000Y-54300000D01*
X196320000Y-54300000D01*
X196320000Y-53992653D01*
X196319999Y-53992653D01*
X196290643Y-53996518D01*
X196181974Y-54047192D01*
X196097192Y-54131974D01*
X196046518Y-54240643D01*
X196040529Y-54286139D01*
X196040000Y-54294213D01*
X196040000Y-54300000D01*
X194589616Y-54300000D01*
X194484979Y-54195363D01*
X194451494Y-54134040D01*
X194456478Y-54064348D01*
X194498350Y-54008415D01*
X194505613Y-54003371D01*
X194582963Y-53953662D01*
X194649999Y-53933978D01*
X194717034Y-53953660D01*
X194810931Y-54014004D01*
X194810933Y-54014005D01*
X194935227Y-54050500D01*
X194935228Y-54050500D01*
X195064773Y-54050500D01*
X195189068Y-54014005D01*
X195226289Y-53990084D01*
X195298049Y-53943967D01*
X195382882Y-53846063D01*
X195436697Y-53728226D01*
X195455133Y-53600000D01*
X195436697Y-53471774D01*
X195433408Y-53464573D01*
X195382881Y-53353935D01*
X195298049Y-53256033D01*
X195189068Y-53185994D01*
X195064773Y-53149500D01*
X195064772Y-53149500D01*
X194935228Y-53149500D01*
X194935227Y-53149500D01*
X194810932Y-53185994D01*
X194717039Y-53246336D01*
X194650000Y-53266020D01*
X194582961Y-53246336D01*
X194489067Y-53185994D01*
X194383549Y-53155012D01*
X194324770Y-53117238D01*
X194295745Y-53053683D01*
X194295745Y-53053680D01*
X194294515Y-53045125D01*
X194294513Y-53045117D01*
X194294244Y-53043242D01*
X194289152Y-53018627D01*
X194289151Y-53018625D01*
X194289151Y-53018624D01*
X194283178Y-53007415D01*
X194269023Y-52938995D01*
X194294106Y-52873783D01*
X194350463Y-52832484D01*
X194392610Y-52825101D01*
X194874548Y-52825101D01*
X194884250Y-52823170D01*
X194933030Y-52813468D01*
X194999351Y-52769153D01*
X194999351Y-52769152D01*
X195012022Y-52760686D01*
X195078699Y-52739807D01*
X195115848Y-52744810D01*
X195135227Y-52750500D01*
X195135228Y-52750500D01*
X195264773Y-52750500D01*
X195389068Y-52714005D01*
X195417758Y-52695566D01*
X195498049Y-52643967D01*
X195582882Y-52546063D01*
X195636697Y-52428226D01*
X195655133Y-52300000D01*
X195636697Y-52171774D01*
X195624171Y-52144347D01*
X195582881Y-52053935D01*
X195541087Y-52005702D01*
X195512062Y-51942147D01*
X195522006Y-51872988D01*
X195567761Y-51820184D01*
X195634800Y-51800500D01*
X195986156Y-51800500D01*
X196053195Y-51820185D01*
X196084618Y-51856159D01*
X196181683Y-51953224D01*
X196213124Y-51967885D01*
X196290513Y-52003972D01*
X196340099Y-52010500D01*
X196429010Y-52010499D01*
X196496047Y-52030183D01*
X196541803Y-52082986D01*
X196551747Y-52152145D01*
X196544867Y-52199999D01*
X196563302Y-52328226D01*
X196617118Y-52446064D01*
X196690497Y-52530748D01*
X196701951Y-52543967D01*
X196705214Y-52546064D01*
X196810931Y-52614005D01*
X196935227Y-52650500D01*
X196935228Y-52650500D01*
X197064773Y-52650500D01*
X197189068Y-52614005D01*
X197232650Y-52585996D01*
X197298049Y-52543967D01*
X197382882Y-52446063D01*
X197426170Y-52351273D01*
X197451276Y-52315115D01*
X197466391Y-52300000D01*
X199540000Y-52300000D01*
X199820000Y-52300000D01*
X199820000Y-51992653D01*
X199819999Y-51992653D01*
X199790643Y-51996518D01*
X199681974Y-52047192D01*
X199597192Y-52131974D01*
X199546518Y-52240643D01*
X199540529Y-52286139D01*
X199540000Y-52294213D01*
X199540000Y-52300000D01*
X197466391Y-52300000D01*
X197785484Y-51980909D01*
X197785484Y-51980908D01*
X197793212Y-51973181D01*
X197810376Y-51961162D01*
X197818312Y-51953225D01*
X197818316Y-51953224D01*
X197903224Y-51868316D01*
X197953972Y-51759487D01*
X197960500Y-51709901D01*
X197960499Y-51290100D01*
X197953972Y-51240513D01*
X197933885Y-51197437D01*
X197893984Y-51111868D01*
X197897643Y-51110161D01*
X197883334Y-51083955D01*
X197880500Y-51057597D01*
X197880500Y-50942402D01*
X197896140Y-50889138D01*
X197893984Y-50888133D01*
X197935080Y-50800000D01*
X197953972Y-50759487D01*
X197960500Y-50709901D01*
X197960499Y-50329499D01*
X197980183Y-50262461D01*
X198032987Y-50216706D01*
X198084499Y-50205500D01*
X198972678Y-50205500D01*
X198976000Y-50205500D01*
X199019684Y-50200803D01*
X199071195Y-50189597D01*
X199072732Y-50189232D01*
X199081350Y-50187121D01*
X199081368Y-50187111D01*
X199081373Y-50187110D01*
X199162085Y-50144100D01*
X199166575Y-50140209D01*
X199213441Y-50099600D01*
X199213446Y-50099595D01*
X199214889Y-50098345D01*
X199232843Y-50080754D01*
X199277490Y-50000937D01*
X199297175Y-49933898D01*
X199305500Y-49876000D01*
X199305500Y-49000000D01*
X200544867Y-49000000D01*
X200563302Y-49128226D01*
X200617118Y-49246064D01*
X200700450Y-49342235D01*
X200701951Y-49343967D01*
X200728916Y-49361296D01*
X200810931Y-49414005D01*
X200935227Y-49450500D01*
X200935228Y-49450500D01*
X201064773Y-49450500D01*
X201189068Y-49414005D01*
X201227803Y-49389111D01*
X201298049Y-49343967D01*
X201382882Y-49246063D01*
X201436697Y-49128226D01*
X201455133Y-49000000D01*
X213544867Y-49000000D01*
X213563302Y-49128226D01*
X213617118Y-49246064D01*
X213700450Y-49342235D01*
X213701951Y-49343967D01*
X213728916Y-49361296D01*
X213810931Y-49414005D01*
X213935227Y-49450500D01*
X213935228Y-49450500D01*
X214064773Y-49450500D01*
X214189068Y-49414005D01*
X214227803Y-49389111D01*
X214298049Y-49343967D01*
X214382882Y-49246063D01*
X214436697Y-49128226D01*
X214455133Y-49000000D01*
X217544867Y-49000000D01*
X217563302Y-49128226D01*
X217617118Y-49246064D01*
X217700450Y-49342235D01*
X217701951Y-49343967D01*
X217728916Y-49361296D01*
X217810931Y-49414005D01*
X217935227Y-49450500D01*
X217935228Y-49450500D01*
X218064773Y-49450500D01*
X218189068Y-49414005D01*
X218227803Y-49389111D01*
X218298049Y-49343967D01*
X218382882Y-49246063D01*
X218436697Y-49128226D01*
X218455133Y-49000000D01*
X218436697Y-48871774D01*
X218430154Y-48857448D01*
X218382881Y-48753935D01*
X218298049Y-48656033D01*
X218189068Y-48585994D01*
X218064773Y-48549500D01*
X218064772Y-48549500D01*
X217935228Y-48549500D01*
X217935227Y-48549500D01*
X217810931Y-48585994D01*
X217701950Y-48656033D01*
X217617118Y-48753935D01*
X217563302Y-48871773D01*
X217544867Y-49000000D01*
X214455133Y-49000000D01*
X214436697Y-48871774D01*
X214430154Y-48857448D01*
X214382881Y-48753935D01*
X214298049Y-48656033D01*
X214189068Y-48585994D01*
X214064773Y-48549500D01*
X214064772Y-48549500D01*
X213935228Y-48549500D01*
X213935227Y-48549500D01*
X213810931Y-48585994D01*
X213701950Y-48656033D01*
X213617118Y-48753935D01*
X213563302Y-48871773D01*
X213544867Y-49000000D01*
X201455133Y-49000000D01*
X201436697Y-48871774D01*
X201430154Y-48857448D01*
X201382881Y-48753935D01*
X201298049Y-48656033D01*
X201189068Y-48585994D01*
X201064773Y-48549500D01*
X201064772Y-48549500D01*
X200935228Y-48549500D01*
X200935227Y-48549500D01*
X200810931Y-48585994D01*
X200701950Y-48656033D01*
X200617118Y-48753935D01*
X200563302Y-48871773D01*
X200544867Y-49000000D01*
X199305500Y-49000000D01*
X199305500Y-48424000D01*
X199300803Y-48380316D01*
X199289597Y-48328805D01*
X199289232Y-48327268D01*
X199287121Y-48318649D01*
X199287110Y-48318629D01*
X199287110Y-48318627D01*
X199254543Y-48257512D01*
X199244100Y-48237914D01*
X199199600Y-48186558D01*
X199199580Y-48186536D01*
X199198345Y-48185111D01*
X199180754Y-48167157D01*
X199100937Y-48122510D01*
X199100936Y-48122509D01*
X199100935Y-48122509D01*
X199033901Y-48102826D01*
X199033898Y-48102825D01*
X198976000Y-48094500D01*
X196424333Y-48094500D01*
X196416997Y-48094631D01*
X196416971Y-48094631D01*
X196416743Y-48094636D01*
X196408162Y-48094944D01*
X196343675Y-48107771D01*
X196279982Y-48131527D01*
X196279944Y-48131542D01*
X196278208Y-48132190D01*
X196276493Y-48132951D01*
X196276481Y-48132957D01*
X196255239Y-48142397D01*
X196186650Y-48200614D01*
X196122801Y-48228988D01*
X196053748Y-48218338D01*
X196018728Y-48193757D01*
X195861450Y-48036479D01*
X195851494Y-48022642D01*
X195844357Y-48016135D01*
X195808077Y-47956423D01*
X195809839Y-47886576D01*
X195849083Y-47828769D01*
X195913351Y-47801356D01*
X195927897Y-47800500D01*
X223952405Y-47800500D01*
X223993907Y-47800500D01*
X224006061Y-47801097D01*
X224124317Y-47812744D01*
X224148145Y-47817483D01*
X224256005Y-47850202D01*
X224278453Y-47859501D01*
X224377849Y-47912629D01*
X224398059Y-47926133D01*
X224485179Y-47997630D01*
X224502369Y-48014820D01*
X224573866Y-48101940D01*
X224587370Y-48122150D01*
X224605410Y-48155899D01*
X224639269Y-48219246D01*
X224640495Y-48221538D01*
X224649798Y-48243997D01*
X224682514Y-48351848D01*
X224687256Y-48375688D01*
X224698776Y-48492653D01*
X224698903Y-48493937D01*
X224699500Y-48506092D01*
X224699500Y-50965864D01*
X224689958Y-50998358D01*
X224698238Y-51016487D01*
X224699500Y-51034135D01*
X224699500Y-52965865D01*
X224689958Y-52998358D01*
X224698238Y-53016486D01*
X224699500Y-53034134D01*
X224699500Y-54965866D01*
X224689959Y-54998357D01*
X224698238Y-55016485D01*
X224699500Y-55034133D01*
X224699500Y-56965867D01*
X224689959Y-56998357D01*
X224698238Y-57016484D01*
X224699500Y-57034132D01*
X224699500Y-58965868D01*
X224689960Y-58998357D01*
X224698238Y-59016483D01*
X224699500Y-59034131D01*
X224699501Y-61452404D01*
X224699501Y-61493906D01*
X224698904Y-61506061D01*
X224687257Y-61624310D01*
X224682515Y-61648150D01*
X224649799Y-61756002D01*
X224640496Y-61778461D01*
X224587371Y-61877849D01*
X224573867Y-61898059D01*
X224502370Y-61985179D01*
X224485181Y-62002368D01*
X224398062Y-62073865D01*
X224377851Y-62087370D01*
X224303691Y-62127010D01*
X224278465Y-62140494D01*
X224278459Y-62140497D01*
X224256003Y-62149798D01*
X224202077Y-62166157D01*
X224148155Y-62182514D01*
X224124315Y-62187256D01*
X224014211Y-62198101D01*
X224006081Y-62198902D01*
X223993928Y-62199499D01*
X217124000Y-62199499D01*
X217056961Y-62179814D01*
X217011206Y-62127010D01*
X217000000Y-62075499D01*
X217000000Y-59000000D01*
X223544867Y-59000000D01*
X223563302Y-59128226D01*
X223617118Y-59246064D01*
X223675988Y-59314004D01*
X223701951Y-59343967D01*
X223719455Y-59355216D01*
X223810931Y-59414005D01*
X223935227Y-59450500D01*
X223935228Y-59450500D01*
X224064773Y-59450500D01*
X224189068Y-59414005D01*
X224245310Y-59377860D01*
X224298049Y-59343967D01*
X224382882Y-59246063D01*
X224436697Y-59128226D01*
X224452763Y-59016482D01*
X224458510Y-59003896D01*
X224456523Y-59000803D01*
X224452764Y-58983523D01*
X224436697Y-58871774D01*
X224382882Y-58753937D01*
X224382881Y-58753936D01*
X224382881Y-58753935D01*
X224298049Y-58656033D01*
X224189068Y-58585994D01*
X224064773Y-58549500D01*
X224064772Y-58549500D01*
X223935228Y-58549500D01*
X223935227Y-58549500D01*
X223810931Y-58585994D01*
X223701950Y-58656033D01*
X223617118Y-58753935D01*
X223563302Y-58871773D01*
X223544867Y-59000000D01*
X217000000Y-59000000D01*
X217000000Y-56600000D01*
X214824333Y-56600000D01*
X214790165Y-56589967D01*
X214799684Y-56615486D01*
X214800000Y-56624332D01*
X214800000Y-58176000D01*
X214780315Y-58243039D01*
X214727511Y-58288794D01*
X214676000Y-58300000D01*
X214283952Y-58300000D01*
X214216913Y-58280315D01*
X214171158Y-58227511D01*
X214168821Y-58222053D01*
X214155527Y-58188818D01*
X213837499Y-57393750D01*
X213830879Y-57324197D01*
X213862913Y-57262104D01*
X213864905Y-57260064D01*
X214588320Y-56536650D01*
X214649642Y-56503166D01*
X214708645Y-56507385D01*
X214701595Y-56458353D01*
X214730620Y-56394797D01*
X214736652Y-56388319D01*
X214988152Y-56136819D01*
X215049475Y-56103334D01*
X215075833Y-56100500D01*
X217724167Y-56100500D01*
X217791206Y-56120185D01*
X217811848Y-56136819D01*
X218510618Y-56835589D01*
X218544103Y-56896912D01*
X218545675Y-56905623D01*
X218563302Y-57028226D01*
X218617118Y-57146064D01*
X218696204Y-57237335D01*
X218701951Y-57243967D01*
X218730173Y-57262104D01*
X218810931Y-57314005D01*
X218935227Y-57350500D01*
X218935228Y-57350500D01*
X219064773Y-57350500D01*
X219189068Y-57314005D01*
X219232650Y-57285996D01*
X219298049Y-57243967D01*
X219382882Y-57146063D01*
X219436697Y-57028226D01*
X219440755Y-57000000D01*
X223544867Y-57000000D01*
X223563302Y-57128226D01*
X223617118Y-57246064D01*
X223679709Y-57318298D01*
X223701951Y-57343967D01*
X223730640Y-57362404D01*
X223810931Y-57414005D01*
X223935227Y-57450500D01*
X223935228Y-57450500D01*
X224064773Y-57450500D01*
X224189068Y-57414005D01*
X224243578Y-57378973D01*
X224298049Y-57343967D01*
X224382882Y-57246063D01*
X224436697Y-57128226D01*
X224452763Y-57016483D01*
X224458511Y-57003896D01*
X224456523Y-57000802D01*
X224452763Y-56983520D01*
X224436697Y-56871774D01*
X224418565Y-56832072D01*
X224382881Y-56753935D01*
X224298049Y-56656033D01*
X224189068Y-56585994D01*
X224064773Y-56549500D01*
X224064772Y-56549500D01*
X223935228Y-56549500D01*
X223935227Y-56549500D01*
X223810931Y-56585994D01*
X223701950Y-56656033D01*
X223617118Y-56753935D01*
X223563302Y-56871773D01*
X223544867Y-57000000D01*
X219440755Y-57000000D01*
X219455133Y-56900000D01*
X219436697Y-56771774D01*
X219429508Y-56756033D01*
X219382881Y-56653935D01*
X219298049Y-56556033D01*
X219189068Y-56485994D01*
X219064773Y-56449500D01*
X219064772Y-56449500D01*
X219025833Y-56449500D01*
X218958794Y-56429815D01*
X218938152Y-56413181D01*
X218769458Y-56244487D01*
X218735973Y-56183164D01*
X218740957Y-56113472D01*
X218782829Y-56057539D01*
X218848293Y-56033122D01*
X218892073Y-56037829D01*
X218935227Y-56050500D01*
X218935228Y-56050500D01*
X219064773Y-56050500D01*
X219189068Y-56014005D01*
X219232750Y-55985932D01*
X219298049Y-55943967D01*
X219382882Y-55846063D01*
X219436697Y-55728226D01*
X219455133Y-55600000D01*
X219439014Y-55487891D01*
X219436697Y-55471773D01*
X219382881Y-55353935D01*
X219298049Y-55256033D01*
X219189068Y-55185994D01*
X219064773Y-55149500D01*
X219064772Y-55149500D01*
X219008419Y-55149500D01*
X218963621Y-55141125D01*
X218954466Y-55137578D01*
X218929192Y-55124256D01*
X218923481Y-55120344D01*
X218923480Y-55120343D01*
X218923478Y-55120342D01*
X218897484Y-55114228D01*
X218881087Y-55109151D01*
X218856173Y-55099500D01*
X218849249Y-55099500D01*
X218820859Y-55096206D01*
X218814119Y-55094621D01*
X218814118Y-55094621D01*
X218802757Y-55096206D01*
X218787666Y-55098311D01*
X218770535Y-55099500D01*
X215699862Y-55099500D01*
X215632823Y-55079815D01*
X215587068Y-55027011D01*
X215583184Y-55000000D01*
X223544867Y-55000000D01*
X223563302Y-55128226D01*
X223617118Y-55246064D01*
X223665701Y-55302132D01*
X223701951Y-55343967D01*
X223728662Y-55361133D01*
X223810931Y-55414005D01*
X223935227Y-55450500D01*
X223935228Y-55450500D01*
X224064773Y-55450500D01*
X224189068Y-55414005D01*
X224226420Y-55390000D01*
X224298049Y-55343967D01*
X224382882Y-55246063D01*
X224436697Y-55128226D01*
X224452762Y-55016485D01*
X224458511Y-55003895D01*
X224456523Y-55000801D01*
X224452762Y-54983512D01*
X224448931Y-54956868D01*
X224439935Y-54894297D01*
X224436697Y-54871773D01*
X224382881Y-54753935D01*
X224298049Y-54656033D01*
X224189068Y-54585994D01*
X224064773Y-54549500D01*
X224064772Y-54549500D01*
X223935228Y-54549500D01*
X223935227Y-54549500D01*
X223810931Y-54585994D01*
X223701950Y-54656033D01*
X223617118Y-54753935D01*
X223563302Y-54871773D01*
X223544867Y-55000000D01*
X215583184Y-55000000D01*
X215577124Y-54957853D01*
X215606149Y-54894297D01*
X215612181Y-54887819D01*
X215963681Y-54536319D01*
X216025004Y-54502834D01*
X216051362Y-54500000D01*
X217000000Y-54500000D01*
X217500000Y-54000000D01*
X217500000Y-53100000D01*
X218244867Y-53100000D01*
X218263302Y-53228226D01*
X218317118Y-53346064D01*
X218371340Y-53408640D01*
X218401951Y-53443967D01*
X218405214Y-53446064D01*
X218510931Y-53514005D01*
X218635227Y-53550500D01*
X218635228Y-53550500D01*
X218764773Y-53550500D01*
X218889068Y-53514005D01*
X218922292Y-53492653D01*
X218998049Y-53443967D01*
X219082882Y-53346063D01*
X219136697Y-53228226D01*
X219155133Y-53100000D01*
X221044867Y-53100000D01*
X221063302Y-53228226D01*
X221117118Y-53346064D01*
X221171340Y-53408640D01*
X221201951Y-53443967D01*
X221205214Y-53446064D01*
X221310931Y-53514005D01*
X221435227Y-53550500D01*
X221435228Y-53550500D01*
X221564773Y-53550500D01*
X221689068Y-53514005D01*
X221722292Y-53492653D01*
X221798049Y-53443967D01*
X221882882Y-53346063D01*
X221936697Y-53228226D01*
X221955133Y-53100000D01*
X221940755Y-53000000D01*
X223544867Y-53000000D01*
X223563302Y-53128226D01*
X223617118Y-53246064D01*
X223694538Y-53335412D01*
X223701951Y-53343967D01*
X223705214Y-53346064D01*
X223810931Y-53414005D01*
X223935227Y-53450500D01*
X223935228Y-53450500D01*
X224064773Y-53450500D01*
X224189068Y-53414005D01*
X224232650Y-53385996D01*
X224298049Y-53343967D01*
X224382882Y-53246063D01*
X224436697Y-53128226D01*
X224452762Y-53016486D01*
X224458512Y-53003895D01*
X224456523Y-53000800D01*
X224452762Y-52983511D01*
X224451074Y-52971773D01*
X224438615Y-52885111D01*
X224436697Y-52871773D01*
X224382881Y-52753935D01*
X224298049Y-52656033D01*
X224189068Y-52585994D01*
X224064773Y-52549500D01*
X224064772Y-52549500D01*
X223935228Y-52549500D01*
X223935227Y-52549500D01*
X223810931Y-52585994D01*
X223701950Y-52656033D01*
X223617118Y-52753935D01*
X223563302Y-52871773D01*
X223544867Y-53000000D01*
X221940755Y-53000000D01*
X221936697Y-52971774D01*
X221935191Y-52968477D01*
X221882881Y-52853935D01*
X221798049Y-52756033D01*
X221689068Y-52685994D01*
X221564773Y-52649500D01*
X221564772Y-52649500D01*
X221435228Y-52649500D01*
X221435227Y-52649500D01*
X221310931Y-52685994D01*
X221201950Y-52756033D01*
X221117118Y-52853935D01*
X221063302Y-52971773D01*
X221044867Y-53100000D01*
X219155133Y-53100000D01*
X219136697Y-52971774D01*
X219135191Y-52968477D01*
X219082881Y-52853935D01*
X218998049Y-52756033D01*
X218889068Y-52685994D01*
X218764773Y-52649500D01*
X218764772Y-52649500D01*
X218635228Y-52649500D01*
X218635227Y-52649500D01*
X218510931Y-52685994D01*
X218401950Y-52756033D01*
X218317118Y-52853935D01*
X218263302Y-52971773D01*
X218244867Y-53100000D01*
X217500000Y-53100000D01*
X217500000Y-51500000D01*
X217000000Y-51000000D01*
X223544867Y-51000000D01*
X223563302Y-51128226D01*
X223617118Y-51246064D01*
X223695757Y-51336819D01*
X223701951Y-51343967D01*
X223710561Y-51349500D01*
X223810931Y-51414005D01*
X223935227Y-51450500D01*
X223935228Y-51450500D01*
X224064773Y-51450500D01*
X224189068Y-51414005D01*
X224232652Y-51385995D01*
X224298049Y-51343967D01*
X224382882Y-51246063D01*
X224436697Y-51128226D01*
X224452763Y-51016487D01*
X224458513Y-51003895D01*
X224456523Y-51000799D01*
X224452762Y-50983510D01*
X224436697Y-50871773D01*
X224389650Y-50768756D01*
X224382882Y-50753937D01*
X224382881Y-50753936D01*
X224382881Y-50753935D01*
X224298049Y-50656033D01*
X224189068Y-50585994D01*
X224064773Y-50549500D01*
X224064772Y-50549500D01*
X223935228Y-50549500D01*
X223935227Y-50549500D01*
X223810931Y-50585994D01*
X223701950Y-50656033D01*
X223617118Y-50753935D01*
X223563302Y-50871773D01*
X223544867Y-51000000D01*
X217000000Y-51000000D01*
X216500000Y-50500000D01*
X214000000Y-50500000D01*
X213999999Y-50500000D01*
X213500000Y-50999999D01*
X213500000Y-51948638D01*
X213480315Y-52015677D01*
X213463681Y-52036319D01*
X212536319Y-52963681D01*
X212474996Y-52997166D01*
X212448638Y-53000000D01*
X211000000Y-53000000D01*
X211000000Y-54000000D01*
X212448638Y-54000000D01*
X212515677Y-54019685D01*
X212536319Y-54036319D01*
X213500000Y-55000000D01*
X214175666Y-55000000D01*
X214242705Y-55019685D01*
X214288460Y-55072489D01*
X214298404Y-55141647D01*
X214269379Y-55205203D01*
X214263346Y-55211681D01*
X213550467Y-55924562D01*
X212861848Y-56613181D01*
X212800525Y-56646666D01*
X212774167Y-56649500D01*
X212735227Y-56649500D01*
X212610931Y-56685994D01*
X212501950Y-56756033D01*
X212417118Y-56853935D01*
X212363302Y-56971773D01*
X212344867Y-57100000D01*
X212349809Y-57134375D01*
X212339865Y-57203534D01*
X212294109Y-57256337D01*
X212262011Y-57270997D01*
X212248026Y-57275104D01*
X212178156Y-57275107D01*
X212119376Y-57237335D01*
X212090349Y-57173780D01*
X212089990Y-57171074D01*
X212085140Y-57131128D01*
X212024818Y-56972070D01*
X211956869Y-56873629D01*
X211928184Y-56832072D01*
X211912328Y-56818025D01*
X211800852Y-56719266D01*
X211770081Y-56703116D01*
X211650224Y-56640209D01*
X211523583Y-56608996D01*
X211485056Y-56599500D01*
X211314944Y-56599500D01*
X211282284Y-56607549D01*
X211149775Y-56640209D01*
X210999149Y-56719265D01*
X210871814Y-56832073D01*
X210802048Y-56933146D01*
X210747765Y-56977136D01*
X210678316Y-56984795D01*
X210615752Y-56953691D01*
X210597953Y-56933149D01*
X210528183Y-56832071D01*
X210400852Y-56719266D01*
X210370081Y-56703116D01*
X210250222Y-56640208D01*
X210220325Y-56632839D01*
X210159945Y-56597683D01*
X210128157Y-56535463D01*
X210129854Y-56481776D01*
X210143900Y-56426742D01*
X210000001Y-56282843D01*
X209856097Y-56426744D01*
X209870144Y-56481778D01*
X209867650Y-56551603D01*
X209827802Y-56608996D01*
X209779671Y-56632841D01*
X209749775Y-56640209D01*
X209599149Y-56719265D01*
X209471815Y-56832072D01*
X209402050Y-56933145D01*
X209347767Y-56977136D01*
X209278318Y-56984795D01*
X209215753Y-56953691D01*
X209197950Y-56933145D01*
X209128184Y-56832072D01*
X209112328Y-56818025D01*
X209000852Y-56719266D01*
X208933269Y-56683795D01*
X208883058Y-56635211D01*
X208867084Y-56567192D01*
X208890420Y-56501334D01*
X208945656Y-56458547D01*
X208990897Y-56450000D01*
X209064699Y-56450000D01*
X209143901Y-56426743D01*
X209000001Y-56282843D01*
X208856097Y-56426745D01*
X208863430Y-56455475D01*
X208860936Y-56525300D01*
X208821088Y-56582692D01*
X208756536Y-56609430D01*
X208713608Y-56606537D01*
X208685057Y-56599500D01*
X208685056Y-56599500D01*
X208514944Y-56599500D01*
X208482284Y-56607549D01*
X208349775Y-56640209D01*
X208199149Y-56719265D01*
X208071815Y-56832072D01*
X208002050Y-56933145D01*
X207947767Y-56977136D01*
X207878318Y-56984795D01*
X207815753Y-56953691D01*
X207797950Y-56933145D01*
X207728184Y-56832072D01*
X207712328Y-56818025D01*
X207600852Y-56719266D01*
X207570081Y-56703116D01*
X207450224Y-56640209D01*
X207323583Y-56608996D01*
X207285056Y-56599500D01*
X207114944Y-56599500D01*
X207082284Y-56607549D01*
X206949775Y-56640209D01*
X206799149Y-56719265D01*
X206671815Y-56832072D01*
X206575181Y-56972071D01*
X206519281Y-57119470D01*
X206477104Y-57175173D01*
X206411506Y-57199231D01*
X206403339Y-57199500D01*
X206292342Y-57199500D01*
X206225303Y-57179815D01*
X206198629Y-57156703D01*
X206198049Y-57156033D01*
X206198047Y-57156032D01*
X206198044Y-57156028D01*
X206089070Y-57085995D01*
X205964773Y-57049500D01*
X205964772Y-57049500D01*
X205835228Y-57049500D01*
X205835227Y-57049500D01*
X205710931Y-57085994D01*
X205601950Y-57156033D01*
X205517118Y-57253935D01*
X205463302Y-57371773D01*
X205460230Y-57393146D01*
X205431205Y-57456702D01*
X205372428Y-57494477D01*
X205337492Y-57499500D01*
X203184500Y-57499500D01*
X203117461Y-57479815D01*
X203071706Y-57427011D01*
X203060500Y-57375500D01*
X203060500Y-56719937D01*
X203063243Y-56703116D01*
X203062772Y-56692929D01*
X203062773Y-56692927D01*
X203060765Y-56649500D01*
X203060632Y-56646611D01*
X203060500Y-56640886D01*
X203060500Y-56624000D01*
X203080185Y-56556961D01*
X203132989Y-56511206D01*
X203184500Y-56500000D01*
X203600000Y-56500000D01*
X203673256Y-56426744D01*
X207856098Y-56426744D01*
X207935300Y-56450000D01*
X208064699Y-56450000D01*
X208143901Y-56426743D01*
X208000001Y-56282843D01*
X207856098Y-56426744D01*
X203673256Y-56426744D01*
X204099999Y-56000000D01*
X207545373Y-56000000D01*
X207563789Y-56128082D01*
X207571715Y-56145440D01*
X207684664Y-56032492D01*
X207900000Y-56032492D01*
X207938197Y-56085065D01*
X207984162Y-56100000D01*
X208015838Y-56100000D01*
X208061803Y-56085065D01*
X208100000Y-56032492D01*
X208100000Y-55999998D01*
X208282843Y-55999998D01*
X208428284Y-56145440D01*
X208477987Y-56136473D01*
X208522025Y-56136474D01*
X208571714Y-56145440D01*
X208684664Y-56032492D01*
X208900000Y-56032492D01*
X208938197Y-56085065D01*
X208984162Y-56100000D01*
X209015838Y-56100000D01*
X209061803Y-56085065D01*
X209100000Y-56032492D01*
X209100000Y-55999998D01*
X209282843Y-55999998D01*
X209428284Y-56145440D01*
X209477987Y-56136473D01*
X209522025Y-56136474D01*
X209571714Y-56145440D01*
X209684663Y-56032492D01*
X209900000Y-56032492D01*
X209938197Y-56085065D01*
X209984162Y-56100000D01*
X210015838Y-56100000D01*
X210061803Y-56085065D01*
X210100000Y-56032492D01*
X210100000Y-55999998D01*
X210282843Y-55999998D01*
X210428284Y-56145440D01*
X210436211Y-56128082D01*
X210454626Y-56000000D01*
X210436211Y-55871916D01*
X210428284Y-55854558D01*
X210428283Y-55854558D01*
X210282843Y-55999998D01*
X210100000Y-55999998D01*
X210100000Y-55967508D01*
X210061803Y-55914935D01*
X210015838Y-55900000D01*
X209984162Y-55900000D01*
X209938197Y-55914935D01*
X209900000Y-55967508D01*
X209900000Y-56032492D01*
X209684663Y-56032492D01*
X209717156Y-55999999D01*
X209571715Y-55854557D01*
X209522026Y-55863525D01*
X209477986Y-55863526D01*
X209428283Y-55854558D01*
X209282843Y-55999998D01*
X209100000Y-55999998D01*
X209100000Y-55967508D01*
X209061803Y-55914935D01*
X209015838Y-55900000D01*
X208984162Y-55900000D01*
X208938197Y-55914935D01*
X208900000Y-55967508D01*
X208900000Y-56032492D01*
X208684664Y-56032492D01*
X208717157Y-55999999D01*
X208571715Y-55854557D01*
X208522026Y-55863525D01*
X208477986Y-55863526D01*
X208428283Y-55854558D01*
X208282843Y-55999998D01*
X208100000Y-55999998D01*
X208100000Y-55967508D01*
X208061803Y-55914935D01*
X208015838Y-55900000D01*
X207984162Y-55900000D01*
X207938197Y-55914935D01*
X207900000Y-55967508D01*
X207900000Y-56032492D01*
X207684664Y-56032492D01*
X207717157Y-55999999D01*
X207571715Y-55854558D01*
X207571714Y-55854558D01*
X207563789Y-55871915D01*
X207545373Y-56000000D01*
X204099999Y-56000000D01*
X204476973Y-55623026D01*
X204538294Y-55589543D01*
X204607985Y-55594527D01*
X204663919Y-55636399D01*
X204677446Y-55659196D01*
X204717119Y-55746065D01*
X204763221Y-55799270D01*
X204801951Y-55843967D01*
X204818431Y-55854558D01*
X204910931Y-55914005D01*
X205035227Y-55950500D01*
X205035228Y-55950500D01*
X205164773Y-55950500D01*
X205289068Y-55914005D01*
X205337541Y-55882853D01*
X205398049Y-55843967D01*
X205482882Y-55746063D01*
X205536697Y-55628226D01*
X205544601Y-55573254D01*
X207856097Y-55573254D01*
X207999999Y-55717156D01*
X208143900Y-55573254D01*
X208856097Y-55573254D01*
X208999999Y-55717156D01*
X209143900Y-55573254D01*
X209856097Y-55573254D01*
X209999999Y-55717156D01*
X210143900Y-55573254D01*
X210133030Y-55530667D01*
X210133030Y-55469333D01*
X210143900Y-55426742D01*
X210000001Y-55282843D01*
X209856097Y-55426744D01*
X209866968Y-55469334D01*
X209866968Y-55530666D01*
X209856097Y-55573254D01*
X209143900Y-55573254D01*
X209133030Y-55530667D01*
X209133030Y-55469333D01*
X209143900Y-55426742D01*
X209000001Y-55282843D01*
X208856097Y-55426744D01*
X208866968Y-55469334D01*
X208866968Y-55530666D01*
X208856097Y-55573254D01*
X208143900Y-55573254D01*
X208133030Y-55530667D01*
X208133030Y-55469333D01*
X208143900Y-55426742D01*
X208000001Y-55282843D01*
X207856097Y-55426744D01*
X207866968Y-55469334D01*
X207866968Y-55530666D01*
X207856097Y-55573254D01*
X205544601Y-55573254D01*
X205555133Y-55500000D01*
X205536697Y-55371774D01*
X205534160Y-55354127D01*
X205534707Y-55354048D01*
X205527569Y-55304402D01*
X205556593Y-55240846D01*
X205583267Y-55217733D01*
X205639360Y-55181684D01*
X205698049Y-55143967D01*
X205704543Y-55136473D01*
X205764055Y-55067791D01*
X205782882Y-55046063D01*
X205803919Y-55000000D01*
X207545373Y-55000000D01*
X207563789Y-55128082D01*
X207571715Y-55145440D01*
X207684664Y-55032492D01*
X207900000Y-55032492D01*
X207938197Y-55085065D01*
X207984162Y-55100000D01*
X208015838Y-55100000D01*
X208061803Y-55085065D01*
X208100000Y-55032492D01*
X208100000Y-54999998D01*
X208282843Y-54999998D01*
X208428284Y-55145440D01*
X208477987Y-55136473D01*
X208522025Y-55136474D01*
X208571714Y-55145440D01*
X208684664Y-55032492D01*
X208900000Y-55032492D01*
X208938197Y-55085065D01*
X208984162Y-55100000D01*
X209015838Y-55100000D01*
X209061803Y-55085065D01*
X209100000Y-55032492D01*
X209100000Y-54999998D01*
X209282843Y-54999998D01*
X209428284Y-55145440D01*
X209477987Y-55136473D01*
X209522025Y-55136474D01*
X209571714Y-55145440D01*
X209684663Y-55032492D01*
X209900000Y-55032492D01*
X209938197Y-55085065D01*
X209984162Y-55100000D01*
X210015838Y-55100000D01*
X210061803Y-55085065D01*
X210100000Y-55032492D01*
X210100000Y-55000001D01*
X210282843Y-55000001D01*
X210428283Y-55145441D01*
X210436211Y-55128082D01*
X210454626Y-55000000D01*
X210436211Y-54871916D01*
X210428284Y-54854558D01*
X210428283Y-54854558D01*
X210282843Y-55000000D01*
X210282843Y-55000001D01*
X210100000Y-55000001D01*
X210100000Y-54967508D01*
X210061803Y-54914935D01*
X210015838Y-54900000D01*
X209984162Y-54900000D01*
X209938197Y-54914935D01*
X209900000Y-54967508D01*
X209900000Y-55032492D01*
X209684663Y-55032492D01*
X209717156Y-54999999D01*
X209571715Y-54854557D01*
X209522026Y-54863525D01*
X209477986Y-54863526D01*
X209428283Y-54854558D01*
X209282843Y-54999998D01*
X209100000Y-54999998D01*
X209100000Y-54967508D01*
X209061803Y-54914935D01*
X209015838Y-54900000D01*
X208984162Y-54900000D01*
X208938197Y-54914935D01*
X208900000Y-54967508D01*
X208900000Y-55032492D01*
X208684664Y-55032492D01*
X208717157Y-54999999D01*
X208571715Y-54854557D01*
X208522026Y-54863525D01*
X208477986Y-54863526D01*
X208428283Y-54854558D01*
X208282843Y-54999998D01*
X208100000Y-54999998D01*
X208100000Y-54967508D01*
X208061803Y-54914935D01*
X208015838Y-54900000D01*
X207984162Y-54900000D01*
X207938197Y-54914935D01*
X207900000Y-54967508D01*
X207900000Y-55032492D01*
X207684664Y-55032492D01*
X207717157Y-54999999D01*
X207571715Y-54854558D01*
X207571714Y-54854558D01*
X207563789Y-54871915D01*
X207545373Y-55000000D01*
X205803919Y-55000000D01*
X205836697Y-54928226D01*
X205855133Y-54800000D01*
X205836697Y-54671774D01*
X205834160Y-54654127D01*
X205835305Y-54653962D01*
X205828459Y-54606358D01*
X205843576Y-54573254D01*
X207856097Y-54573254D01*
X207999999Y-54717156D01*
X208143900Y-54573254D01*
X208856097Y-54573254D01*
X208999999Y-54717156D01*
X209143900Y-54573254D01*
X209856097Y-54573254D01*
X209999999Y-54717156D01*
X210143900Y-54573254D01*
X210133030Y-54530667D01*
X210133030Y-54469333D01*
X210143900Y-54426742D01*
X210000001Y-54282843D01*
X209856097Y-54426744D01*
X209866968Y-54469334D01*
X209866968Y-54530666D01*
X209856097Y-54573254D01*
X209143900Y-54573254D01*
X209133030Y-54530667D01*
X209133030Y-54469333D01*
X209143900Y-54426742D01*
X209000001Y-54282843D01*
X208856097Y-54426744D01*
X208866968Y-54469334D01*
X208866968Y-54530666D01*
X208856097Y-54573254D01*
X208143900Y-54573254D01*
X208133030Y-54530667D01*
X208133030Y-54469333D01*
X208143900Y-54426742D01*
X208000001Y-54282843D01*
X207856097Y-54426744D01*
X207866968Y-54469334D01*
X207866968Y-54530666D01*
X207856097Y-54573254D01*
X205843576Y-54573254D01*
X205857482Y-54542801D01*
X205916259Y-54505024D01*
X205951198Y-54500000D01*
X207000000Y-54500000D01*
X207000000Y-54000000D01*
X207545373Y-54000000D01*
X207563789Y-54128082D01*
X207571715Y-54145440D01*
X207684664Y-54032492D01*
X207900000Y-54032492D01*
X207938197Y-54085065D01*
X207984162Y-54100000D01*
X208015838Y-54100000D01*
X208061803Y-54085065D01*
X208100000Y-54032492D01*
X208100000Y-53999998D01*
X208282843Y-53999998D01*
X208428284Y-54145440D01*
X208477987Y-54136473D01*
X208522025Y-54136474D01*
X208571714Y-54145440D01*
X208684664Y-54032492D01*
X208900000Y-54032492D01*
X208938197Y-54085065D01*
X208984162Y-54100000D01*
X209015838Y-54100000D01*
X209061803Y-54085065D01*
X209100000Y-54032492D01*
X209100000Y-54000001D01*
X209282843Y-54000001D01*
X209428282Y-54145440D01*
X209477987Y-54136473D01*
X209522025Y-54136474D01*
X209571714Y-54145440D01*
X209684663Y-54032492D01*
X209900000Y-54032492D01*
X209938197Y-54085065D01*
X209984162Y-54100000D01*
X210015838Y-54100000D01*
X210061803Y-54085065D01*
X210100000Y-54032492D01*
X210100000Y-54000000D01*
X210282843Y-54000000D01*
X210428283Y-54145441D01*
X210436211Y-54128082D01*
X210454626Y-54000000D01*
X210436211Y-53871916D01*
X210428284Y-53854558D01*
X210428283Y-53854558D01*
X210282843Y-54000000D01*
X210100000Y-54000000D01*
X210100000Y-53967508D01*
X210061803Y-53914935D01*
X210015838Y-53900000D01*
X209984162Y-53900000D01*
X209938197Y-53914935D01*
X209900000Y-53967508D01*
X209900000Y-54032492D01*
X209684663Y-54032492D01*
X209717156Y-53999999D01*
X209571715Y-53854557D01*
X209522026Y-53863525D01*
X209477987Y-53863526D01*
X209428284Y-53854558D01*
X209282843Y-54000000D01*
X209282843Y-54000001D01*
X209100000Y-54000001D01*
X209100000Y-53967508D01*
X209061803Y-53914935D01*
X209015838Y-53900000D01*
X208984162Y-53900000D01*
X208938197Y-53914935D01*
X208900000Y-53967508D01*
X208900000Y-54032492D01*
X208684664Y-54032492D01*
X208717157Y-53999999D01*
X208571715Y-53854557D01*
X208522026Y-53863525D01*
X208477986Y-53863526D01*
X208428283Y-53854558D01*
X208282843Y-53999998D01*
X208100000Y-53999998D01*
X208100000Y-53967508D01*
X208061803Y-53914935D01*
X208015838Y-53900000D01*
X207984162Y-53900000D01*
X207938197Y-53914935D01*
X207900000Y-53967508D01*
X207900000Y-54032492D01*
X207684664Y-54032492D01*
X207717157Y-53999999D01*
X207571715Y-53854558D01*
X207571714Y-53854558D01*
X207563789Y-53871915D01*
X207545373Y-54000000D01*
X207000000Y-54000000D01*
X207000000Y-53573255D01*
X207856098Y-53573255D01*
X207999999Y-53717156D01*
X208143899Y-53573255D01*
X208856098Y-53573255D01*
X208999999Y-53717156D01*
X209143899Y-53573255D01*
X209856098Y-53573255D01*
X209999999Y-53717156D01*
X210143900Y-53573254D01*
X210064701Y-53550000D01*
X209935301Y-53550000D01*
X209856098Y-53573255D01*
X209143899Y-53573255D01*
X209143900Y-53573254D01*
X209064701Y-53550000D01*
X208935301Y-53550000D01*
X208856098Y-53573255D01*
X208143899Y-53573255D01*
X208143900Y-53573254D01*
X208064701Y-53550000D01*
X207935301Y-53550000D01*
X207856098Y-53573255D01*
X207000000Y-53573255D01*
X207000000Y-53500000D01*
X205151362Y-53500000D01*
X205084323Y-53480315D01*
X205063681Y-53463681D01*
X204536319Y-52936318D01*
X204502834Y-52874995D01*
X204500000Y-52848637D01*
X204500000Y-52400000D01*
X203900000Y-51800000D01*
X206344867Y-51800000D01*
X206363302Y-51928226D01*
X206417118Y-52046064D01*
X206491274Y-52131645D01*
X206501951Y-52143967D01*
X206530640Y-52162404D01*
X206610931Y-52214005D01*
X206735227Y-52250500D01*
X206735228Y-52250500D01*
X206864773Y-52250500D01*
X206989068Y-52214005D01*
X207054780Y-52171774D01*
X207098049Y-52143967D01*
X207182882Y-52046063D01*
X207236697Y-51928226D01*
X207255133Y-51800000D01*
X207236697Y-51671774D01*
X207235283Y-51668678D01*
X207182881Y-51553935D01*
X207136146Y-51500000D01*
X209044867Y-51500000D01*
X209063302Y-51628226D01*
X209117118Y-51746064D01*
X209196392Y-51837552D01*
X209201951Y-51843967D01*
X209210561Y-51849500D01*
X209310931Y-51914005D01*
X209435227Y-51950500D01*
X209435228Y-51950500D01*
X209564773Y-51950500D01*
X209689068Y-51914005D01*
X209746631Y-51877011D01*
X209798049Y-51843967D01*
X209882882Y-51746063D01*
X209936697Y-51628226D01*
X209955133Y-51500000D01*
X210544867Y-51500000D01*
X210563302Y-51628226D01*
X210617118Y-51746064D01*
X210696392Y-51837552D01*
X210701951Y-51843967D01*
X210710561Y-51849500D01*
X210810931Y-51914005D01*
X210935227Y-51950500D01*
X210935228Y-51950500D01*
X211064773Y-51950500D01*
X211189068Y-51914005D01*
X211246631Y-51877011D01*
X211298049Y-51843967D01*
X211382882Y-51746063D01*
X211436697Y-51628226D01*
X211455133Y-51500000D01*
X212044867Y-51500000D01*
X212063302Y-51628226D01*
X212117118Y-51746064D01*
X212196392Y-51837552D01*
X212201951Y-51843967D01*
X212210561Y-51849500D01*
X212310931Y-51914005D01*
X212435227Y-51950500D01*
X212435228Y-51950500D01*
X212564773Y-51950500D01*
X212689068Y-51914005D01*
X212746631Y-51877011D01*
X212798049Y-51843967D01*
X212882882Y-51746063D01*
X212936697Y-51628226D01*
X212955133Y-51500000D01*
X212936697Y-51371774D01*
X212936424Y-51371177D01*
X212882881Y-51253935D01*
X212798049Y-51156033D01*
X212689068Y-51085994D01*
X212564773Y-51049500D01*
X212564772Y-51049500D01*
X212435228Y-51049500D01*
X212435227Y-51049500D01*
X212310931Y-51085994D01*
X212201950Y-51156033D01*
X212117118Y-51253935D01*
X212063302Y-51371773D01*
X212044867Y-51500000D01*
X211455133Y-51500000D01*
X211436697Y-51371774D01*
X211436424Y-51371177D01*
X211382881Y-51253935D01*
X211298049Y-51156033D01*
X211189068Y-51085994D01*
X211064773Y-51049500D01*
X211064772Y-51049500D01*
X210935228Y-51049500D01*
X210935227Y-51049500D01*
X210810931Y-51085994D01*
X210701950Y-51156033D01*
X210617118Y-51253935D01*
X210563302Y-51371773D01*
X210544867Y-51500000D01*
X209955133Y-51500000D01*
X209936697Y-51371774D01*
X209936424Y-51371177D01*
X209882881Y-51253935D01*
X209798049Y-51156033D01*
X209689068Y-51085994D01*
X209564773Y-51049500D01*
X209564772Y-51049500D01*
X209435228Y-51049500D01*
X209435227Y-51049500D01*
X209310931Y-51085994D01*
X209201950Y-51156033D01*
X209117118Y-51253935D01*
X209063302Y-51371773D01*
X209044867Y-51500000D01*
X207136146Y-51500000D01*
X207098049Y-51456033D01*
X206989068Y-51385994D01*
X206864773Y-51349500D01*
X206864772Y-51349500D01*
X206735228Y-51349500D01*
X206735227Y-51349500D01*
X206610931Y-51385994D01*
X206501950Y-51456033D01*
X206417118Y-51553935D01*
X206363302Y-51671773D01*
X206344867Y-51800000D01*
X203900000Y-51800000D01*
X203600000Y-51500000D01*
X202724500Y-51500000D01*
X202657461Y-51480315D01*
X202611706Y-51427511D01*
X202600500Y-51376000D01*
X202600500Y-51371177D01*
X202598817Y-51356680D01*
X202597585Y-51330008D01*
X202594786Y-51323670D01*
X202586332Y-51296367D01*
X202585919Y-51294159D01*
X202585061Y-51289567D01*
X202576371Y-51275532D01*
X202571002Y-51266860D01*
X202562995Y-51251670D01*
X202560519Y-51246063D01*
X202552206Y-51227235D01*
X202547309Y-51222339D01*
X202529563Y-51199933D01*
X202525919Y-51194048D01*
X202504602Y-51177950D01*
X202491648Y-51166677D01*
X202416726Y-51091755D01*
X202383241Y-51030432D01*
X202386546Y-50984209D01*
X202383325Y-50983818D01*
X202392828Y-50905560D01*
X202405645Y-50800000D01*
X202385140Y-50631128D01*
X202324818Y-50472070D01*
X202276500Y-50402070D01*
X202228184Y-50332072D01*
X202191982Y-50300000D01*
X206044867Y-50300000D01*
X206063302Y-50428226D01*
X206117118Y-50546064D01*
X206201950Y-50643966D01*
X206201951Y-50643967D01*
X206220726Y-50656033D01*
X206310931Y-50714005D01*
X206435227Y-50750500D01*
X206435228Y-50750500D01*
X206564773Y-50750500D01*
X206689068Y-50714005D01*
X206731813Y-50686534D01*
X206798049Y-50643967D01*
X206882882Y-50546063D01*
X206936697Y-50428226D01*
X206955133Y-50300000D01*
X206936697Y-50171774D01*
X206923943Y-50143848D01*
X206891460Y-50072721D01*
X206882882Y-50053937D01*
X206882881Y-50053936D01*
X206882881Y-50053935D01*
X206798049Y-49956033D01*
X206689068Y-49885994D01*
X206564773Y-49849500D01*
X206564772Y-49849500D01*
X206435228Y-49849500D01*
X206435227Y-49849500D01*
X206310931Y-49885994D01*
X206201950Y-49956033D01*
X206117118Y-50053935D01*
X206063302Y-50171773D01*
X206044867Y-50300000D01*
X202191982Y-50300000D01*
X202190412Y-50298609D01*
X202100852Y-50219266D01*
X202073945Y-50205144D01*
X201950224Y-50140209D01*
X201825764Y-50109533D01*
X201785056Y-50099500D01*
X201614944Y-50099500D01*
X201582284Y-50107549D01*
X201449775Y-50140209D01*
X201299149Y-50219265D01*
X201171815Y-50332072D01*
X201102050Y-50433145D01*
X201047767Y-50477136D01*
X200978318Y-50484795D01*
X200915753Y-50453691D01*
X200897950Y-50433145D01*
X200828184Y-50332072D01*
X200790412Y-50298609D01*
X200700852Y-50219266D01*
X200673945Y-50205144D01*
X200550224Y-50140209D01*
X200425764Y-50109533D01*
X200385056Y-50099500D01*
X200214944Y-50099500D01*
X200182284Y-50107549D01*
X200049775Y-50140209D01*
X199899149Y-50219265D01*
X199771815Y-50332072D01*
X199675182Y-50472069D01*
X199614860Y-50631127D01*
X199594354Y-50799999D01*
X199614860Y-50968872D01*
X199675182Y-51127930D01*
X199771815Y-51267927D01*
X199771816Y-51267928D01*
X199771817Y-51267929D01*
X199899148Y-51380734D01*
X200049775Y-51459790D01*
X200214944Y-51500500D01*
X200214945Y-51500500D01*
X200385054Y-51500500D01*
X200385056Y-51500500D01*
X200469963Y-51479572D01*
X200539763Y-51482641D01*
X200587316Y-51512287D01*
X200855966Y-51780938D01*
X200889451Y-51842260D01*
X200884467Y-51911952D01*
X200842595Y-51967885D01*
X200784469Y-51991557D01*
X200750514Y-51996026D01*
X200641682Y-52046776D01*
X200587327Y-52101132D01*
X200526004Y-52134617D01*
X200456312Y-52129633D01*
X200411965Y-52101132D01*
X200358025Y-52047192D01*
X200249356Y-51996518D01*
X200220000Y-51992653D01*
X200220000Y-52576000D01*
X200200315Y-52643039D01*
X200147511Y-52688794D01*
X200096000Y-52700000D01*
X199540000Y-52700000D01*
X199540000Y-52705786D01*
X199540529Y-52713860D01*
X199546518Y-52759356D01*
X199597192Y-52868025D01*
X199681974Y-52952807D01*
X199807941Y-53011547D01*
X199806910Y-53013756D01*
X199844624Y-53030436D01*
X199883100Y-53088758D01*
X199883937Y-53158622D01*
X199852231Y-53212796D01*
X199521475Y-53543552D01*
X199507639Y-53553508D01*
X199469523Y-53595318D01*
X199465573Y-53599454D01*
X199452141Y-53612886D01*
X199443087Y-53624317D01*
X199425083Y-53644067D01*
X199422578Y-53650534D01*
X199409259Y-53675802D01*
X199405343Y-53681518D01*
X199399228Y-53707517D01*
X199394151Y-53723913D01*
X199384499Y-53748828D01*
X199384499Y-53755756D01*
X199381206Y-53784138D01*
X199379620Y-53790878D01*
X199383311Y-53817333D01*
X199384500Y-53834464D01*
X199384500Y-53866393D01*
X199364815Y-53933432D01*
X199339878Y-53958819D01*
X199335448Y-53965447D01*
X199335448Y-53965448D01*
X199317270Y-53992653D01*
X199291132Y-54031770D01*
X199282939Y-54072961D01*
X199279500Y-54090252D01*
X199279500Y-54409748D01*
X199282881Y-54426744D01*
X199292895Y-54477090D01*
X199292895Y-54525469D01*
X199280000Y-54590301D01*
X199280000Y-54610000D01*
X199701000Y-54610000D01*
X199768039Y-54629685D01*
X199813794Y-54682489D01*
X199825000Y-54734000D01*
X199825000Y-55266000D01*
X199805315Y-55333039D01*
X199752511Y-55378794D01*
X199701000Y-55390000D01*
X199280000Y-55390000D01*
X199280000Y-55409698D01*
X199292895Y-55474531D01*
X199292895Y-55522910D01*
X199279500Y-55590253D01*
X199279500Y-55909748D01*
X199291132Y-55968230D01*
X199349151Y-56055060D01*
X199349030Y-56055140D01*
X199372045Y-56082678D01*
X199377959Y-56129758D01*
X199381157Y-56129611D01*
X199384368Y-56199078D01*
X199384500Y-56204804D01*
X199384500Y-56223818D01*
X199386181Y-56238307D01*
X199387415Y-56264993D01*
X199390213Y-56271330D01*
X199398666Y-56298626D01*
X199399938Y-56305434D01*
X199413997Y-56328140D01*
X199422002Y-56343327D01*
X199432792Y-56367763D01*
X199437688Y-56372659D01*
X199455434Y-56395063D01*
X199459081Y-56400952D01*
X199480396Y-56417048D01*
X199493351Y-56428322D01*
X199852231Y-56787203D01*
X199885716Y-56848526D01*
X199880732Y-56918218D01*
X199838860Y-56974151D01*
X199807271Y-56987016D01*
X199807941Y-56988453D01*
X199681974Y-57047192D01*
X199597192Y-57131974D01*
X199546518Y-57240643D01*
X199540529Y-57286139D01*
X199540000Y-57294213D01*
X199540000Y-57300000D01*
X200096000Y-57300000D01*
X200163039Y-57319685D01*
X200208794Y-57372489D01*
X200220000Y-57424000D01*
X200220000Y-58007344D01*
X200249357Y-58003480D01*
X200358022Y-57952808D01*
X200411963Y-57898868D01*
X200473286Y-57865383D01*
X200542978Y-57870367D01*
X200587326Y-57898867D01*
X200641685Y-57953225D01*
X200677643Y-57969992D01*
X200750513Y-58003972D01*
X200800099Y-58010500D01*
X201133868Y-58010499D01*
X201200907Y-58030183D01*
X201246662Y-58082987D01*
X201257735Y-58128772D01*
X201259368Y-58164078D01*
X201259500Y-58169804D01*
X201259500Y-58188818D01*
X201261181Y-58203307D01*
X201262415Y-58229993D01*
X201265213Y-58236330D01*
X201273666Y-58263626D01*
X201274938Y-58270434D01*
X201288997Y-58293140D01*
X201297002Y-58308327D01*
X201307792Y-58332763D01*
X201312688Y-58337659D01*
X201330434Y-58360063D01*
X201334081Y-58365952D01*
X201355396Y-58382048D01*
X201368351Y-58393322D01*
X202138550Y-59163521D01*
X202148507Y-59177358D01*
X202156041Y-59184226D01*
X202156042Y-59184228D01*
X202169429Y-59196432D01*
X202190316Y-59215474D01*
X202194457Y-59219429D01*
X202207888Y-59232860D01*
X202219328Y-59241922D01*
X202239065Y-59259915D01*
X202239066Y-59259915D01*
X202239067Y-59259916D01*
X202245340Y-59262346D01*
X202245523Y-59262417D01*
X202270810Y-59275745D01*
X202276519Y-59279656D01*
X202302514Y-59285769D01*
X202318910Y-59290846D01*
X202343827Y-59300500D01*
X202350751Y-59300500D01*
X202379140Y-59303793D01*
X202385881Y-59305379D01*
X202412333Y-59301688D01*
X202429465Y-59300500D01*
X206301985Y-59300500D01*
X206369024Y-59320185D01*
X206389666Y-59336819D01*
X206716368Y-59663521D01*
X206726325Y-59677358D01*
X206733859Y-59684226D01*
X206733860Y-59684228D01*
X206742004Y-59691652D01*
X206768134Y-59715474D01*
X206772275Y-59719429D01*
X206785706Y-59732860D01*
X206797146Y-59741922D01*
X206816883Y-59759915D01*
X206816884Y-59759915D01*
X206816885Y-59759916D01*
X206823344Y-59762418D01*
X206848627Y-59775745D01*
X206854338Y-59779657D01*
X206880335Y-59785771D01*
X206896726Y-59790846D01*
X206921645Y-59800500D01*
X206928570Y-59800500D01*
X206956960Y-59803794D01*
X206963699Y-59805379D01*
X206990150Y-59801689D01*
X207007282Y-59800500D01*
X208207719Y-59800500D01*
X208224539Y-59803243D01*
X208234724Y-59802772D01*
X208234727Y-59802773D01*
X208281042Y-59800631D01*
X208286767Y-59800500D01*
X208305786Y-59800500D01*
X208320280Y-59798817D01*
X208346954Y-59797585D01*
X208353292Y-59794786D01*
X208380595Y-59786332D01*
X208387395Y-59785061D01*
X208410105Y-59770998D01*
X208425287Y-59762996D01*
X208449727Y-59752206D01*
X208454621Y-59747311D01*
X208477025Y-59729564D01*
X208482914Y-59725919D01*
X208499012Y-59704600D01*
X208510280Y-59691652D01*
X208589462Y-59612472D01*
X208650785Y-59578987D01*
X208677142Y-59576154D01*
X208716081Y-59576154D01*
X208840378Y-59539658D01*
X208949352Y-59469625D01*
X208949353Y-59469623D01*
X208949357Y-59469621D01*
X208949936Y-59468952D01*
X209008711Y-59431178D01*
X209043650Y-59426154D01*
X209305103Y-59426154D01*
X209321923Y-59428897D01*
X209332108Y-59428426D01*
X209332111Y-59428427D01*
X209378426Y-59426285D01*
X209384151Y-59426154D01*
X209403170Y-59426154D01*
X209417664Y-59424471D01*
X209444338Y-59423239D01*
X209450676Y-59420440D01*
X209477979Y-59411986D01*
X209484779Y-59410715D01*
X209507489Y-59396652D01*
X209522671Y-59388650D01*
X209547111Y-59377860D01*
X209552005Y-59372965D01*
X209574409Y-59355218D01*
X209580298Y-59351573D01*
X209596399Y-59330249D01*
X209607659Y-59317310D01*
X210964202Y-57960768D01*
X211025523Y-57927285D01*
X211095215Y-57932269D01*
X211109504Y-57938654D01*
X211149775Y-57959790D01*
X211314944Y-58000500D01*
X211314945Y-58000500D01*
X211400137Y-58000500D01*
X211467176Y-58020185D01*
X211512931Y-58072989D01*
X211522875Y-58142147D01*
X211493850Y-58205703D01*
X211487818Y-58212181D01*
X208200000Y-61499999D01*
X208200000Y-62075499D01*
X208180315Y-62142538D01*
X208127511Y-62188293D01*
X208076000Y-62199499D01*
X199505758Y-62199499D01*
X199438719Y-62179814D01*
X199392964Y-62127010D01*
X199383020Y-62057852D01*
X199392964Y-62023987D01*
X199432968Y-61936391D01*
X199478723Y-61883587D01*
X199545762Y-61863903D01*
X199586718Y-61870862D01*
X199590396Y-61872149D01*
X199617911Y-61874729D01*
X199623689Y-61874999D01*
X200262499Y-61874999D01*
X200262499Y-61874998D01*
X200662499Y-61874998D01*
X200662500Y-61874999D01*
X201301300Y-61874999D01*
X201307088Y-61874728D01*
X201334605Y-61872148D01*
X201462646Y-61827345D01*
X201571792Y-61746792D01*
X201652345Y-61637646D01*
X201697149Y-61509603D01*
X201699729Y-61482088D01*
X201700000Y-61476310D01*
X201700000Y-60700000D01*
X200662500Y-60700000D01*
X200662499Y-61874998D01*
X200262499Y-61874998D01*
X200262500Y-60700000D01*
X199225000Y-60700000D01*
X199225000Y-61230902D01*
X199205315Y-61297942D01*
X199152511Y-61343696D01*
X199083353Y-61353640D01*
X199066069Y-61349880D01*
X199064775Y-61349500D01*
X199064772Y-61349500D01*
X198935228Y-61349500D01*
X198935227Y-61349500D01*
X198810931Y-61385994D01*
X198701950Y-61456033D01*
X198617118Y-61553935D01*
X198563302Y-61671773D01*
X198544867Y-61800000D01*
X198563302Y-61928226D01*
X198607036Y-62023987D01*
X198616980Y-62093145D01*
X198587955Y-62156701D01*
X198529178Y-62194476D01*
X198494242Y-62199499D01*
X194505758Y-62199499D01*
X194438719Y-62179814D01*
X194392964Y-62127010D01*
X194383020Y-62057852D01*
X194392964Y-62023987D01*
X194406375Y-61994621D01*
X194436697Y-61928226D01*
X194436697Y-61928224D01*
X194443093Y-61914220D01*
X194488848Y-61861417D01*
X194555887Y-61841732D01*
X194596840Y-61848690D01*
X194665301Y-61872646D01*
X194695734Y-61875500D01*
X194698627Y-61875500D01*
X196376373Y-61875500D01*
X196379266Y-61875500D01*
X196409699Y-61872646D01*
X196537882Y-61827793D01*
X196537882Y-61827792D01*
X196537884Y-61827792D01*
X196647150Y-61747150D01*
X196727792Y-61637884D01*
X196727793Y-61637882D01*
X196772646Y-61509699D01*
X196775500Y-61479266D01*
X196775500Y-59520734D01*
X196772646Y-59490301D01*
X196730768Y-59370621D01*
X196727792Y-59362115D01*
X196647150Y-59252849D01*
X196537884Y-59172207D01*
X196409696Y-59127353D01*
X196382151Y-59124770D01*
X196382139Y-59124769D01*
X196379266Y-59124500D01*
X194695734Y-59124500D01*
X194692861Y-59124769D01*
X194692848Y-59124770D01*
X194665301Y-59127353D01*
X194617472Y-59144089D01*
X194547693Y-59147650D01*
X194487066Y-59112920D01*
X194454840Y-59050926D01*
X194453781Y-59009402D01*
X194455133Y-59000000D01*
X198544867Y-59000000D01*
X198563302Y-59128226D01*
X198617118Y-59246064D01*
X198675988Y-59314004D01*
X198701951Y-59343967D01*
X198719455Y-59355216D01*
X198810931Y-59414005D01*
X198935227Y-59450500D01*
X198935228Y-59450500D01*
X199064770Y-59450500D01*
X199064772Y-59450500D01*
X199066066Y-59450119D01*
X199135933Y-59450119D01*
X199194712Y-59487893D01*
X199223738Y-59551448D01*
X199225000Y-59569097D01*
X199225000Y-60300000D01*
X200262500Y-60300000D01*
X200262500Y-59125000D01*
X200662500Y-59125000D01*
X200662500Y-60300000D01*
X201699999Y-60300000D01*
X201699999Y-59523700D01*
X201699728Y-59517911D01*
X201697148Y-59490394D01*
X201652345Y-59362353D01*
X201571792Y-59253207D01*
X201462646Y-59172654D01*
X201334603Y-59127850D01*
X201307088Y-59125270D01*
X201301310Y-59125000D01*
X200662500Y-59125000D01*
X200262500Y-59125000D01*
X199623700Y-59125000D01*
X199617908Y-59125271D01*
X199591361Y-59127760D01*
X199522777Y-59114417D01*
X199472294Y-59066114D01*
X199460526Y-59017236D01*
X199457670Y-59017647D01*
X199450225Y-58965868D01*
X199436697Y-58871774D01*
X199382882Y-58753937D01*
X199382881Y-58753936D01*
X199382881Y-58753935D01*
X199298049Y-58656033D01*
X199189068Y-58585994D01*
X199064773Y-58549500D01*
X199064772Y-58549500D01*
X198935228Y-58549500D01*
X198935227Y-58549500D01*
X198810931Y-58585994D01*
X198701950Y-58656033D01*
X198617118Y-58753935D01*
X198563302Y-58871773D01*
X198544867Y-59000000D01*
X194455133Y-59000000D01*
X194436697Y-58871774D01*
X194382882Y-58753937D01*
X194382881Y-58753936D01*
X194382881Y-58753935D01*
X194298049Y-58656033D01*
X194189068Y-58585994D01*
X194064773Y-58549500D01*
X194064772Y-58549500D01*
X193935228Y-58549500D01*
X193935227Y-58549500D01*
X193810931Y-58585994D01*
X193701950Y-58656033D01*
X193617118Y-58753935D01*
X193563302Y-58871773D01*
X193544867Y-59000000D01*
X193563302Y-59128226D01*
X193617118Y-59246064D01*
X193675988Y-59314004D01*
X193701951Y-59343967D01*
X193719455Y-59355216D01*
X193810931Y-59414005D01*
X193935227Y-59450500D01*
X193935228Y-59450500D01*
X194064773Y-59450500D01*
X194140566Y-59428246D01*
X194210436Y-59428246D01*
X194269214Y-59466021D01*
X194298238Y-59529577D01*
X194299500Y-59547223D01*
X194299500Y-61252776D01*
X194279815Y-61319815D01*
X194227011Y-61365570D01*
X194157853Y-61375514D01*
X194140567Y-61371754D01*
X194064772Y-61349500D01*
X193935228Y-61349500D01*
X193935227Y-61349500D01*
X193810931Y-61385994D01*
X193701950Y-61456033D01*
X193617118Y-61553935D01*
X193563302Y-61671773D01*
X193544867Y-61800000D01*
X193563302Y-61928226D01*
X193607036Y-62023987D01*
X193616980Y-62093145D01*
X193587955Y-62156701D01*
X193529178Y-62194476D01*
X193494242Y-62199499D01*
X178006094Y-62199499D01*
X177993940Y-62198902D01*
X177943082Y-62193892D01*
X177875689Y-62187255D01*
X177851849Y-62182513D01*
X177743998Y-62149797D01*
X177721541Y-62140495D01*
X177632956Y-62093145D01*
X177622150Y-62087369D01*
X177601939Y-62073864D01*
X177514820Y-62002367D01*
X177497632Y-61985179D01*
X177426135Y-61898060D01*
X177412630Y-61877849D01*
X177359502Y-61778453D01*
X177350203Y-61756004D01*
X177317484Y-61648144D01*
X177312745Y-61624316D01*
X177301098Y-61506060D01*
X177300501Y-61493906D01*
X177300501Y-61427743D01*
X177300500Y-61427737D01*
X177300500Y-55200000D01*
X181020001Y-55200000D01*
X181020001Y-55220194D01*
X181020531Y-55228289D01*
X181026421Y-55273040D01*
X181076351Y-55380113D01*
X181159886Y-55463648D01*
X181266957Y-55513576D01*
X181290000Y-55516609D01*
X181290000Y-55200000D01*
X181020001Y-55200000D01*
X177300500Y-55200000D01*
X177300500Y-54800000D01*
X181020000Y-54800000D01*
X181290000Y-54800000D01*
X181290000Y-54521361D01*
X181309685Y-54454322D01*
X181320000Y-54441521D01*
X181320000Y-54200000D01*
X181040000Y-54200000D01*
X181040000Y-54205786D01*
X181040529Y-54213860D01*
X181046518Y-54259356D01*
X181097192Y-54368025D01*
X181125021Y-54395854D01*
X181158506Y-54457177D01*
X181153522Y-54526869D01*
X181125022Y-54571216D01*
X181076350Y-54619888D01*
X181026422Y-54726957D01*
X181020529Y-54771724D01*
X181020000Y-54779798D01*
X181020000Y-54800000D01*
X177300500Y-54800000D01*
X177300500Y-53800000D01*
X181040000Y-53800000D01*
X181319999Y-53800000D01*
X181320000Y-53492653D01*
X181319999Y-53492653D01*
X181290643Y-53496518D01*
X181181974Y-53547192D01*
X181097192Y-53631974D01*
X181046518Y-53740643D01*
X181040529Y-53786139D01*
X181040000Y-53794213D01*
X181040000Y-53800000D01*
X177300500Y-53800000D01*
X177300500Y-49200000D01*
X181040000Y-49200000D01*
X181040000Y-49205786D01*
X181040529Y-49213860D01*
X181046518Y-49259356D01*
X181097192Y-49368025D01*
X181181974Y-49452807D01*
X181290642Y-49503480D01*
X181319999Y-49507344D01*
X181320000Y-49507344D01*
X181320000Y-49200000D01*
X181040000Y-49200000D01*
X177300500Y-49200000D01*
X177300500Y-48800000D01*
X181040000Y-48800000D01*
X181319999Y-48800000D01*
X181320000Y-48492653D01*
X181319999Y-48492653D01*
X181290643Y-48496518D01*
X181181974Y-48547192D01*
X181097192Y-48631974D01*
X181046518Y-48740643D01*
X181040529Y-48786139D01*
X181040000Y-48794213D01*
X181040000Y-48800000D01*
X177300500Y-48800000D01*
X177300500Y-48506091D01*
X177301097Y-48493937D01*
X177312744Y-48375680D01*
X177317483Y-48351856D01*
X177350203Y-48243990D01*
X177359499Y-48221549D01*
X177412632Y-48122144D01*
X177426133Y-48101940D01*
X177427804Y-48099904D01*
X177497635Y-48014814D01*
X177514814Y-47997635D01*
X177601942Y-47926131D01*
X177622144Y-47912632D01*
X177721549Y-47859499D01*
X177743990Y-47850203D01*
X177851856Y-47817483D01*
X177875682Y-47812744D01*
X177975730Y-47802890D01*
X177993940Y-47801097D01*
X178006093Y-47800500D01*
X178047595Y-47800500D01*
X182065200Y-47800500D01*
X182132239Y-47820185D01*
G37*
%TD.AperFunction*%
%TA.AperFunction,Conductor*%
G36*
X192897122Y-47820185D02*
G01*
X192942877Y-47872989D01*
X192952821Y-47942147D01*
X192923796Y-48005703D01*
X192917764Y-48012181D01*
X192583433Y-48346511D01*
X192522110Y-48379996D01*
X192452418Y-48375012D01*
X192396485Y-48333140D01*
X192386320Y-48317144D01*
X192344100Y-48237914D01*
X192299600Y-48186558D01*
X192299580Y-48186536D01*
X192298345Y-48185111D01*
X192280754Y-48167157D01*
X192200937Y-48122510D01*
X192200936Y-48122509D01*
X192200935Y-48122509D01*
X192133901Y-48102826D01*
X192133898Y-48102825D01*
X192076000Y-48094500D01*
X189224000Y-48094500D01*
X189220703Y-48094854D01*
X189220693Y-48094855D01*
X189183627Y-48098840D01*
X189183608Y-48098842D01*
X189180316Y-48099197D01*
X189177069Y-48099903D01*
X189177065Y-48099904D01*
X189128805Y-48110403D01*
X189127268Y-48110768D01*
X189118649Y-48112878D01*
X189037914Y-48155899D01*
X188986558Y-48200399D01*
X188986518Y-48200435D01*
X188985111Y-48201655D01*
X188983769Y-48202970D01*
X188967156Y-48219247D01*
X188922509Y-48299064D01*
X188903579Y-48363534D01*
X188902825Y-48366102D01*
X188894500Y-48424000D01*
X188894500Y-49123364D01*
X188895055Y-49127484D01*
X188895056Y-49127493D01*
X188901279Y-49173656D01*
X188901280Y-49173664D01*
X188901835Y-49177776D01*
X188902935Y-49181782D01*
X188918793Y-49239539D01*
X188918802Y-49239571D01*
X188919222Y-49241098D01*
X188919728Y-49242623D01*
X188925999Y-49261527D01*
X188977423Y-49337152D01*
X188977424Y-49337153D01*
X188977425Y-49337154D01*
X189028584Y-49384741D01*
X189041435Y-49393655D01*
X189076639Y-49418075D01*
X189076641Y-49418076D01*
X189076644Y-49418078D01*
X189083182Y-49421347D01*
X189121443Y-49451055D01*
X189185083Y-49524500D01*
X189201951Y-49543967D01*
X189230640Y-49562404D01*
X189310931Y-49614005D01*
X189435227Y-49650500D01*
X189435228Y-49650500D01*
X189512216Y-49650500D01*
X189567670Y-49663591D01*
X189981916Y-49870714D01*
X190026603Y-49886912D01*
X190082057Y-49900003D01*
X190129272Y-49905500D01*
X190132869Y-49905500D01*
X190965957Y-49905500D01*
X191032996Y-49925185D01*
X191078751Y-49977989D01*
X191088695Y-50047147D01*
X191069060Y-50098390D01*
X191054762Y-50119789D01*
X191001150Y-50164594D01*
X190951659Y-50174899D01*
X190125451Y-50174899D01*
X190042779Y-50191343D01*
X190042507Y-50189977D01*
X190012161Y-50199479D01*
X190009948Y-50199499D01*
X189013844Y-50199499D01*
X188946805Y-50179814D01*
X188915389Y-50143848D01*
X188818316Y-50046775D01*
X188709487Y-49996028D01*
X188663921Y-49990029D01*
X188663917Y-49990028D01*
X188659901Y-49989500D01*
X188655847Y-49989500D01*
X188304159Y-49989500D01*
X188304143Y-49989500D01*
X188300100Y-49989501D01*
X188296084Y-49990029D01*
X188296078Y-49990030D01*
X188250511Y-49996028D01*
X188141683Y-50046775D01*
X188087679Y-50100779D01*
X188026355Y-50134263D01*
X187956664Y-50129277D01*
X187912318Y-50100777D01*
X187858316Y-50046775D01*
X187749487Y-49996028D01*
X187703921Y-49990029D01*
X187703917Y-49990028D01*
X187699901Y-49989500D01*
X187695847Y-49989500D01*
X187344159Y-49989500D01*
X187344143Y-49989500D01*
X187340100Y-49989501D01*
X187336084Y-49990029D01*
X187336078Y-49990030D01*
X187290511Y-49996028D01*
X187181682Y-50046776D01*
X187096775Y-50131683D01*
X187046028Y-50240512D01*
X187043139Y-50262461D01*
X187039500Y-50290099D01*
X187039500Y-50294151D01*
X187039500Y-50294152D01*
X187039500Y-50705840D01*
X187039500Y-50705855D01*
X187039501Y-50709900D01*
X187040029Y-50713916D01*
X187040030Y-50713921D01*
X187046028Y-50759489D01*
X187056478Y-50781899D01*
X187066970Y-50850976D01*
X187065624Y-50855630D01*
X187044867Y-51000000D01*
X187059758Y-51103578D01*
X187049814Y-51172737D01*
X187024701Y-51208906D01*
X186885236Y-51348370D01*
X186832492Y-51379664D01*
X186810931Y-51385995D01*
X186701951Y-51456032D01*
X186617118Y-51553935D01*
X186563302Y-51671773D01*
X186544867Y-51800000D01*
X186563302Y-51928226D01*
X186617118Y-52046064D01*
X186691274Y-52131645D01*
X186701951Y-52143967D01*
X186730640Y-52162404D01*
X186810931Y-52214005D01*
X186935227Y-52250500D01*
X186939138Y-52250500D01*
X187006177Y-52270185D01*
X187026819Y-52286819D01*
X187040000Y-52300000D01*
X187596000Y-52300000D01*
X187663039Y-52319685D01*
X187708794Y-52372489D01*
X187720000Y-52424000D01*
X187720000Y-53007344D01*
X187749357Y-53003480D01*
X187858022Y-52952808D01*
X187911964Y-52898867D01*
X187973287Y-52865382D01*
X188042979Y-52870366D01*
X188087325Y-52898865D01*
X188124778Y-52936318D01*
X188141685Y-52953225D01*
X188174394Y-52968477D01*
X188250513Y-53003972D01*
X188300099Y-53010500D01*
X188301024Y-53010499D01*
X188365948Y-53034276D01*
X188379911Y-53046303D01*
X188611233Y-53277625D01*
X188644718Y-53338948D01*
X188639734Y-53408640D01*
X188597862Y-53464573D01*
X188532398Y-53488990D01*
X188464125Y-53474138D01*
X188461551Y-53472692D01*
X188255863Y-53353935D01*
X188202216Y-53322961D01*
X188152907Y-53302537D01*
X188152906Y-53302536D01*
X188073313Y-53297320D01*
X187997780Y-53322962D01*
X187618122Y-53542164D01*
X187550222Y-53558638D01*
X187484195Y-53535786D01*
X187443327Y-53486290D01*
X187382881Y-53353935D01*
X187298050Y-53256034D01*
X187298049Y-53256033D01*
X187271886Y-53239219D01*
X187226133Y-53186415D01*
X187216190Y-53117256D01*
X187245216Y-53053701D01*
X187303995Y-53015927D01*
X187310815Y-53015398D01*
X187320000Y-53007344D01*
X187320000Y-52700000D01*
X187040000Y-52700000D01*
X187040000Y-52705786D01*
X187040529Y-52713860D01*
X187046518Y-52759356D01*
X187097192Y-52868025D01*
X187166986Y-52937819D01*
X187200471Y-52999142D01*
X187195487Y-53068834D01*
X187153615Y-53124767D01*
X187088151Y-53149184D01*
X187079305Y-53149500D01*
X186935227Y-53149500D01*
X186810932Y-53185994D01*
X186717039Y-53246336D01*
X186650000Y-53266020D01*
X186582961Y-53246336D01*
X186489067Y-53185994D01*
X186364773Y-53149500D01*
X186364772Y-53149500D01*
X186235228Y-53149500D01*
X186235227Y-53149500D01*
X186110931Y-53185994D01*
X186001950Y-53256033D01*
X185917118Y-53353935D01*
X185863302Y-53471773D01*
X185858460Y-53505454D01*
X185829434Y-53569010D01*
X185770656Y-53606783D01*
X185700786Y-53606783D01*
X185673721Y-53595192D01*
X185407330Y-53441387D01*
X185202216Y-53322961D01*
X185152907Y-53302537D01*
X185152906Y-53302536D01*
X185073313Y-53297320D01*
X184997780Y-53322962D01*
X184686501Y-53502685D01*
X184618601Y-53519159D01*
X184552574Y-53496307D01*
X184509383Y-53441387D01*
X184500500Y-53395299D01*
X184500500Y-49369245D01*
X184503243Y-49352424D01*
X184502772Y-49342237D01*
X184502773Y-49342235D01*
X184500632Y-49295919D01*
X184500500Y-49290194D01*
X184500500Y-49271177D01*
X184498817Y-49256680D01*
X184498503Y-49249878D01*
X184497585Y-49230008D01*
X184494786Y-49223670D01*
X184486332Y-49196367D01*
X184486204Y-49195682D01*
X184485061Y-49189567D01*
X184471002Y-49166860D01*
X184462995Y-49151670D01*
X184452206Y-49127235D01*
X184447309Y-49122339D01*
X184429563Y-49099933D01*
X184425919Y-49094048D01*
X184404602Y-49077950D01*
X184391648Y-49066677D01*
X184324971Y-49000000D01*
X185544867Y-49000000D01*
X185563302Y-49128226D01*
X185617118Y-49246064D01*
X185700450Y-49342235D01*
X185701951Y-49343967D01*
X185728916Y-49361296D01*
X185810931Y-49414005D01*
X185935227Y-49450500D01*
X185935228Y-49450500D01*
X186064773Y-49450500D01*
X186189068Y-49414005D01*
X186227803Y-49389111D01*
X186298049Y-49343967D01*
X186382882Y-49246063D01*
X186436697Y-49128226D01*
X186455133Y-49000000D01*
X187544867Y-49000000D01*
X187563302Y-49128226D01*
X187617118Y-49246064D01*
X187700450Y-49342235D01*
X187701951Y-49343967D01*
X187728916Y-49361296D01*
X187810931Y-49414005D01*
X187935227Y-49450500D01*
X187935228Y-49450500D01*
X188064773Y-49450500D01*
X188189068Y-49414005D01*
X188227803Y-49389111D01*
X188298049Y-49343967D01*
X188382882Y-49246063D01*
X188436697Y-49128226D01*
X188455133Y-49000000D01*
X188436697Y-48871774D01*
X188430154Y-48857448D01*
X188382881Y-48753935D01*
X188298049Y-48656033D01*
X188189068Y-48585994D01*
X188064773Y-48549500D01*
X188064772Y-48549500D01*
X187935228Y-48549500D01*
X187935227Y-48549500D01*
X187810931Y-48585994D01*
X187701950Y-48656033D01*
X187617118Y-48753935D01*
X187563302Y-48871773D01*
X187544867Y-49000000D01*
X186455133Y-49000000D01*
X186436697Y-48871774D01*
X186430154Y-48857448D01*
X186382881Y-48753935D01*
X186298049Y-48656033D01*
X186189068Y-48585994D01*
X186064773Y-48549500D01*
X186064772Y-48549500D01*
X185935228Y-48549500D01*
X185935227Y-48549500D01*
X185810931Y-48585994D01*
X185701950Y-48656033D01*
X185617118Y-48753935D01*
X185563302Y-48871773D01*
X185544867Y-49000000D01*
X184324971Y-49000000D01*
X184089381Y-48764410D01*
X184055896Y-48703087D01*
X184054324Y-48694375D01*
X184048811Y-48656033D01*
X184038742Y-48585994D01*
X184036697Y-48571773D01*
X183982881Y-48453935D01*
X183898049Y-48356033D01*
X183789068Y-48285994D01*
X183664773Y-48249500D01*
X183664772Y-48249500D01*
X183535228Y-48249500D01*
X183535227Y-48249500D01*
X183410931Y-48285994D01*
X183301950Y-48356033D01*
X183217118Y-48453935D01*
X183183744Y-48527013D01*
X183137988Y-48579817D01*
X183070950Y-48599500D01*
X183051427Y-48599500D01*
X182984388Y-48579815D01*
X182938633Y-48527011D01*
X182928689Y-48457853D01*
X182936034Y-48432835D01*
X182937304Y-48424003D01*
X182955133Y-48300000D01*
X182936697Y-48171774D01*
X182934588Y-48167157D01*
X182882881Y-48053935D01*
X182841087Y-48005702D01*
X182812062Y-47942147D01*
X182822006Y-47872988D01*
X182867761Y-47820184D01*
X182934800Y-47800500D01*
X192830083Y-47800500D01*
X192897122Y-47820185D01*
G37*
%TD.AperFunction*%
%TA.AperFunction,Conductor*%
G36*
X183296691Y-52268907D02*
G01*
X183332655Y-52318407D01*
X183337500Y-52349000D01*
X183337500Y-52949997D01*
X183337501Y-52949999D01*
X183683217Y-52949999D01*
X183751247Y-52940088D01*
X183757016Y-52937268D01*
X183817598Y-52928695D01*
X183871649Y-52957368D01*
X183898523Y-53012335D01*
X183899500Y-53026207D01*
X183899500Y-53899917D01*
X183880593Y-53958108D01*
X183850001Y-53985653D01*
X183701588Y-54071341D01*
X183701576Y-54071348D01*
X183698784Y-54072961D01*
X183696218Y-54074929D01*
X183696206Y-54074938D01*
X183656448Y-54105446D01*
X183612133Y-54171768D01*
X183605205Y-54206599D01*
X183596572Y-54250000D01*
X183596572Y-55750000D01*
X183596994Y-55753211D01*
X183596995Y-55753215D01*
X183603536Y-55802907D01*
X183638813Y-55874444D01*
X183638814Y-55874445D01*
X183638815Y-55874446D01*
X183698784Y-55927039D01*
X183864890Y-56022943D01*
X183900000Y-56061938D01*
X183900000Y-56200000D01*
X184046447Y-56346447D01*
X184048728Y-56348727D01*
X184048728Y-56348728D01*
X186548969Y-58848969D01*
X186557507Y-58858706D01*
X186625078Y-58946766D01*
X186638000Y-58969147D01*
X186677975Y-59065655D01*
X186684664Y-59090620D01*
X186699152Y-59200674D01*
X186699999Y-59213595D01*
X186699999Y-60793511D01*
X186699152Y-60806432D01*
X186684664Y-60916486D01*
X186677975Y-60941451D01*
X186638001Y-61037957D01*
X186625079Y-61060339D01*
X186561487Y-61143213D01*
X186543213Y-61161487D01*
X186460339Y-61225079D01*
X186437957Y-61238001D01*
X186341451Y-61277975D01*
X186316487Y-61284664D01*
X186206434Y-61299153D01*
X186193512Y-61300000D01*
X184706488Y-61300000D01*
X184693566Y-61299153D01*
X184583512Y-61284664D01*
X184558548Y-61277975D01*
X184462042Y-61238001D01*
X184439660Y-61225079D01*
X184356783Y-61161484D01*
X184338515Y-61143216D01*
X184274918Y-61060336D01*
X184262000Y-61037960D01*
X184222023Y-60941447D01*
X184215336Y-60916489D01*
X184200847Y-60806432D01*
X184200000Y-60793511D01*
X184200000Y-59799999D01*
X184500000Y-59799999D01*
X184500001Y-59800000D01*
X185095855Y-59800000D01*
X185076375Y-59833740D01*
X185046190Y-59965992D01*
X185056327Y-60101265D01*
X185095078Y-60200000D01*
X184500002Y-60200000D01*
X184500001Y-60200001D01*
X184500001Y-60436080D01*
X184500424Y-60442537D01*
X184515443Y-60556630D01*
X184575901Y-60702590D01*
X184672074Y-60827925D01*
X184797409Y-60924098D01*
X184943369Y-60984556D01*
X185057463Y-60999576D01*
X185063917Y-60999999D01*
X185299998Y-60999999D01*
X185300000Y-60999997D01*
X185300000Y-60408279D01*
X185302547Y-60410016D01*
X185432173Y-60450000D01*
X185533724Y-60450000D01*
X185634138Y-60434865D01*
X185700000Y-60403147D01*
X185700000Y-60999998D01*
X185700001Y-60999999D01*
X185936080Y-60999999D01*
X185942537Y-60999575D01*
X186056630Y-60984556D01*
X186202590Y-60924098D01*
X186327925Y-60827925D01*
X186424098Y-60702590D01*
X186484556Y-60556630D01*
X186499576Y-60442536D01*
X186500000Y-60436082D01*
X186500000Y-60200001D01*
X186499999Y-60200000D01*
X185904145Y-60200000D01*
X185923625Y-60166260D01*
X185953810Y-60034008D01*
X185943673Y-59898735D01*
X185904922Y-59800000D01*
X186499998Y-59800000D01*
X186499999Y-59799999D01*
X186499999Y-59563919D01*
X186499575Y-59557462D01*
X186484556Y-59443369D01*
X186424098Y-59297409D01*
X186327925Y-59172074D01*
X186202590Y-59075901D01*
X186056630Y-59015443D01*
X185942536Y-59000423D01*
X185936082Y-59000000D01*
X185700000Y-59000000D01*
X185700000Y-59591720D01*
X185697453Y-59589984D01*
X185567827Y-59550000D01*
X185466276Y-59550000D01*
X185365862Y-59565135D01*
X185300000Y-59596852D01*
X185300000Y-59000000D01*
X185063920Y-59000000D01*
X185057462Y-59000424D01*
X184943369Y-59015443D01*
X184797409Y-59075901D01*
X184672074Y-59172074D01*
X184575901Y-59297409D01*
X184515443Y-59443369D01*
X184500423Y-59557463D01*
X184500000Y-59563917D01*
X184500000Y-59799999D01*
X184200000Y-59799999D01*
X184200000Y-58910347D01*
X184200000Y-58907107D01*
X184200000Y-58700000D01*
X183151030Y-57651030D01*
X183142492Y-57641293D01*
X183074921Y-57553233D01*
X183061999Y-57530852D01*
X183022023Y-57434340D01*
X183015336Y-57409382D01*
X183000847Y-57299325D01*
X183000000Y-57286404D01*
X183000000Y-54699999D01*
X183000000Y-54699998D01*
X183000000Y-54300000D01*
X182934527Y-54300000D01*
X182953480Y-54259355D01*
X182959576Y-54213053D01*
X182960000Y-54206599D01*
X182960000Y-54200000D01*
X182379000Y-54200000D01*
X182323124Y-54181845D01*
X182316656Y-54175377D01*
X182284845Y-54131593D01*
X182280000Y-54101000D01*
X182280000Y-53492654D01*
X182680000Y-53492654D01*
X182680000Y-53799999D01*
X182680001Y-53800000D01*
X182959999Y-53800000D01*
X182960000Y-53799998D01*
X182960000Y-53793400D01*
X182959576Y-53786946D01*
X182953480Y-53740642D01*
X182902809Y-53631978D01*
X182818022Y-53547191D01*
X182709356Y-53496518D01*
X182680000Y-53492654D01*
X182280000Y-53492654D01*
X182264067Y-53478682D01*
X182254583Y-53476924D01*
X182212470Y-53432538D01*
X182204048Y-53374439D01*
X182217124Y-53291876D01*
X182226695Y-53262423D01*
X182269274Y-53178858D01*
X182287476Y-53153802D01*
X182353802Y-53087476D01*
X182378858Y-53069274D01*
X182462423Y-53026695D01*
X182491876Y-53017124D01*
X182582792Y-53002725D01*
X182600001Y-53000000D01*
X183000000Y-53000000D01*
X183000000Y-52600000D01*
X183019577Y-52476393D01*
X183076393Y-52364886D01*
X183164886Y-52276393D01*
X183216685Y-52250000D01*
X183238500Y-52250000D01*
X183296691Y-52268907D01*
G37*
%TD.AperFunction*%
%TA.AperFunction,Conductor*%
G36*
X199043039Y-48319685D02*
G01*
X199088794Y-48372489D01*
X199100000Y-48424000D01*
X199100000Y-49876000D01*
X199080315Y-49943039D01*
X199027511Y-49988794D01*
X198976000Y-50000000D01*
X197745495Y-50000000D01*
X197728703Y-49996278D01*
X197728409Y-49998519D01*
X197663921Y-49990029D01*
X197663917Y-49990028D01*
X197659901Y-49989500D01*
X197655847Y-49989500D01*
X197304159Y-49989500D01*
X197304143Y-49989500D01*
X197300100Y-49989501D01*
X197296084Y-49990029D01*
X197296078Y-49990030D01*
X197231589Y-49998519D01*
X197231294Y-49996278D01*
X197214504Y-50000000D01*
X196785495Y-50000000D01*
X196768703Y-49996278D01*
X196768409Y-49998519D01*
X196703921Y-49990029D01*
X196703917Y-49990028D01*
X196699901Y-49989500D01*
X196695847Y-49989500D01*
X196344159Y-49989500D01*
X196344143Y-49989500D01*
X196340100Y-49989501D01*
X196336084Y-49990029D01*
X196336078Y-49990030D01*
X196271589Y-49998519D01*
X196271294Y-49996278D01*
X196254504Y-50000000D01*
X193524000Y-50000000D01*
X193456961Y-49980315D01*
X193411206Y-49927511D01*
X193400000Y-49876000D01*
X193400000Y-49450500D01*
X193400000Y-49024496D01*
X193419683Y-48957461D01*
X193472487Y-48911706D01*
X193523999Y-48900500D01*
X194443827Y-48900500D01*
X194723114Y-48900500D01*
X194790153Y-48920185D01*
X194835908Y-48972989D01*
X194845852Y-49006853D01*
X194863302Y-49128226D01*
X194917118Y-49246064D01*
X195001950Y-49343966D01*
X195001951Y-49343967D01*
X195030640Y-49362404D01*
X195110931Y-49414005D01*
X195235227Y-49450500D01*
X195235228Y-49450500D01*
X195364773Y-49450500D01*
X195489068Y-49414005D01*
X195517758Y-49395566D01*
X195598049Y-49343967D01*
X195682882Y-49246063D01*
X195736697Y-49128226D01*
X195736696Y-49128226D01*
X195737206Y-49127112D01*
X195782961Y-49074308D01*
X195850001Y-49054624D01*
X195917040Y-49074309D01*
X195962794Y-49127112D01*
X196017118Y-49246064D01*
X196101950Y-49343966D01*
X196101951Y-49343967D01*
X196130640Y-49362404D01*
X196210931Y-49414005D01*
X196335227Y-49450500D01*
X196335228Y-49450500D01*
X196464773Y-49450500D01*
X196589068Y-49414005D01*
X196617758Y-49395566D01*
X196698049Y-49343967D01*
X196782882Y-49246063D01*
X196836697Y-49128226D01*
X196855133Y-49000000D01*
X196836697Y-48871774D01*
X196782882Y-48753937D01*
X196782881Y-48753936D01*
X196782881Y-48753935D01*
X196698049Y-48656033D01*
X196589068Y-48585994D01*
X196464773Y-48549500D01*
X196464772Y-48549500D01*
X196425833Y-48549500D01*
X196358794Y-48529815D01*
X196338152Y-48513181D01*
X196336652Y-48511681D01*
X196303167Y-48450358D01*
X196308151Y-48380666D01*
X196350023Y-48324733D01*
X196415487Y-48300316D01*
X196424333Y-48300000D01*
X198976000Y-48300000D01*
X199043039Y-48319685D01*
G37*
%TD.AperFunction*%
%TA.AperFunction,Conductor*%
G36*
X182542671Y-48614677D02*
G01*
X182572121Y-48624245D01*
X182641753Y-48659725D01*
X182666811Y-48677930D01*
X182722069Y-48733188D01*
X182740275Y-48758247D01*
X182775752Y-48827874D01*
X182785323Y-48857332D01*
X182798781Y-48942303D01*
X182800000Y-48957790D01*
X182800000Y-49950500D01*
X182781093Y-50008691D01*
X182731593Y-50044655D01*
X182701000Y-50049500D01*
X182591740Y-50049500D01*
X182540640Y-50056945D01*
X182523606Y-50059427D01*
X182418518Y-50110801D01*
X182335801Y-50193518D01*
X182284427Y-50298606D01*
X182284427Y-50298607D01*
X182274500Y-50366740D01*
X182274500Y-50733260D01*
X182284427Y-50801393D01*
X182335802Y-50906483D01*
X182418517Y-50989198D01*
X182523607Y-51040573D01*
X182591740Y-51050500D01*
X182591743Y-51050500D01*
X182701000Y-51050500D01*
X182759191Y-51069407D01*
X182795155Y-51118907D01*
X182800000Y-51149500D01*
X182800000Y-51850500D01*
X182781093Y-51908691D01*
X182731593Y-51944655D01*
X182701000Y-51949500D01*
X182591740Y-51949500D01*
X182540640Y-51956945D01*
X182523606Y-51959427D01*
X182418518Y-52010801D01*
X182335801Y-52093518D01*
X182284427Y-52198606D01*
X182284427Y-52198607D01*
X182274500Y-52266740D01*
X182274500Y-52633260D01*
X182282290Y-52686729D01*
X182271971Y-52747034D01*
X182228174Y-52789760D01*
X182184325Y-52800000D01*
X180706488Y-52800000D01*
X180693566Y-52799153D01*
X180583512Y-52784664D01*
X180558548Y-52777975D01*
X180462042Y-52738001D01*
X180439660Y-52725079D01*
X180389678Y-52686726D01*
X180356783Y-52661484D01*
X180338515Y-52643216D01*
X180274918Y-52560336D01*
X180262000Y-52537960D01*
X180222023Y-52441447D01*
X180215336Y-52416489D01*
X180200847Y-52306432D01*
X180200000Y-52293511D01*
X180200000Y-52097960D01*
X180218907Y-52039769D01*
X180268407Y-52003805D01*
X180313275Y-51999995D01*
X180316740Y-52000500D01*
X180316743Y-52000500D01*
X181408257Y-52000500D01*
X181408260Y-52000500D01*
X181476393Y-51990573D01*
X181581483Y-51939198D01*
X181664198Y-51856483D01*
X181715573Y-51751393D01*
X181725500Y-51683260D01*
X181725500Y-51316740D01*
X181715573Y-51248607D01*
X181664198Y-51143517D01*
X181581483Y-51060802D01*
X181476393Y-51009427D01*
X181408260Y-50999500D01*
X180316740Y-50999500D01*
X180316734Y-50999500D01*
X180313267Y-51000005D01*
X180310317Y-50999500D01*
X180309566Y-50999500D01*
X180309566Y-50999371D01*
X180252959Y-50989682D01*
X180210236Y-50945882D01*
X180200000Y-50902042D01*
X180200000Y-50706487D01*
X180200847Y-50693567D01*
X180202511Y-50680923D01*
X180215336Y-50583508D01*
X180222022Y-50558554D01*
X180262001Y-50462035D01*
X180274916Y-50439666D01*
X180338518Y-50356779D01*
X180356779Y-50338518D01*
X180439666Y-50274916D01*
X180462035Y-50262001D01*
X180558554Y-50222022D01*
X180583508Y-50215336D01*
X180680923Y-50202511D01*
X180693567Y-50200847D01*
X180706488Y-50200000D01*
X181389652Y-50200000D01*
X181392893Y-50200000D01*
X181600000Y-50200000D01*
X182100000Y-49700000D01*
X182100000Y-48957789D01*
X182101219Y-48942304D01*
X182104310Y-48922780D01*
X182114677Y-48857328D01*
X182124245Y-48827879D01*
X182159726Y-48758242D01*
X182177927Y-48733191D01*
X182233191Y-48677927D01*
X182258242Y-48659726D01*
X182327879Y-48624245D01*
X182357326Y-48614677D01*
X182434518Y-48602452D01*
X182465482Y-48602452D01*
X182542671Y-48614677D01*
G37*
%TD.AperFunction*%
%TA.AperFunction,Conductor*%
G36*
X192143039Y-48319685D02*
G01*
X192188794Y-48372489D01*
X192200000Y-48424000D01*
X192200000Y-48774277D01*
X192199500Y-48776954D01*
X192199500Y-48805668D01*
X192196206Y-48834058D01*
X192194621Y-48840796D01*
X192198311Y-48867249D01*
X192199500Y-48884380D01*
X192199500Y-49009948D01*
X192189941Y-49042500D01*
X192191344Y-49042779D01*
X192174900Y-49125450D01*
X192174900Y-49576000D01*
X192155215Y-49643039D01*
X192102411Y-49688794D01*
X192050900Y-49700000D01*
X191949099Y-49700000D01*
X191882060Y-49680315D01*
X191836305Y-49627511D01*
X191825099Y-49576000D01*
X191825099Y-49125452D01*
X191813466Y-49066970D01*
X191769151Y-49000648D01*
X191702829Y-48956333D01*
X191644348Y-48944701D01*
X191644347Y-48944701D01*
X191355651Y-48944701D01*
X191355650Y-48944701D01*
X191297168Y-48956333D01*
X191230846Y-49000648D01*
X191186531Y-49066970D01*
X191174899Y-49125452D01*
X191174899Y-49576000D01*
X191155214Y-49643039D01*
X191102410Y-49688794D01*
X191050899Y-49700000D01*
X190129272Y-49700000D01*
X190073818Y-49686909D01*
X189168546Y-49234273D01*
X189117387Y-49186686D01*
X189100000Y-49123364D01*
X189100000Y-48424000D01*
X189119685Y-48356961D01*
X189172489Y-48311206D01*
X189224000Y-48300000D01*
X192076000Y-48300000D01*
X192143039Y-48319685D01*
G37*
%TD.AperFunction*%
%TA.AperFunction,Conductor*%
G36*
X194045081Y-53019685D02*
G01*
X194090836Y-53072489D01*
X194100780Y-53141647D01*
X194071755Y-53205203D01*
X194045084Y-53228312D01*
X194001951Y-53256033D01*
X194001949Y-53256034D01*
X194001949Y-53256035D01*
X193917118Y-53353935D01*
X193863302Y-53471773D01*
X193844867Y-53600000D01*
X193863302Y-53728226D01*
X193917118Y-53846064D01*
X193992474Y-53933030D01*
X194001951Y-53943967D01*
X194110928Y-54014002D01*
X194110929Y-54014003D01*
X194169709Y-54051774D01*
X194198737Y-54115329D01*
X194200000Y-54132982D01*
X194200000Y-55983142D01*
X194197618Y-56007326D01*
X194194103Y-56025000D01*
X194194103Y-56025001D01*
X194197117Y-56040152D01*
X194199500Y-56064344D01*
X194199500Y-56685656D01*
X194197117Y-56709847D01*
X194194103Y-56724999D01*
X194197117Y-56740151D01*
X194197118Y-56740163D01*
X194197614Y-56742654D01*
X194200000Y-56766861D01*
X194200000Y-57576000D01*
X194180315Y-57643039D01*
X194127511Y-57688794D01*
X194076000Y-57700000D01*
X193524000Y-57700000D01*
X193456961Y-57680315D01*
X193411206Y-57627511D01*
X193400000Y-57576000D01*
X193400000Y-56922901D01*
X193419685Y-56855862D01*
X193436311Y-56835228D01*
X193453224Y-56818316D01*
X193503972Y-56709487D01*
X193510500Y-56659901D01*
X193510499Y-56300100D01*
X193503972Y-56250513D01*
X193453224Y-56141684D01*
X193453223Y-56141683D01*
X193453223Y-56141682D01*
X193436319Y-56124778D01*
X193402834Y-56063455D01*
X193400000Y-56037097D01*
X193400000Y-55962901D01*
X193419685Y-55895862D01*
X193436311Y-55875228D01*
X193453224Y-55858316D01*
X193503972Y-55749487D01*
X193510500Y-55699901D01*
X193510499Y-55340100D01*
X193503972Y-55290513D01*
X193453224Y-55181684D01*
X193453223Y-55181683D01*
X193453223Y-55181682D01*
X193436319Y-55164778D01*
X193402834Y-55103455D01*
X193400000Y-55077097D01*
X193400000Y-53124000D01*
X193419685Y-53056961D01*
X193472489Y-53011206D01*
X193524000Y-53000000D01*
X193978042Y-53000000D01*
X194045081Y-53019685D01*
G37*
%TD.AperFunction*%
M02*
