%TF.GenerationSoftware,KiCad,Pcbnew,7.0.2*%
%TF.CreationDate,2024-01-22T16:16:29-06:00*%
%TF.ProjectId,imu-harvester,696d752d-6861-4727-9665-737465722e6b,rev?*%
%TF.SameCoordinates,Original*%
%TF.FileFunction,Drillmap*%
%TF.FilePolarity,Positive*%
%FSLAX45Y45*%
G04 Gerber Fmt 4.5, Leading zero omitted, Abs format (unit mm)*
G04 Created by KiCad (PCBNEW 7.0.2) date 2024-01-22 16:16:29*
%MOMM*%
%LPD*%
G01*
G04 APERTURE LIST*
%ADD10C,0.100000*%
%ADD11C,0.200000*%
G04 APERTURE END LIST*
D10*
X22400000Y-6250000D02*
X17800000Y-6250000D01*
X17800000Y-4750000D02*
X22400000Y-4750000D01*
X17800000Y-4750000D02*
G75*
G03*
X17700000Y-4850000I0J-100000D01*
G01*
X22500000Y-4850000D02*
G75*
G03*
X22400000Y-4750000I-100000J0D01*
G01*
X17700000Y-4850000D02*
X17700000Y-6150000D01*
X17700000Y-6150000D02*
G75*
G03*
X17800000Y-6250000I100000J0D01*
G01*
X22500000Y-6150000D02*
X22500000Y-4850000D01*
X22400000Y-6250000D02*
G75*
G03*
X22500000Y-6150000I0J100000D01*
G01*
D11*
X17942619Y-6567524D02*
X17942619Y-6367524D01*
X17942619Y-6367524D02*
X17990238Y-6367524D01*
X17990238Y-6367524D02*
X18018810Y-6377047D01*
X18018810Y-6377047D02*
X18037857Y-6396095D01*
X18037857Y-6396095D02*
X18047381Y-6415143D01*
X18047381Y-6415143D02*
X18056905Y-6453238D01*
X18056905Y-6453238D02*
X18056905Y-6481809D01*
X18056905Y-6481809D02*
X18047381Y-6519905D01*
X18047381Y-6519905D02*
X18037857Y-6538952D01*
X18037857Y-6538952D02*
X18018810Y-6558000D01*
X18018810Y-6558000D02*
X17990238Y-6567524D01*
X17990238Y-6567524D02*
X17942619Y-6567524D01*
X18142619Y-6567524D02*
X18142619Y-6434190D01*
X18142619Y-6472286D02*
X18152143Y-6453238D01*
X18152143Y-6453238D02*
X18161667Y-6443714D01*
X18161667Y-6443714D02*
X18180714Y-6434190D01*
X18180714Y-6434190D02*
X18199762Y-6434190D01*
X18266429Y-6567524D02*
X18266429Y-6434190D01*
X18266429Y-6367524D02*
X18256905Y-6377047D01*
X18256905Y-6377047D02*
X18266429Y-6386571D01*
X18266429Y-6386571D02*
X18275952Y-6377047D01*
X18275952Y-6377047D02*
X18266429Y-6367524D01*
X18266429Y-6367524D02*
X18266429Y-6386571D01*
X18390238Y-6567524D02*
X18371190Y-6558000D01*
X18371190Y-6558000D02*
X18361667Y-6538952D01*
X18361667Y-6538952D02*
X18361667Y-6367524D01*
X18495000Y-6567524D02*
X18475952Y-6558000D01*
X18475952Y-6558000D02*
X18466429Y-6538952D01*
X18466429Y-6538952D02*
X18466429Y-6367524D01*
X18723571Y-6567524D02*
X18723571Y-6367524D01*
X18723571Y-6367524D02*
X18790238Y-6510381D01*
X18790238Y-6510381D02*
X18856905Y-6367524D01*
X18856905Y-6367524D02*
X18856905Y-6567524D01*
X19037857Y-6567524D02*
X19037857Y-6462762D01*
X19037857Y-6462762D02*
X19028333Y-6443714D01*
X19028333Y-6443714D02*
X19009286Y-6434190D01*
X19009286Y-6434190D02*
X18971190Y-6434190D01*
X18971190Y-6434190D02*
X18952143Y-6443714D01*
X19037857Y-6558000D02*
X19018810Y-6567524D01*
X19018810Y-6567524D02*
X18971190Y-6567524D01*
X18971190Y-6567524D02*
X18952143Y-6558000D01*
X18952143Y-6558000D02*
X18942619Y-6538952D01*
X18942619Y-6538952D02*
X18942619Y-6519905D01*
X18942619Y-6519905D02*
X18952143Y-6500857D01*
X18952143Y-6500857D02*
X18971190Y-6491333D01*
X18971190Y-6491333D02*
X19018810Y-6491333D01*
X19018810Y-6491333D02*
X19037857Y-6481809D01*
X19133095Y-6434190D02*
X19133095Y-6634190D01*
X19133095Y-6443714D02*
X19152143Y-6434190D01*
X19152143Y-6434190D02*
X19190238Y-6434190D01*
X19190238Y-6434190D02*
X19209286Y-6443714D01*
X19209286Y-6443714D02*
X19218810Y-6453238D01*
X19218810Y-6453238D02*
X19228333Y-6472286D01*
X19228333Y-6472286D02*
X19228333Y-6529428D01*
X19228333Y-6529428D02*
X19218810Y-6548476D01*
X19218810Y-6548476D02*
X19209286Y-6558000D01*
X19209286Y-6558000D02*
X19190238Y-6567524D01*
X19190238Y-6567524D02*
X19152143Y-6567524D01*
X19152143Y-6567524D02*
X19133095Y-6558000D01*
X19314048Y-6548476D02*
X19323571Y-6558000D01*
X19323571Y-6558000D02*
X19314048Y-6567524D01*
X19314048Y-6567524D02*
X19304524Y-6558000D01*
X19304524Y-6558000D02*
X19314048Y-6548476D01*
X19314048Y-6548476D02*
X19314048Y-6567524D01*
X19314048Y-6443714D02*
X19323571Y-6453238D01*
X19323571Y-6453238D02*
X19314048Y-6462762D01*
X19314048Y-6462762D02*
X19304524Y-6453238D01*
X19304524Y-6453238D02*
X19314048Y-6443714D01*
X19314048Y-6443714D02*
X19314048Y-6462762D01*
M02*
