%TF.GenerationSoftware,KiCad,Pcbnew,7.0.2*%
%TF.CreationDate,2024-01-23T17:52:43-06:00*%
%TF.ProjectId,imu-harvester,696d752d-6861-4727-9665-737465722e6b,rev?*%
%TF.SameCoordinates,Original*%
%TF.FileFunction,Legend,Bot*%
%TF.FilePolarity,Positive*%
%FSLAX46Y46*%
G04 Gerber Fmt 4.6, Leading zero omitted, Abs format (unit mm)*
G04 Created by KiCad (PCBNEW 7.0.2) date 2024-01-23 17:52:43*
%MOMM*%
%LPD*%
G01*
G04 APERTURE LIST*
G04 Aperture macros list*
%AMRoundRect*
0 Rectangle with rounded corners*
0 $1 Rounding radius*
0 $2 $3 $4 $5 $6 $7 $8 $9 X,Y pos of 4 corners*
0 Add a 4 corners polygon primitive as box body*
4,1,4,$2,$3,$4,$5,$6,$7,$8,$9,$2,$3,0*
0 Add four circle primitives for the rounded corners*
1,1,$1+$1,$2,$3*
1,1,$1+$1,$4,$5*
1,1,$1+$1,$6,$7*
1,1,$1+$1,$8,$9*
0 Add four rect primitives between the rounded corners*
20,1,$1+$1,$2,$3,$4,$5,0*
20,1,$1+$1,$4,$5,$6,$7,0*
20,1,$1+$1,$6,$7,$8,$9,0*
20,1,$1+$1,$8,$9,$2,$3,0*%
%AMFreePoly0*
4,1,7,1.299000,0.750000,1.299000,-0.750000,0.000000,-1.500000,-1.299000,-0.750000,-1.299000,0.750000,0.000000,1.500000,1.299000,0.750000,1.299000,0.750000,$1*%
G04 Aperture macros list end*
%ADD10C,0.150000*%
%ADD11C,0.120000*%
%ADD12C,0.100000*%
%ADD13C,0.152400*%
%ADD14C,0.200000*%
%ADD15RoundRect,0.400000X-0.400000X-0.400000X0.400000X-0.400000X0.400000X0.400000X-0.400000X0.400000X0*%
%ADD16C,1.600000*%
%ADD17C,1.000000*%
%ADD18FreePoly0,180.000000*%
%ADD19R,0.150000X0.250000*%
%ADD20R,0.500000X0.250000*%
%ADD21RoundRect,0.135000X0.135000X0.185000X-0.135000X0.185000X-0.135000X-0.185000X0.135000X-0.185000X0*%
%ADD22RoundRect,0.140000X0.140000X0.170000X-0.140000X0.170000X-0.140000X-0.170000X0.140000X-0.170000X0*%
%ADD23RoundRect,0.140000X-0.140000X-0.170000X0.140000X-0.170000X0.140000X0.170000X-0.140000X0.170000X0*%
%ADD24RoundRect,0.150000X-0.512500X-0.150000X0.512500X-0.150000X0.512500X0.150000X-0.512500X0.150000X0*%
%ADD25RoundRect,0.250000X-0.787500X-0.925000X0.787500X-0.925000X0.787500X0.925000X-0.787500X0.925000X0*%
%ADD26R,0.249200X0.784800*%
%ADD27R,0.784800X0.249200*%
%ADD28R,2.550000X2.550000*%
%ADD29R,0.410000X0.280000*%
%ADD30R,0.280000X0.410000*%
%ADD31RoundRect,0.140000X-0.170000X0.140000X-0.170000X-0.140000X0.170000X-0.140000X0.170000X0.140000X0*%
G04 APERTURE END LIST*
D10*
X192404761Y-54877619D02*
X192071428Y-55877619D01*
X192071428Y-55877619D02*
X191738095Y-54877619D01*
X191404761Y-55877619D02*
X191404761Y-54877619D01*
X191404761Y-54877619D02*
X191166666Y-54877619D01*
X191166666Y-54877619D02*
X191023809Y-54925238D01*
X191023809Y-54925238D02*
X190928571Y-55020476D01*
X190928571Y-55020476D02*
X190880952Y-55115714D01*
X190880952Y-55115714D02*
X190833333Y-55306190D01*
X190833333Y-55306190D02*
X190833333Y-55449047D01*
X190833333Y-55449047D02*
X190880952Y-55639523D01*
X190880952Y-55639523D02*
X190928571Y-55734761D01*
X190928571Y-55734761D02*
X191023809Y-55830000D01*
X191023809Y-55830000D02*
X191166666Y-55877619D01*
X191166666Y-55877619D02*
X191404761Y-55877619D01*
X190404761Y-55877619D02*
X190404761Y-54877619D01*
X190404761Y-54877619D02*
X190166666Y-54877619D01*
X190166666Y-54877619D02*
X190023809Y-54925238D01*
X190023809Y-54925238D02*
X189928571Y-55020476D01*
X189928571Y-55020476D02*
X189880952Y-55115714D01*
X189880952Y-55115714D02*
X189833333Y-55306190D01*
X189833333Y-55306190D02*
X189833333Y-55449047D01*
X189833333Y-55449047D02*
X189880952Y-55639523D01*
X189880952Y-55639523D02*
X189928571Y-55734761D01*
X189928571Y-55734761D02*
X190023809Y-55830000D01*
X190023809Y-55830000D02*
X190166666Y-55877619D01*
X190166666Y-55877619D02*
X190404761Y-55877619D01*
X193238095Y-57425238D02*
X193333333Y-57377619D01*
X193333333Y-57377619D02*
X193476190Y-57377619D01*
X193476190Y-57377619D02*
X193619047Y-57425238D01*
X193619047Y-57425238D02*
X193714285Y-57520476D01*
X193714285Y-57520476D02*
X193761904Y-57615714D01*
X193761904Y-57615714D02*
X193809523Y-57806190D01*
X193809523Y-57806190D02*
X193809523Y-57949047D01*
X193809523Y-57949047D02*
X193761904Y-58139523D01*
X193761904Y-58139523D02*
X193714285Y-58234761D01*
X193714285Y-58234761D02*
X193619047Y-58330000D01*
X193619047Y-58330000D02*
X193476190Y-58377619D01*
X193476190Y-58377619D02*
X193380952Y-58377619D01*
X193380952Y-58377619D02*
X193238095Y-58330000D01*
X193238095Y-58330000D02*
X193190476Y-58282380D01*
X193190476Y-58282380D02*
X193190476Y-57949047D01*
X193190476Y-57949047D02*
X193380952Y-57949047D01*
X192761904Y-58377619D02*
X192761904Y-57377619D01*
X192761904Y-57377619D02*
X192190476Y-58377619D01*
X192190476Y-58377619D02*
X192190476Y-57377619D01*
X191714285Y-58377619D02*
X191714285Y-57377619D01*
X191714285Y-57377619D02*
X191476190Y-57377619D01*
X191476190Y-57377619D02*
X191333333Y-57425238D01*
X191333333Y-57425238D02*
X191238095Y-57520476D01*
X191238095Y-57520476D02*
X191190476Y-57615714D01*
X191190476Y-57615714D02*
X191142857Y-57806190D01*
X191142857Y-57806190D02*
X191142857Y-57949047D01*
X191142857Y-57949047D02*
X191190476Y-58139523D01*
X191190476Y-58139523D02*
X191238095Y-58234761D01*
X191238095Y-58234761D02*
X191333333Y-58330000D01*
X191333333Y-58330000D02*
X191476190Y-58377619D01*
X191476190Y-58377619D02*
X191714285Y-58377619D01*
X194287380Y-54489799D02*
X194049285Y-54489799D01*
X194144523Y-54727894D02*
X194049285Y-54489799D01*
X194049285Y-54489799D02*
X194144523Y-54251704D01*
X193858809Y-54632656D02*
X194049285Y-54489799D01*
X194049285Y-54489799D02*
X193858809Y-54346942D01*
X194287380Y-54489799D02*
X194049285Y-54489799D01*
X194144523Y-54727894D02*
X194049285Y-54489799D01*
X194049285Y-54489799D02*
X194144523Y-54251704D01*
X193858809Y-54632656D02*
X194049285Y-54489799D01*
X194049285Y-54489799D02*
X193858809Y-54346942D01*
D11*
X201000000Y-50800000D02*
G75*
G03*
X201000000Y-50800000I-700000J0D01*
G01*
D12*
X194825000Y-55000000D02*
X194825000Y-55000000D01*
X194825000Y-55100000D02*
X194825000Y-55100000D01*
X194825000Y-55100000D02*
G75*
G03*
X194825000Y-55000000I0J50000D01*
G01*
X194825000Y-55000000D02*
G75*
G03*
X194825000Y-55100000I0J-50000D01*
G01*
D11*
X197153641Y-55880000D02*
X196846359Y-55880000D01*
X197153641Y-55120000D02*
X196846359Y-55120000D01*
X200607836Y-57860000D02*
X200392164Y-57860000D01*
X200607836Y-57140000D02*
X200392164Y-57140000D01*
X197107836Y-50860000D02*
X196892164Y-50860000D01*
X197107836Y-50140000D02*
X196892164Y-50140000D01*
X197107836Y-54860000D02*
X196892164Y-54860000D01*
X197107836Y-54140000D02*
X196892164Y-54140000D01*
X200607836Y-52860000D02*
X200392164Y-52860000D01*
X200607836Y-52140000D02*
X200392164Y-52140000D01*
X212100000Y-57300000D02*
G75*
G03*
X212100000Y-57300000I-700000J0D01*
G01*
X187892164Y-50140000D02*
X188107836Y-50140000D01*
X187892164Y-50860000D02*
X188107836Y-50860000D01*
X182000000Y-49940000D02*
X181200000Y-49940000D01*
X182000000Y-49940000D02*
X182800000Y-49940000D01*
X182000000Y-53060000D02*
X180200000Y-53060000D01*
X182000000Y-53060000D02*
X182800000Y-53060000D01*
X197107836Y-51860000D02*
X196892164Y-51860000D01*
X197107836Y-51140000D02*
X196892164Y-51140000D01*
X194240000Y-58790000D02*
X201000000Y-58790000D01*
X194240000Y-62210000D02*
X194240000Y-58790000D01*
X201000000Y-62210000D02*
X194240000Y-62210000D01*
X210700000Y-57300000D02*
G75*
G03*
X210700000Y-57300000I-700000J0D01*
G01*
X202400000Y-50800000D02*
G75*
G03*
X202400000Y-50800000I-700000J0D01*
G01*
D13*
X190323000Y-53677000D02*
X190323000Y-52957341D01*
X191042659Y-53677000D02*
X190323000Y-53677000D01*
X194677000Y-53677000D02*
X193957341Y-53677000D01*
X194677000Y-52957341D02*
X194677000Y-53677000D01*
X190323000Y-50042659D02*
X190323000Y-49323000D01*
X190323000Y-49323000D02*
X191042659Y-49323000D01*
X193957341Y-49323000D02*
X194677000Y-49323000D01*
X194677000Y-49323000D02*
X194677000Y-50042659D01*
G36*
X195362801Y-52690501D02*
G01*
X195108801Y-52690501D01*
X195108801Y-52309501D01*
X195362801Y-52309501D01*
X195362801Y-52690501D01*
G37*
G36*
X189891199Y-50690499D02*
G01*
X189637199Y-50690499D01*
X189637199Y-50309499D01*
X189891199Y-50309499D01*
X189891199Y-50690499D01*
G37*
D11*
X207900000Y-57300000D02*
G75*
G03*
X207900000Y-57300000I-700000J0D01*
G01*
X188107836Y-52860000D02*
X187892164Y-52860000D01*
X188107836Y-52140000D02*
X187892164Y-52140000D01*
X182107836Y-49360000D02*
X181892164Y-49360000D01*
X182107836Y-48640000D02*
X181892164Y-48640000D01*
D14*
X201830340Y-54210000D02*
G75*
G03*
X201830340Y-54210000I-13340J0D01*
G01*
D11*
X182153641Y-55380000D02*
X181846359Y-55380000D01*
X182153641Y-54620000D02*
X181846359Y-54620000D01*
X197153641Y-56880000D02*
X196846359Y-56880000D01*
X197153641Y-56120000D02*
X196846359Y-56120000D01*
X187892164Y-51140000D02*
X188107836Y-51140000D01*
X187892164Y-51860000D02*
X188107836Y-51860000D01*
X193360000Y-55892164D02*
X193360000Y-56107836D01*
X192640000Y-55892164D02*
X192640000Y-56107836D01*
X182107836Y-54360000D02*
X181892164Y-54360000D01*
X182107836Y-53640000D02*
X181892164Y-53640000D01*
X209300000Y-57300000D02*
G75*
G03*
X209300000Y-57300000I-700000J0D01*
G01*
%LPC*%
D15*
X185500000Y-60000000D03*
D16*
X188000000Y-60000000D03*
X190500000Y-60000000D03*
D17*
X200300000Y-50800000D03*
D18*
X188100000Y-55000000D03*
X185100000Y-55000000D03*
D19*
X194825000Y-55675000D03*
X195175000Y-55675000D03*
D20*
X195000000Y-56325000D03*
D21*
X197510000Y-55500000D03*
X196490000Y-55500000D03*
D22*
X200980000Y-57500000D03*
X200020000Y-57500000D03*
X197480000Y-50500000D03*
X196520000Y-50500000D03*
X197480000Y-54500000D03*
X196520000Y-54500000D03*
X200980000Y-52500000D03*
X200020000Y-52500000D03*
D17*
X211400000Y-57300000D03*
D23*
X187520000Y-50500000D03*
X188480000Y-50500000D03*
D24*
X180862500Y-52450000D03*
X180862500Y-51500000D03*
X180862500Y-50550000D03*
X183137500Y-50550000D03*
X183137500Y-52450000D03*
D22*
X197480000Y-51500000D03*
X196520000Y-51500000D03*
D25*
X195537500Y-60500000D03*
X200462500Y-60500000D03*
D17*
X210000000Y-57300000D03*
D18*
X186600000Y-57500000D03*
D17*
X201700000Y-50800000D03*
D26*
X193500001Y-53462399D03*
X192999999Y-53462399D03*
X192500000Y-53462399D03*
X192000001Y-53462399D03*
X191499999Y-53462399D03*
D27*
X190537601Y-52500001D03*
X190537601Y-51999999D03*
X190537601Y-51500000D03*
X190537601Y-51000001D03*
X190537601Y-50499999D03*
D26*
X191499999Y-49537601D03*
X192000001Y-49537601D03*
X192500000Y-49537601D03*
X192999999Y-49537601D03*
X193500001Y-49537601D03*
D27*
X194462399Y-50499999D03*
X194462399Y-51000001D03*
X194462399Y-51500000D03*
X194462399Y-51999999D03*
X194462399Y-52500001D03*
D28*
X192500000Y-51500000D03*
D17*
X207200000Y-57300000D03*
D22*
X188480000Y-52500000D03*
X187520000Y-52500000D03*
X182480000Y-49000000D03*
X181520000Y-49000000D03*
D29*
X201315000Y-54250000D03*
X201315000Y-54750000D03*
X201315000Y-55250000D03*
X201315000Y-55750000D03*
D30*
X200750000Y-55815000D03*
X200250000Y-55815000D03*
D29*
X199685000Y-55750000D03*
X199685000Y-55250000D03*
X199685000Y-54750000D03*
X199685000Y-54250000D03*
D30*
X200250000Y-54185000D03*
X200750000Y-54185000D03*
D21*
X182510000Y-55000000D03*
X181490000Y-55000000D03*
X197510000Y-56500000D03*
X196490000Y-56500000D03*
D18*
X189600000Y-57500000D03*
D23*
X187520000Y-51500000D03*
X188480000Y-51500000D03*
D31*
X193000000Y-55520000D03*
X193000000Y-56480000D03*
D22*
X182480000Y-54000000D03*
X181520000Y-54000000D03*
D17*
X208600000Y-57300000D03*
%LPD*%
M02*
