%TF.GenerationSoftware,KiCad,Pcbnew,7.0.2*%
%TF.CreationDate,2024-01-23T17:52:43-06:00*%
%TF.ProjectId,imu-harvester,696d752d-6861-4727-9665-737465722e6b,rev?*%
%TF.SameCoordinates,Original*%
%TF.FileFunction,Copper,L2,Inr*%
%TF.FilePolarity,Positive*%
%FSLAX46Y46*%
G04 Gerber Fmt 4.6, Leading zero omitted, Abs format (unit mm)*
G04 Created by KiCad (PCBNEW 7.0.2) date 2024-01-23 17:52:43*
%MOMM*%
%LPD*%
G01*
G04 APERTURE LIST*
G04 Aperture macros list*
%AMRoundRect*
0 Rectangle with rounded corners*
0 $1 Rounding radius*
0 $2 $3 $4 $5 $6 $7 $8 $9 X,Y pos of 4 corners*
0 Add a 4 corners polygon primitive as box body*
4,1,4,$2,$3,$4,$5,$6,$7,$8,$9,$2,$3,0*
0 Add four circle primitives for the rounded corners*
1,1,$1+$1,$2,$3*
1,1,$1+$1,$4,$5*
1,1,$1+$1,$6,$7*
1,1,$1+$1,$8,$9*
0 Add four rect primitives between the rounded corners*
20,1,$1+$1,$2,$3,$4,$5,0*
20,1,$1+$1,$4,$5,$6,$7,0*
20,1,$1+$1,$6,$7,$8,$9,0*
20,1,$1+$1,$8,$9,$2,$3,0*%
G04 Aperture macros list end*
%TA.AperFunction,ComponentPad*%
%ADD10C,0.500000*%
%TD*%
%TA.AperFunction,ComponentPad*%
%ADD11RoundRect,0.400000X-0.400000X-0.400000X0.400000X-0.400000X0.400000X0.400000X-0.400000X0.400000X0*%
%TD*%
%TA.AperFunction,ComponentPad*%
%ADD12C,1.600000*%
%TD*%
%TA.AperFunction,ViaPad*%
%ADD13C,0.500000*%
%TD*%
%TA.AperFunction,Conductor*%
%ADD14C,0.200000*%
%TD*%
G04 APERTURE END LIST*
D10*
X208000000Y-54000000D03*
X208000000Y-55000000D03*
X208000000Y-56000000D03*
X209000000Y-54000000D03*
X209000000Y-55000000D03*
X209000000Y-56000000D03*
X210000000Y-54000000D03*
X210000000Y-55000000D03*
X210000000Y-56000000D03*
D11*
X185500000Y-60000000D03*
D12*
X188000000Y-60000000D03*
X190500000Y-60000000D03*
D13*
X178000000Y-59000000D03*
X178000000Y-57000000D03*
X178000000Y-55000000D03*
X178000000Y-53000000D03*
X178000000Y-51000000D03*
X195000000Y-61400000D03*
X197400000Y-60900000D03*
X205900000Y-57500000D03*
X207400000Y-58500000D03*
X194000000Y-59000000D03*
X201000000Y-57500000D03*
X212500000Y-51500000D03*
X200500000Y-55000000D03*
X194000000Y-61800000D03*
X199000000Y-59000000D03*
X200980000Y-52500000D03*
X211000000Y-51500000D03*
X224000000Y-57000000D03*
X224000000Y-55000000D03*
X224000000Y-59000000D03*
X206800000Y-51800000D03*
X188230053Y-55197198D03*
X224000000Y-51000000D03*
X224000000Y-53000000D03*
X209500000Y-51500000D03*
X206500000Y-50300000D03*
X199000000Y-61800000D03*
X208025654Y-58812827D03*
X208651308Y-59125654D03*
X217500000Y-57000000D03*
X214600000Y-53500000D03*
X210800000Y-58500000D03*
X190600000Y-54400000D03*
X217500000Y-60000000D03*
X206020000Y-59600000D03*
X219000000Y-58100000D03*
X197400000Y-60000000D03*
X192500000Y-51500000D03*
X204000000Y-51300000D03*
X217500000Y-61500000D03*
X204000000Y-56700000D03*
X208000000Y-61300000D03*
X198600000Y-53200000D03*
X203800000Y-60000000D03*
X205000000Y-48800000D03*
X215500000Y-56500000D03*
X205000000Y-50200000D03*
X216100000Y-51000000D03*
X197400000Y-59100000D03*
X190600000Y-53200000D03*
X198600000Y-54400000D03*
X193300000Y-52300000D03*
X217000000Y-51900000D03*
X186800000Y-52500000D03*
X209400000Y-59900000D03*
X220700000Y-51200000D03*
X202000000Y-60000000D03*
X211700000Y-49000000D03*
X202900000Y-60000000D03*
X205400000Y-60000000D03*
X217500000Y-58500000D03*
X219500000Y-51200000D03*
X221200000Y-58100000D03*
X187600000Y-53100000D03*
X201701636Y-52995025D03*
X201483058Y-53659500D03*
X192400000Y-54400000D03*
X195200000Y-52300000D03*
X189214049Y-52110416D03*
X189100000Y-53200000D03*
X197000000Y-52200000D03*
X197400000Y-51000000D03*
X194300000Y-53600000D03*
X195000000Y-53600000D03*
X187500000Y-51000000D03*
X187000000Y-51800000D03*
X186300000Y-53600000D03*
X187000000Y-53600000D03*
X195000000Y-59600000D03*
X193900000Y-55600000D03*
X195000000Y-60500000D03*
X193900000Y-57400000D03*
X193900000Y-56500000D03*
X205400000Y-54800000D03*
X197500000Y-53800000D03*
X201000000Y-49000000D03*
X182500000Y-48300000D03*
X214000000Y-49000000D03*
X218700000Y-53100000D03*
X188000000Y-49000000D03*
X218000000Y-49000000D03*
X221500000Y-53100000D03*
X183600000Y-48700000D03*
X186600000Y-58400000D03*
X183500000Y-58900000D03*
X196400000Y-49000000D03*
X186000000Y-49000000D03*
X195300000Y-49000000D03*
X219000000Y-56900000D03*
X212400000Y-57700000D03*
X219000000Y-55600000D03*
X212800000Y-57100000D03*
X205100000Y-55500000D03*
X195700000Y-57000000D03*
X197500000Y-49200000D03*
X198700000Y-49300000D03*
X189500000Y-49200000D03*
X190700000Y-49300000D03*
D14*
X204050000Y-55750000D02*
X205000000Y-54800000D01*
X197500000Y-54400000D02*
X199600000Y-56500000D01*
X197500000Y-53800000D02*
X197500000Y-54400000D01*
X202856496Y-56500000D02*
X203606497Y-55750000D01*
X199600000Y-56500000D02*
X202856496Y-56500000D01*
X205000000Y-54800000D02*
X205400000Y-54800000D01*
X203606497Y-55750000D02*
X204050000Y-55750000D01*
X203022182Y-56900000D02*
X203772182Y-56150000D01*
X204450000Y-56150000D02*
X205100000Y-55500000D01*
X203772182Y-56150000D02*
X204450000Y-56150000D01*
X195700000Y-57000000D02*
X195800000Y-56900000D01*
X195800000Y-56900000D02*
X203022182Y-56900000D01*
%TA.AperFunction,Conductor*%
G36*
X182132239Y-47820185D02*
G01*
X182177994Y-47872989D01*
X182187938Y-47942147D01*
X182158913Y-48005702D01*
X182117118Y-48053935D01*
X182063302Y-48171773D01*
X182044867Y-48300000D01*
X182063302Y-48428226D01*
X182117118Y-48546064D01*
X182201950Y-48643966D01*
X182201951Y-48643967D01*
X182220726Y-48656033D01*
X182310931Y-48714005D01*
X182435227Y-48750500D01*
X182435228Y-48750500D01*
X182564773Y-48750500D01*
X182689068Y-48714005D01*
X182710859Y-48700000D01*
X183144867Y-48700000D01*
X183163302Y-48828226D01*
X183217118Y-48946064D01*
X183278693Y-49017126D01*
X183301951Y-49043967D01*
X183317462Y-49053935D01*
X183410931Y-49114005D01*
X183535227Y-49150500D01*
X183535228Y-49150500D01*
X183664773Y-49150500D01*
X183789068Y-49114005D01*
X183817758Y-49095566D01*
X183898049Y-49043967D01*
X183936146Y-49000000D01*
X185544867Y-49000000D01*
X185563302Y-49128226D01*
X185617118Y-49246064D01*
X185701950Y-49343966D01*
X185701951Y-49343967D01*
X185730640Y-49362404D01*
X185810931Y-49414005D01*
X185935227Y-49450500D01*
X185935228Y-49450500D01*
X186064773Y-49450500D01*
X186189068Y-49414005D01*
X186217758Y-49395566D01*
X186298049Y-49343967D01*
X186382882Y-49246063D01*
X186436697Y-49128226D01*
X186455133Y-49000000D01*
X187544867Y-49000000D01*
X187563302Y-49128226D01*
X187617118Y-49246064D01*
X187701950Y-49343966D01*
X187701951Y-49343967D01*
X187730640Y-49362404D01*
X187810931Y-49414005D01*
X187935227Y-49450500D01*
X187935228Y-49450500D01*
X188064773Y-49450500D01*
X188189068Y-49414005D01*
X188217758Y-49395566D01*
X188298049Y-49343967D01*
X188382882Y-49246063D01*
X188403919Y-49200000D01*
X189044867Y-49200000D01*
X189063302Y-49328226D01*
X189117118Y-49446064D01*
X189201950Y-49543966D01*
X189201951Y-49543967D01*
X189205214Y-49546064D01*
X189310931Y-49614005D01*
X189435227Y-49650500D01*
X189435228Y-49650500D01*
X189564773Y-49650500D01*
X189689068Y-49614005D01*
X189717758Y-49595566D01*
X189798049Y-49543967D01*
X189882882Y-49446063D01*
X189936697Y-49328226D01*
X189940755Y-49300000D01*
X190244867Y-49300000D01*
X190263302Y-49428226D01*
X190317118Y-49546064D01*
X190375988Y-49614004D01*
X190401951Y-49643967D01*
X190412117Y-49650500D01*
X190510931Y-49714005D01*
X190635227Y-49750500D01*
X190635228Y-49750500D01*
X190764773Y-49750500D01*
X190889068Y-49714005D01*
X190917758Y-49695566D01*
X190998049Y-49643967D01*
X191082882Y-49546063D01*
X191136697Y-49428226D01*
X191155133Y-49300000D01*
X191138293Y-49182872D01*
X191136697Y-49171773D01*
X191082881Y-49053935D01*
X191036146Y-49000000D01*
X194844867Y-49000000D01*
X194863302Y-49128226D01*
X194917118Y-49246064D01*
X195001950Y-49343966D01*
X195001951Y-49343967D01*
X195030640Y-49362404D01*
X195110931Y-49414005D01*
X195235227Y-49450500D01*
X195235228Y-49450500D01*
X195364773Y-49450500D01*
X195489068Y-49414005D01*
X195517758Y-49395566D01*
X195598049Y-49343967D01*
X195682882Y-49246063D01*
X195736697Y-49128226D01*
X195736696Y-49128226D01*
X195737206Y-49127112D01*
X195782961Y-49074308D01*
X195850001Y-49054624D01*
X195917040Y-49074309D01*
X195962794Y-49127112D01*
X196017118Y-49246064D01*
X196101950Y-49343966D01*
X196101951Y-49343967D01*
X196130640Y-49362404D01*
X196210931Y-49414005D01*
X196335227Y-49450500D01*
X196335228Y-49450500D01*
X196464773Y-49450500D01*
X196589068Y-49414005D01*
X196617758Y-49395566D01*
X196698049Y-49343967D01*
X196782882Y-49246063D01*
X196811741Y-49182870D01*
X196857496Y-49130067D01*
X196924535Y-49110383D01*
X196991575Y-49130068D01*
X197037329Y-49182872D01*
X197047273Y-49216736D01*
X197063302Y-49328226D01*
X197117118Y-49446064D01*
X197201950Y-49543966D01*
X197201951Y-49543967D01*
X197205214Y-49546064D01*
X197310931Y-49614005D01*
X197435227Y-49650500D01*
X197435228Y-49650500D01*
X197564773Y-49650500D01*
X197689068Y-49614005D01*
X197717758Y-49595566D01*
X197798049Y-49543967D01*
X197882882Y-49446063D01*
X197936697Y-49328226D01*
X197940755Y-49300000D01*
X198244867Y-49300000D01*
X198263302Y-49428226D01*
X198317118Y-49546064D01*
X198375988Y-49614004D01*
X198401951Y-49643967D01*
X198412117Y-49650500D01*
X198510931Y-49714005D01*
X198635227Y-49750500D01*
X198635228Y-49750500D01*
X198764773Y-49750500D01*
X198889068Y-49714005D01*
X198917758Y-49695566D01*
X198998049Y-49643967D01*
X199082882Y-49546063D01*
X199136697Y-49428226D01*
X199155133Y-49300000D01*
X199138293Y-49182872D01*
X199136697Y-49171773D01*
X199082881Y-49053935D01*
X199036146Y-49000000D01*
X200544867Y-49000000D01*
X200563302Y-49128226D01*
X200617118Y-49246064D01*
X200701950Y-49343966D01*
X200701951Y-49343967D01*
X200730640Y-49362404D01*
X200810931Y-49414005D01*
X200935227Y-49450500D01*
X200935228Y-49450500D01*
X201064773Y-49450500D01*
X201189068Y-49414005D01*
X201217758Y-49395566D01*
X201298049Y-49343967D01*
X201382882Y-49246063D01*
X201436697Y-49128226D01*
X201455133Y-49000000D01*
X213544867Y-49000000D01*
X213563302Y-49128226D01*
X213617118Y-49246064D01*
X213701950Y-49343966D01*
X213701951Y-49343967D01*
X213730640Y-49362404D01*
X213810931Y-49414005D01*
X213935227Y-49450500D01*
X213935228Y-49450500D01*
X214064773Y-49450500D01*
X214189068Y-49414005D01*
X214217758Y-49395566D01*
X214298049Y-49343967D01*
X214382882Y-49246063D01*
X214436697Y-49128226D01*
X214455133Y-49000000D01*
X217544867Y-49000000D01*
X217563302Y-49128226D01*
X217617118Y-49246064D01*
X217701950Y-49343966D01*
X217701951Y-49343967D01*
X217730640Y-49362404D01*
X217810931Y-49414005D01*
X217935227Y-49450500D01*
X217935228Y-49450500D01*
X218064773Y-49450500D01*
X218189068Y-49414005D01*
X218217758Y-49395566D01*
X218298049Y-49343967D01*
X218382882Y-49246063D01*
X218436697Y-49128226D01*
X218455133Y-49000000D01*
X218436697Y-48871774D01*
X218429508Y-48856033D01*
X218382881Y-48753935D01*
X218298049Y-48656033D01*
X218189068Y-48585994D01*
X218064773Y-48549500D01*
X218064772Y-48549500D01*
X217935228Y-48549500D01*
X217935227Y-48549500D01*
X217810931Y-48585994D01*
X217701950Y-48656033D01*
X217617118Y-48753935D01*
X217563302Y-48871773D01*
X217544867Y-49000000D01*
X214455133Y-49000000D01*
X214436697Y-48871774D01*
X214429508Y-48856033D01*
X214382881Y-48753935D01*
X214298049Y-48656033D01*
X214189068Y-48585994D01*
X214064773Y-48549500D01*
X214064772Y-48549500D01*
X213935228Y-48549500D01*
X213935227Y-48549500D01*
X213810931Y-48585994D01*
X213701950Y-48656033D01*
X213617118Y-48753935D01*
X213563302Y-48871773D01*
X213544867Y-49000000D01*
X201455133Y-49000000D01*
X201436697Y-48871774D01*
X201429508Y-48856033D01*
X201382881Y-48753935D01*
X201298049Y-48656033D01*
X201189068Y-48585994D01*
X201064773Y-48549500D01*
X201064772Y-48549500D01*
X200935228Y-48549500D01*
X200935227Y-48549500D01*
X200810931Y-48585994D01*
X200701950Y-48656033D01*
X200617118Y-48753935D01*
X200563302Y-48871773D01*
X200544867Y-49000000D01*
X199036146Y-49000000D01*
X198998049Y-48956033D01*
X198889068Y-48885994D01*
X198764773Y-48849500D01*
X198764772Y-48849500D01*
X198635228Y-48849500D01*
X198635227Y-48849500D01*
X198510931Y-48885994D01*
X198401950Y-48956033D01*
X198317118Y-49053935D01*
X198263302Y-49171773D01*
X198244867Y-49300000D01*
X197940755Y-49300000D01*
X197955133Y-49200000D01*
X197939014Y-49087891D01*
X197936697Y-49071773D01*
X197882881Y-48953935D01*
X197798049Y-48856033D01*
X197689068Y-48785994D01*
X197564773Y-48749500D01*
X197564772Y-48749500D01*
X197435228Y-48749500D01*
X197435227Y-48749500D01*
X197310931Y-48785994D01*
X197201950Y-48856033D01*
X197117118Y-48953935D01*
X197088258Y-49017129D01*
X197042502Y-49069933D01*
X196975462Y-49089616D01*
X196908423Y-49069930D01*
X196862669Y-49017126D01*
X196852726Y-48983262D01*
X196848811Y-48956033D01*
X196836697Y-48871774D01*
X196829508Y-48856033D01*
X196782881Y-48753935D01*
X196698049Y-48656033D01*
X196589068Y-48585994D01*
X196464773Y-48549500D01*
X196464772Y-48549500D01*
X196335228Y-48549500D01*
X196335227Y-48549500D01*
X196210931Y-48585994D01*
X196101950Y-48656033D01*
X196017118Y-48753935D01*
X195962794Y-48872887D01*
X195917039Y-48925691D01*
X195849999Y-48945375D01*
X195782960Y-48925690D01*
X195737206Y-48872887D01*
X195682881Y-48753935D01*
X195598049Y-48656033D01*
X195489068Y-48585994D01*
X195364773Y-48549500D01*
X195364772Y-48549500D01*
X195235228Y-48549500D01*
X195235227Y-48549500D01*
X195110931Y-48585994D01*
X195001950Y-48656033D01*
X194917118Y-48753935D01*
X194863302Y-48871773D01*
X194844867Y-49000000D01*
X191036146Y-49000000D01*
X190998049Y-48956033D01*
X190889068Y-48885994D01*
X190764773Y-48849500D01*
X190764772Y-48849500D01*
X190635228Y-48849500D01*
X190635227Y-48849500D01*
X190510931Y-48885994D01*
X190401950Y-48956033D01*
X190317118Y-49053935D01*
X190263302Y-49171773D01*
X190244867Y-49300000D01*
X189940755Y-49300000D01*
X189955133Y-49200000D01*
X189939014Y-49087891D01*
X189936697Y-49071773D01*
X189882881Y-48953935D01*
X189798049Y-48856033D01*
X189689068Y-48785994D01*
X189564773Y-48749500D01*
X189564772Y-48749500D01*
X189435228Y-48749500D01*
X189435227Y-48749500D01*
X189310931Y-48785994D01*
X189201950Y-48856033D01*
X189117118Y-48953935D01*
X189063302Y-49071773D01*
X189044867Y-49200000D01*
X188403919Y-49200000D01*
X188436697Y-49128226D01*
X188455133Y-49000000D01*
X188436697Y-48871774D01*
X188429508Y-48856033D01*
X188382881Y-48753935D01*
X188298049Y-48656033D01*
X188189068Y-48585994D01*
X188064773Y-48549500D01*
X188064772Y-48549500D01*
X187935228Y-48549500D01*
X187935227Y-48549500D01*
X187810931Y-48585994D01*
X187701950Y-48656033D01*
X187617118Y-48753935D01*
X187563302Y-48871773D01*
X187544867Y-49000000D01*
X186455133Y-49000000D01*
X186436697Y-48871774D01*
X186429508Y-48856033D01*
X186382881Y-48753935D01*
X186298049Y-48656033D01*
X186189068Y-48585994D01*
X186064773Y-48549500D01*
X186064772Y-48549500D01*
X185935228Y-48549500D01*
X185935227Y-48549500D01*
X185810931Y-48585994D01*
X185701950Y-48656033D01*
X185617118Y-48753935D01*
X185563302Y-48871773D01*
X185544867Y-49000000D01*
X183936146Y-49000000D01*
X183982882Y-48946063D01*
X184036697Y-48828226D01*
X184055133Y-48700000D01*
X184036697Y-48571774D01*
X184024955Y-48546064D01*
X183982881Y-48453935D01*
X183898049Y-48356033D01*
X183789068Y-48285994D01*
X183664773Y-48249500D01*
X183664772Y-48249500D01*
X183535228Y-48249500D01*
X183535227Y-48249500D01*
X183410931Y-48285994D01*
X183301950Y-48356033D01*
X183217118Y-48453935D01*
X183163302Y-48571773D01*
X183144867Y-48700000D01*
X182710859Y-48700000D01*
X182717758Y-48695566D01*
X182798049Y-48643967D01*
X182882882Y-48546063D01*
X182936697Y-48428226D01*
X182955133Y-48300000D01*
X182936697Y-48171774D01*
X182904804Y-48101940D01*
X182882881Y-48053935D01*
X182841087Y-48005702D01*
X182812062Y-47942147D01*
X182822006Y-47872988D01*
X182867761Y-47820184D01*
X182934800Y-47800500D01*
X223952405Y-47800500D01*
X223993907Y-47800500D01*
X224006061Y-47801097D01*
X224124317Y-47812744D01*
X224148145Y-47817483D01*
X224256005Y-47850202D01*
X224278453Y-47859501D01*
X224377849Y-47912629D01*
X224398059Y-47926133D01*
X224485179Y-47997630D01*
X224502369Y-48014820D01*
X224573866Y-48101940D01*
X224587370Y-48122150D01*
X224613894Y-48171773D01*
X224640495Y-48221538D01*
X224649798Y-48243997D01*
X224682514Y-48351848D01*
X224687256Y-48375688D01*
X224696757Y-48472155D01*
X224698903Y-48493937D01*
X224699500Y-48506092D01*
X224699500Y-50965864D01*
X224689958Y-50998358D01*
X224698238Y-51016487D01*
X224699500Y-51034135D01*
X224699500Y-52965865D01*
X224689958Y-52998358D01*
X224698238Y-53016486D01*
X224699500Y-53034134D01*
X224699500Y-54965866D01*
X224689959Y-54998357D01*
X224698238Y-55016485D01*
X224699500Y-55034133D01*
X224699500Y-56965867D01*
X224689959Y-56998357D01*
X224698238Y-57016484D01*
X224699500Y-57034132D01*
X224699500Y-58965868D01*
X224689960Y-58998357D01*
X224698238Y-59016483D01*
X224699500Y-59034131D01*
X224699501Y-61452404D01*
X224699501Y-61493906D01*
X224698904Y-61506061D01*
X224687257Y-61624310D01*
X224682515Y-61648150D01*
X224649799Y-61756002D01*
X224640496Y-61778461D01*
X224587371Y-61877849D01*
X224573867Y-61898059D01*
X224502370Y-61985179D01*
X224485181Y-62002368D01*
X224398062Y-62073865D01*
X224377851Y-62087370D01*
X224303691Y-62127010D01*
X224278465Y-62140494D01*
X224278459Y-62140497D01*
X224256003Y-62149798D01*
X224202077Y-62166157D01*
X224148155Y-62182514D01*
X224124315Y-62187256D01*
X224014211Y-62198101D01*
X224006081Y-62198902D01*
X223993928Y-62199499D01*
X217124000Y-62199499D01*
X217056961Y-62179814D01*
X217011206Y-62127010D01*
X217000000Y-62075499D01*
X217000000Y-59000000D01*
X223544867Y-59000000D01*
X223563302Y-59128226D01*
X223617118Y-59246064D01*
X223675988Y-59314004D01*
X223701951Y-59343967D01*
X223712117Y-59350500D01*
X223810931Y-59414005D01*
X223935227Y-59450500D01*
X223935228Y-59450500D01*
X224064773Y-59450500D01*
X224189068Y-59414005D01*
X224254867Y-59371718D01*
X224298049Y-59343967D01*
X224382882Y-59246063D01*
X224436697Y-59128226D01*
X224452763Y-59016482D01*
X224458510Y-59003896D01*
X224456523Y-59000803D01*
X224452764Y-58983523D01*
X224436697Y-58871774D01*
X224426981Y-58850500D01*
X224382881Y-58753935D01*
X224298049Y-58656033D01*
X224189068Y-58585994D01*
X224064773Y-58549500D01*
X224064772Y-58549500D01*
X223935228Y-58549500D01*
X223935227Y-58549500D01*
X223810931Y-58585994D01*
X223701950Y-58656033D01*
X223617118Y-58753935D01*
X223563302Y-58871773D01*
X223544867Y-59000000D01*
X217000000Y-59000000D01*
X217000000Y-56900000D01*
X218544867Y-56900000D01*
X218563302Y-57028226D01*
X218617118Y-57146064D01*
X218701370Y-57243297D01*
X218701951Y-57243967D01*
X218705214Y-57246064D01*
X218810931Y-57314005D01*
X218935227Y-57350500D01*
X218935228Y-57350500D01*
X219064773Y-57350500D01*
X219189068Y-57314005D01*
X219232650Y-57285996D01*
X219298049Y-57243967D01*
X219382882Y-57146063D01*
X219436697Y-57028226D01*
X219440755Y-57000000D01*
X223544867Y-57000000D01*
X223563302Y-57128226D01*
X223617118Y-57246064D01*
X223669791Y-57306852D01*
X223701951Y-57343967D01*
X223720726Y-57356033D01*
X223810931Y-57414005D01*
X223935227Y-57450500D01*
X223935228Y-57450500D01*
X224064773Y-57450500D01*
X224189068Y-57414005D01*
X224254780Y-57371774D01*
X224298049Y-57343967D01*
X224382882Y-57246063D01*
X224436697Y-57128226D01*
X224452763Y-57016483D01*
X224458511Y-57003896D01*
X224456523Y-57000802D01*
X224452763Y-56983520D01*
X224436697Y-56871774D01*
X224432119Y-56861750D01*
X224382881Y-56753935D01*
X224298049Y-56656033D01*
X224189068Y-56585994D01*
X224064773Y-56549500D01*
X224064772Y-56549500D01*
X223935228Y-56549500D01*
X223935227Y-56549500D01*
X223810931Y-56585994D01*
X223701950Y-56656033D01*
X223617118Y-56753935D01*
X223563302Y-56871773D01*
X223544867Y-57000000D01*
X219440755Y-57000000D01*
X219455133Y-56900000D01*
X219436697Y-56771774D01*
X219429508Y-56756033D01*
X219382881Y-56653935D01*
X219298049Y-56556033D01*
X219189068Y-56485994D01*
X219064773Y-56449500D01*
X219064772Y-56449500D01*
X218935228Y-56449500D01*
X218935227Y-56449500D01*
X218810931Y-56485994D01*
X218701950Y-56556033D01*
X218617118Y-56653935D01*
X218563302Y-56771773D01*
X218544867Y-56900000D01*
X217000000Y-56900000D01*
X217000000Y-56600000D01*
X214800000Y-56600000D01*
X214800000Y-58176000D01*
X214780315Y-58243039D01*
X214727511Y-58288794D01*
X214676000Y-58300000D01*
X214283952Y-58300000D01*
X214216913Y-58280315D01*
X214171158Y-58227511D01*
X214168821Y-58222052D01*
X213800000Y-57300000D01*
X213206842Y-56876315D01*
X213185203Y-56856615D01*
X213098048Y-56756032D01*
X212989068Y-56685994D01*
X212864773Y-56649500D01*
X212864772Y-56649500D01*
X212735228Y-56649500D01*
X212735227Y-56649500D01*
X212610931Y-56685994D01*
X212501950Y-56756033D01*
X212417118Y-56853935D01*
X212363302Y-56971773D01*
X212344867Y-57100000D01*
X212349809Y-57134375D01*
X212339865Y-57203534D01*
X212294109Y-57256337D01*
X212262006Y-57270998D01*
X212210931Y-57285994D01*
X212101950Y-57356033D01*
X212017118Y-57453935D01*
X211963302Y-57571773D01*
X211942330Y-57717647D01*
X211938600Y-57717110D01*
X211933020Y-57755923D01*
X211907907Y-57792091D01*
X208200000Y-61499999D01*
X208200000Y-62075499D01*
X208180315Y-62142538D01*
X208127511Y-62188293D01*
X208076000Y-62199499D01*
X199505758Y-62199499D01*
X199438719Y-62179814D01*
X199392964Y-62127010D01*
X199383020Y-62057852D01*
X199392964Y-62023987D01*
X199436697Y-61928226D01*
X199453119Y-61814005D01*
X199455133Y-61800000D01*
X199436697Y-61671774D01*
X199434822Y-61667669D01*
X199382881Y-61553935D01*
X199298049Y-61456033D01*
X199189068Y-61385994D01*
X199064773Y-61349500D01*
X199064772Y-61349500D01*
X198935228Y-61349500D01*
X198935227Y-61349500D01*
X198810931Y-61385994D01*
X198701950Y-61456033D01*
X198617118Y-61553935D01*
X198563302Y-61671773D01*
X198544867Y-61800000D01*
X198563302Y-61928226D01*
X198607036Y-62023987D01*
X198616980Y-62093145D01*
X198587955Y-62156701D01*
X198529178Y-62194476D01*
X198494242Y-62199499D01*
X194505758Y-62199499D01*
X194438719Y-62179814D01*
X194392964Y-62127010D01*
X194383020Y-62057852D01*
X194392964Y-62023987D01*
X194436697Y-61928226D01*
X194453119Y-61814005D01*
X194455133Y-61800000D01*
X194455132Y-61799999D01*
X194457670Y-61782353D01*
X194460295Y-61782730D01*
X194466415Y-61740160D01*
X194512168Y-61687355D01*
X194579207Y-61667669D01*
X194646247Y-61687352D01*
X194672923Y-61710466D01*
X194701951Y-61743967D01*
X194810931Y-61814005D01*
X194935227Y-61850500D01*
X194935228Y-61850500D01*
X195064773Y-61850500D01*
X195189068Y-61814005D01*
X195244375Y-61778461D01*
X195298049Y-61743967D01*
X195382882Y-61646063D01*
X195436697Y-61528226D01*
X195455133Y-61400000D01*
X195436697Y-61271774D01*
X195382882Y-61153937D01*
X195382881Y-61153936D01*
X195382881Y-61153935D01*
X195298051Y-61056035D01*
X195298050Y-61056034D01*
X195298049Y-61056033D01*
X195295374Y-61054314D01*
X195249621Y-61001512D01*
X195239677Y-60932353D01*
X195268702Y-60868798D01*
X195295374Y-60845686D01*
X195298049Y-60843967D01*
X195382882Y-60746063D01*
X195436697Y-60628226D01*
X195455133Y-60500000D01*
X195436697Y-60371774D01*
X195382882Y-60253937D01*
X195382881Y-60253936D01*
X195382881Y-60253935D01*
X195298048Y-60156032D01*
X195295372Y-60154312D01*
X195249619Y-60101506D01*
X195239678Y-60032348D01*
X195268705Y-59968793D01*
X195295374Y-59945685D01*
X195298049Y-59943967D01*
X195382882Y-59846063D01*
X195436697Y-59728226D01*
X195455133Y-59600000D01*
X195436697Y-59471774D01*
X195435713Y-59469620D01*
X195382881Y-59353935D01*
X195298049Y-59256033D01*
X195189068Y-59185994D01*
X195064773Y-59149500D01*
X195064772Y-59149500D01*
X194935228Y-59149500D01*
X194935227Y-59149500D01*
X194810931Y-59185994D01*
X194701950Y-59256033D01*
X194617118Y-59353935D01*
X194563302Y-59471773D01*
X194544867Y-59600000D01*
X194563302Y-59728226D01*
X194617118Y-59846064D01*
X194701948Y-59943964D01*
X194701951Y-59943967D01*
X194704618Y-59945681D01*
X194704626Y-59945686D01*
X194750379Y-59998491D01*
X194760321Y-60067650D01*
X194731295Y-60131205D01*
X194704626Y-60154314D01*
X194701950Y-60156033D01*
X194617118Y-60253935D01*
X194563302Y-60371773D01*
X194544867Y-60500000D01*
X194563302Y-60628226D01*
X194617118Y-60746064D01*
X194701948Y-60843964D01*
X194701951Y-60843967D01*
X194704623Y-60845684D01*
X194704626Y-60845686D01*
X194750379Y-60898491D01*
X194760321Y-60967650D01*
X194731295Y-61031205D01*
X194704626Y-61054314D01*
X194701950Y-61056033D01*
X194617118Y-61153935D01*
X194563302Y-61271773D01*
X194542330Y-61417647D01*
X194539704Y-61417269D01*
X194533579Y-61459850D01*
X194487820Y-61512651D01*
X194420779Y-61532330D01*
X194353741Y-61512640D01*
X194327076Y-61489532D01*
X194298049Y-61456033D01*
X194189068Y-61385994D01*
X194064773Y-61349500D01*
X194064772Y-61349500D01*
X193935228Y-61349500D01*
X193935227Y-61349500D01*
X193810931Y-61385994D01*
X193701950Y-61456033D01*
X193617118Y-61553935D01*
X193563302Y-61671773D01*
X193544867Y-61800000D01*
X193563302Y-61928226D01*
X193607036Y-62023987D01*
X193616980Y-62093145D01*
X193587955Y-62156701D01*
X193529178Y-62194476D01*
X193494242Y-62199499D01*
X178006094Y-62199499D01*
X177993940Y-62198902D01*
X177943082Y-62193892D01*
X177875689Y-62187255D01*
X177851849Y-62182513D01*
X177743998Y-62149797D01*
X177721541Y-62140495D01*
X177632956Y-62093145D01*
X177622150Y-62087369D01*
X177601939Y-62073864D01*
X177514820Y-62002367D01*
X177497632Y-61985179D01*
X177426135Y-61898060D01*
X177412630Y-61877849D01*
X177398012Y-61850500D01*
X177359502Y-61778453D01*
X177350203Y-61756004D01*
X177317484Y-61648144D01*
X177312745Y-61624316D01*
X177301098Y-61506060D01*
X177300501Y-61493906D01*
X177300501Y-61427743D01*
X177300500Y-61427737D01*
X177300500Y-60435320D01*
X184499500Y-60435320D01*
X184499501Y-60439360D01*
X184500029Y-60443373D01*
X184500030Y-60443384D01*
X184514955Y-60556760D01*
X184575464Y-60702841D01*
X184671717Y-60828282D01*
X184763216Y-60898491D01*
X184797159Y-60924536D01*
X184943238Y-60985044D01*
X185060639Y-61000500D01*
X185939360Y-61000499D01*
X186056762Y-60985044D01*
X186202841Y-60924536D01*
X186328282Y-60828282D01*
X186424536Y-60702841D01*
X186485044Y-60556762D01*
X186500500Y-60439361D01*
X186500499Y-60000000D01*
X186994659Y-60000000D01*
X187013976Y-60196133D01*
X187071185Y-60384726D01*
X187102539Y-60443384D01*
X187164090Y-60558538D01*
X187289117Y-60710883D01*
X187441462Y-60835910D01*
X187615273Y-60928814D01*
X187803868Y-60986024D01*
X188000000Y-61005341D01*
X188196132Y-60986024D01*
X188384727Y-60928814D01*
X188558538Y-60835910D01*
X188710883Y-60710883D01*
X188835910Y-60558538D01*
X188928814Y-60384727D01*
X188986024Y-60196132D01*
X189005341Y-60000000D01*
X189494659Y-60000000D01*
X189513976Y-60196133D01*
X189571185Y-60384726D01*
X189602539Y-60443384D01*
X189664090Y-60558538D01*
X189789117Y-60710883D01*
X189941462Y-60835910D01*
X190115273Y-60928814D01*
X190303868Y-60986024D01*
X190500000Y-61005341D01*
X190696132Y-60986024D01*
X190884727Y-60928814D01*
X191058538Y-60835910D01*
X191210883Y-60710883D01*
X191335910Y-60558538D01*
X191428814Y-60384727D01*
X191486024Y-60196132D01*
X191505341Y-60000000D01*
X191486024Y-59803868D01*
X191428814Y-59615273D01*
X191335910Y-59441462D01*
X191210883Y-59289117D01*
X191058538Y-59164090D01*
X190991441Y-59128226D01*
X190884726Y-59071185D01*
X190696133Y-59013976D01*
X190554229Y-59000000D01*
X193544867Y-59000000D01*
X193563302Y-59128226D01*
X193617118Y-59246064D01*
X193675988Y-59314004D01*
X193701951Y-59343967D01*
X193712117Y-59350500D01*
X193810931Y-59414005D01*
X193935227Y-59450500D01*
X193935228Y-59450500D01*
X194064773Y-59450500D01*
X194189068Y-59414005D01*
X194254867Y-59371718D01*
X194298049Y-59343967D01*
X194382882Y-59246063D01*
X194436697Y-59128226D01*
X194455133Y-59000000D01*
X198544867Y-59000000D01*
X198563302Y-59128226D01*
X198617118Y-59246064D01*
X198675988Y-59314004D01*
X198701951Y-59343967D01*
X198712117Y-59350500D01*
X198810931Y-59414005D01*
X198935227Y-59450500D01*
X198935228Y-59450500D01*
X199064773Y-59450500D01*
X199189068Y-59414005D01*
X199254867Y-59371718D01*
X199298049Y-59343967D01*
X199382882Y-59246063D01*
X199436697Y-59128226D01*
X199455133Y-59000000D01*
X199436697Y-58871774D01*
X199426981Y-58850500D01*
X199382881Y-58753935D01*
X199298049Y-58656033D01*
X199189068Y-58585994D01*
X199064773Y-58549500D01*
X199064772Y-58549500D01*
X198935228Y-58549500D01*
X198935227Y-58549500D01*
X198810931Y-58585994D01*
X198701950Y-58656033D01*
X198617118Y-58753935D01*
X198563302Y-58871773D01*
X198544867Y-59000000D01*
X194455133Y-59000000D01*
X194436697Y-58871774D01*
X194426981Y-58850500D01*
X194382881Y-58753935D01*
X194298049Y-58656033D01*
X194189068Y-58585994D01*
X194064773Y-58549500D01*
X194064772Y-58549500D01*
X193935228Y-58549500D01*
X193935227Y-58549500D01*
X193810931Y-58585994D01*
X193701950Y-58656033D01*
X193617118Y-58753935D01*
X193563302Y-58871773D01*
X193544867Y-59000000D01*
X190554229Y-59000000D01*
X190500000Y-58994659D01*
X190303866Y-59013976D01*
X190115273Y-59071185D01*
X189941463Y-59164089D01*
X189789117Y-59289117D01*
X189664089Y-59441463D01*
X189571185Y-59615273D01*
X189513976Y-59803866D01*
X189494659Y-60000000D01*
X189005341Y-60000000D01*
X188986024Y-59803868D01*
X188928814Y-59615273D01*
X188835910Y-59441462D01*
X188710883Y-59289117D01*
X188558538Y-59164090D01*
X188491441Y-59128226D01*
X188384726Y-59071185D01*
X188196133Y-59013976D01*
X188000000Y-58994659D01*
X187803866Y-59013976D01*
X187615273Y-59071185D01*
X187441463Y-59164089D01*
X187289117Y-59289117D01*
X187164089Y-59441463D01*
X187071185Y-59615273D01*
X187013976Y-59803866D01*
X186994659Y-60000000D01*
X186500499Y-60000000D01*
X186500499Y-59560640D01*
X186485044Y-59443238D01*
X186424536Y-59297159D01*
X186385329Y-59246063D01*
X186328282Y-59171717D01*
X186202840Y-59075463D01*
X186056762Y-59014956D01*
X185943380Y-59000029D01*
X185943378Y-59000028D01*
X185939361Y-58999500D01*
X185935307Y-58999500D01*
X185064694Y-58999500D01*
X185064678Y-58999500D01*
X185060640Y-58999501D01*
X185056627Y-59000029D01*
X185056615Y-59000030D01*
X184943239Y-59014955D01*
X184797158Y-59075464D01*
X184671717Y-59171717D01*
X184575463Y-59297159D01*
X184514956Y-59443237D01*
X184511483Y-59469621D01*
X184499500Y-59560639D01*
X184499500Y-59564691D01*
X184499500Y-59564692D01*
X184499500Y-60435305D01*
X184499500Y-60435320D01*
X177300500Y-60435320D01*
X177300500Y-58900000D01*
X183044867Y-58900000D01*
X183063302Y-59028226D01*
X183117118Y-59146064D01*
X183188079Y-59227958D01*
X183201951Y-59243967D01*
X183205214Y-59246064D01*
X183310931Y-59314005D01*
X183435227Y-59350500D01*
X183435228Y-59350500D01*
X183564773Y-59350500D01*
X183689068Y-59314005D01*
X183727794Y-59289117D01*
X183798049Y-59243967D01*
X183882882Y-59146063D01*
X183936697Y-59028226D01*
X183955133Y-58900000D01*
X183936697Y-58771774D01*
X183924955Y-58746064D01*
X183882881Y-58653935D01*
X183798049Y-58556033D01*
X183689068Y-58485994D01*
X183564773Y-58449500D01*
X183564772Y-58449500D01*
X183435228Y-58449500D01*
X183435227Y-58449500D01*
X183310931Y-58485994D01*
X183201950Y-58556033D01*
X183117118Y-58653935D01*
X183063302Y-58771773D01*
X183044867Y-58900000D01*
X177300500Y-58900000D01*
X177300500Y-58400000D01*
X186144867Y-58400000D01*
X186163302Y-58528226D01*
X186217118Y-58646064D01*
X186301950Y-58743966D01*
X186301951Y-58743967D01*
X186305214Y-58746064D01*
X186410931Y-58814005D01*
X186535227Y-58850500D01*
X186535228Y-58850500D01*
X186664773Y-58850500D01*
X186789068Y-58814005D01*
X186854780Y-58771774D01*
X186898049Y-58743967D01*
X186982882Y-58646063D01*
X187036697Y-58528226D01*
X187040755Y-58500000D01*
X206944867Y-58500000D01*
X206963302Y-58628226D01*
X207017118Y-58746064D01*
X207075988Y-58814004D01*
X207101951Y-58843967D01*
X207112117Y-58850500D01*
X207210931Y-58914005D01*
X207335227Y-58950500D01*
X207335228Y-58950500D01*
X207464771Y-58950500D01*
X207464772Y-58950500D01*
X207474982Y-58947501D01*
X207544850Y-58947500D01*
X207603629Y-58985273D01*
X207622712Y-59014966D01*
X207642772Y-59058891D01*
X207721285Y-59149500D01*
X207727605Y-59156794D01*
X207738958Y-59164090D01*
X207836585Y-59226832D01*
X207960881Y-59263327D01*
X207960882Y-59263327D01*
X208090425Y-59263327D01*
X208090426Y-59263327D01*
X208100636Y-59260328D01*
X208170504Y-59260327D01*
X208229283Y-59298100D01*
X208248366Y-59327793D01*
X208268426Y-59371718D01*
X208305067Y-59414004D01*
X208353259Y-59469621D01*
X208381948Y-59488058D01*
X208462239Y-59539659D01*
X208586535Y-59576154D01*
X208586536Y-59576154D01*
X208716081Y-59576154D01*
X208840376Y-59539659D01*
X208869066Y-59521220D01*
X208949357Y-59469621D01*
X209034190Y-59371717D01*
X209088005Y-59253880D01*
X209106441Y-59125654D01*
X209088005Y-58997428D01*
X209086740Y-58994659D01*
X209034189Y-58879589D01*
X208949357Y-58781687D01*
X208840376Y-58711648D01*
X208716081Y-58675154D01*
X208716080Y-58675154D01*
X208586536Y-58675154D01*
X208576322Y-58678153D01*
X208506452Y-58678151D01*
X208447674Y-58640376D01*
X208428595Y-58610686D01*
X208408536Y-58566763D01*
X208323703Y-58468860D01*
X208214722Y-58398821D01*
X208090427Y-58362327D01*
X208090426Y-58362327D01*
X207960882Y-58362327D01*
X207950668Y-58365326D01*
X207880798Y-58365324D01*
X207822020Y-58327549D01*
X207802941Y-58297859D01*
X207782882Y-58253936D01*
X207698049Y-58156033D01*
X207589068Y-58085994D01*
X207464773Y-58049500D01*
X207464772Y-58049500D01*
X207335228Y-58049500D01*
X207335227Y-58049500D01*
X207210931Y-58085994D01*
X207101950Y-58156033D01*
X207017118Y-58253935D01*
X206963302Y-58371773D01*
X206944867Y-58500000D01*
X187040755Y-58500000D01*
X187055133Y-58400000D01*
X187036697Y-58271774D01*
X187013989Y-58222052D01*
X186982881Y-58153935D01*
X186898049Y-58056033D01*
X186789068Y-57985994D01*
X186664773Y-57949500D01*
X186664772Y-57949500D01*
X186535228Y-57949500D01*
X186535227Y-57949500D01*
X186410931Y-57985994D01*
X186301950Y-58056033D01*
X186217118Y-58153935D01*
X186163302Y-58271773D01*
X186144867Y-58400000D01*
X177300500Y-58400000D01*
X177300500Y-57400000D01*
X193444867Y-57400000D01*
X193463302Y-57528226D01*
X193517118Y-57646064D01*
X193579145Y-57717647D01*
X193601951Y-57743967D01*
X193605214Y-57746064D01*
X193710931Y-57814005D01*
X193835227Y-57850500D01*
X193835228Y-57850500D01*
X193964773Y-57850500D01*
X194089068Y-57814005D01*
X194123166Y-57792091D01*
X194198049Y-57743967D01*
X194282882Y-57646063D01*
X194336697Y-57528226D01*
X194355133Y-57400000D01*
X194336697Y-57271774D01*
X194324955Y-57246064D01*
X194282881Y-57153935D01*
X194198051Y-57056035D01*
X194198050Y-57056034D01*
X194198049Y-57056033D01*
X194195374Y-57054314D01*
X194149621Y-57001512D01*
X194149404Y-57000000D01*
X195244867Y-57000000D01*
X195263302Y-57128226D01*
X195317118Y-57246064D01*
X195369791Y-57306852D01*
X195401951Y-57343967D01*
X195420726Y-57356033D01*
X195510931Y-57414005D01*
X195635227Y-57450500D01*
X195635228Y-57450500D01*
X195764773Y-57450500D01*
X195889068Y-57414005D01*
X195912775Y-57398769D01*
X195998049Y-57343967D01*
X196082882Y-57246063D01*
X196082882Y-57246060D01*
X196085277Y-57243298D01*
X196144055Y-57205523D01*
X196178991Y-57200500D01*
X200448573Y-57200500D01*
X200515612Y-57220185D01*
X200561367Y-57272989D01*
X200571311Y-57342147D01*
X200563965Y-57367164D01*
X200544867Y-57500000D01*
X200563302Y-57628226D01*
X200617118Y-57746064D01*
X200675988Y-57814004D01*
X200701951Y-57843967D01*
X200712117Y-57850500D01*
X200810931Y-57914005D01*
X200935227Y-57950500D01*
X200935228Y-57950500D01*
X201064773Y-57950500D01*
X201189068Y-57914005D01*
X201217758Y-57895566D01*
X201298049Y-57843967D01*
X201382882Y-57746063D01*
X201436697Y-57628226D01*
X201455133Y-57500000D01*
X205444867Y-57500000D01*
X205463302Y-57628226D01*
X205517118Y-57746064D01*
X205575988Y-57814004D01*
X205601951Y-57843967D01*
X205612117Y-57850500D01*
X205710931Y-57914005D01*
X205835227Y-57950500D01*
X205835228Y-57950500D01*
X205964773Y-57950500D01*
X206089068Y-57914005D01*
X206117758Y-57895566D01*
X206198049Y-57843967D01*
X206282882Y-57746063D01*
X206336697Y-57628226D01*
X206355133Y-57500000D01*
X206336697Y-57371774D01*
X206329508Y-57356033D01*
X206282881Y-57253935D01*
X206198049Y-57156033D01*
X206089068Y-57085994D01*
X205964773Y-57049500D01*
X205964772Y-57049500D01*
X205835228Y-57049500D01*
X205835227Y-57049500D01*
X205710931Y-57085994D01*
X205601950Y-57156033D01*
X205517118Y-57253935D01*
X205463302Y-57371773D01*
X205444867Y-57500000D01*
X201455133Y-57500000D01*
X201436697Y-57371774D01*
X201436697Y-57371773D01*
X201434160Y-57354127D01*
X201435458Y-57353940D01*
X201428689Y-57306852D01*
X201457715Y-57243297D01*
X201516493Y-57205523D01*
X201551427Y-57200500D01*
X202952939Y-57200500D01*
X202969759Y-57203243D01*
X202979944Y-57202772D01*
X202979947Y-57202773D01*
X203026262Y-57200631D01*
X203031987Y-57200500D01*
X203051006Y-57200500D01*
X203065500Y-57198817D01*
X203092174Y-57197585D01*
X203098512Y-57194786D01*
X203125815Y-57186332D01*
X203132615Y-57185061D01*
X203155325Y-57170998D01*
X203170507Y-57162996D01*
X203194947Y-57152206D01*
X203199841Y-57147311D01*
X203222245Y-57129564D01*
X203228134Y-57125919D01*
X203244235Y-57104595D01*
X203255495Y-57091656D01*
X203860333Y-56486819D01*
X203921657Y-56453334D01*
X203948015Y-56450500D01*
X204380757Y-56450500D01*
X204397577Y-56453243D01*
X204407762Y-56452772D01*
X204407765Y-56452773D01*
X204454080Y-56450631D01*
X204459805Y-56450500D01*
X204478824Y-56450500D01*
X204493318Y-56448817D01*
X204519992Y-56447585D01*
X204526330Y-56444786D01*
X204553633Y-56436332D01*
X204560433Y-56435061D01*
X204573864Y-56426744D01*
X207856098Y-56426744D01*
X207935300Y-56450000D01*
X208064699Y-56450000D01*
X208143898Y-56426744D01*
X208856098Y-56426744D01*
X208935300Y-56450000D01*
X209064699Y-56450000D01*
X209143898Y-56426744D01*
X209856098Y-56426744D01*
X209935300Y-56450000D01*
X210064699Y-56450000D01*
X210143901Y-56426743D01*
X210000001Y-56282843D01*
X209856098Y-56426744D01*
X209143898Y-56426744D01*
X209143901Y-56426743D01*
X209000001Y-56282843D01*
X208856098Y-56426744D01*
X208143898Y-56426744D01*
X208143901Y-56426743D01*
X208000001Y-56282843D01*
X207856098Y-56426744D01*
X204573864Y-56426744D01*
X204583143Y-56420998D01*
X204598325Y-56412996D01*
X204622765Y-56402206D01*
X204627659Y-56397311D01*
X204650063Y-56379564D01*
X204655952Y-56375919D01*
X204672053Y-56354595D01*
X204683313Y-56341656D01*
X205024970Y-56000000D01*
X207545373Y-56000000D01*
X207563789Y-56128082D01*
X207571715Y-56145440D01*
X207684664Y-56032492D01*
X207900000Y-56032492D01*
X207938197Y-56085065D01*
X207984162Y-56100000D01*
X208015838Y-56100000D01*
X208061803Y-56085065D01*
X208100000Y-56032492D01*
X208100000Y-55999998D01*
X208282843Y-55999998D01*
X208428284Y-56145440D01*
X208477987Y-56136473D01*
X208522025Y-56136474D01*
X208571714Y-56145440D01*
X208684664Y-56032492D01*
X208900000Y-56032492D01*
X208938197Y-56085065D01*
X208984162Y-56100000D01*
X209015838Y-56100000D01*
X209061803Y-56085065D01*
X209100000Y-56032492D01*
X209100000Y-55999998D01*
X209282843Y-55999998D01*
X209428284Y-56145440D01*
X209477987Y-56136473D01*
X209522025Y-56136474D01*
X209571714Y-56145440D01*
X209684663Y-56032492D01*
X209900000Y-56032492D01*
X209938197Y-56085065D01*
X209984162Y-56100000D01*
X210015838Y-56100000D01*
X210061803Y-56085065D01*
X210100000Y-56032492D01*
X210100000Y-55999998D01*
X210282843Y-55999998D01*
X210428284Y-56145440D01*
X210436211Y-56128082D01*
X210454626Y-56000000D01*
X210436211Y-55871916D01*
X210428284Y-55854558D01*
X210428283Y-55854558D01*
X210282843Y-55999998D01*
X210100000Y-55999998D01*
X210100000Y-55967508D01*
X210061803Y-55914935D01*
X210015838Y-55900000D01*
X209984162Y-55900000D01*
X209938197Y-55914935D01*
X209900000Y-55967508D01*
X209900000Y-56032492D01*
X209684663Y-56032492D01*
X209717156Y-55999999D01*
X209571715Y-55854557D01*
X209522026Y-55863525D01*
X209477986Y-55863526D01*
X209428283Y-55854558D01*
X209282843Y-55999998D01*
X209100000Y-55999998D01*
X209100000Y-55967508D01*
X209061803Y-55914935D01*
X209015838Y-55900000D01*
X208984162Y-55900000D01*
X208938197Y-55914935D01*
X208900000Y-55967508D01*
X208900000Y-56032492D01*
X208684664Y-56032492D01*
X208717157Y-55999999D01*
X208571715Y-55854557D01*
X208522026Y-55863525D01*
X208477986Y-55863526D01*
X208428283Y-55854558D01*
X208282843Y-55999998D01*
X208100000Y-55999998D01*
X208100000Y-55967508D01*
X208061803Y-55914935D01*
X208015838Y-55900000D01*
X207984162Y-55900000D01*
X207938197Y-55914935D01*
X207900000Y-55967508D01*
X207900000Y-56032492D01*
X207684664Y-56032492D01*
X207717157Y-55999999D01*
X207571715Y-55854558D01*
X207571714Y-55854558D01*
X207563789Y-55871915D01*
X207545373Y-56000000D01*
X205024970Y-56000000D01*
X205038151Y-55986819D01*
X205099475Y-55953334D01*
X205125833Y-55950500D01*
X205164773Y-55950500D01*
X205289068Y-55914005D01*
X205354559Y-55871916D01*
X205398049Y-55843967D01*
X205482882Y-55746063D01*
X205536697Y-55628226D01*
X205544601Y-55573254D01*
X207856097Y-55573254D01*
X207999999Y-55717156D01*
X208143900Y-55573254D01*
X208856097Y-55573254D01*
X208999999Y-55717156D01*
X209143900Y-55573254D01*
X209856097Y-55573254D01*
X209999999Y-55717156D01*
X210117154Y-55600000D01*
X218544867Y-55600000D01*
X218563302Y-55728226D01*
X218617118Y-55846064D01*
X218675988Y-55914004D01*
X218701951Y-55943967D01*
X218730640Y-55962404D01*
X218810931Y-56014005D01*
X218935227Y-56050500D01*
X218935228Y-56050500D01*
X219064773Y-56050500D01*
X219189068Y-56014005D01*
X219231370Y-55986819D01*
X219298049Y-55943967D01*
X219382882Y-55846063D01*
X219436697Y-55728226D01*
X219455133Y-55600000D01*
X219436697Y-55471774D01*
X219435582Y-55469333D01*
X219382881Y-55353935D01*
X219298049Y-55256033D01*
X219189068Y-55185994D01*
X219064773Y-55149500D01*
X219064772Y-55149500D01*
X218935228Y-55149500D01*
X218935227Y-55149500D01*
X218810931Y-55185994D01*
X218701950Y-55256033D01*
X218617118Y-55353935D01*
X218563302Y-55471773D01*
X218544867Y-55600000D01*
X210117154Y-55600000D01*
X210143900Y-55573254D01*
X210133030Y-55530667D01*
X210133030Y-55469333D01*
X210143900Y-55426742D01*
X210000001Y-55282843D01*
X209856097Y-55426744D01*
X209866968Y-55469334D01*
X209866968Y-55530666D01*
X209856097Y-55573254D01*
X209143900Y-55573254D01*
X209133030Y-55530667D01*
X209133030Y-55469333D01*
X209143900Y-55426742D01*
X209000001Y-55282843D01*
X208856097Y-55426744D01*
X208866968Y-55469334D01*
X208866968Y-55530666D01*
X208856097Y-55573254D01*
X208143900Y-55573254D01*
X208133030Y-55530667D01*
X208133030Y-55469333D01*
X208143900Y-55426742D01*
X208000001Y-55282843D01*
X207856097Y-55426744D01*
X207866968Y-55469334D01*
X207866968Y-55530666D01*
X207856097Y-55573254D01*
X205544601Y-55573254D01*
X205555133Y-55500000D01*
X205536697Y-55371774D01*
X205534160Y-55354127D01*
X205534707Y-55354048D01*
X205527569Y-55304402D01*
X205556593Y-55240846D01*
X205583267Y-55217733D01*
X205695755Y-55145441D01*
X205698049Y-55143967D01*
X205704543Y-55136473D01*
X205749087Y-55085065D01*
X205782882Y-55046063D01*
X205803919Y-55000000D01*
X207545373Y-55000000D01*
X207563789Y-55128082D01*
X207571715Y-55145440D01*
X207684664Y-55032492D01*
X207900000Y-55032492D01*
X207938197Y-55085065D01*
X207984162Y-55100000D01*
X208015838Y-55100000D01*
X208061803Y-55085065D01*
X208100000Y-55032492D01*
X208100000Y-54999998D01*
X208282843Y-54999998D01*
X208428284Y-55145440D01*
X208477987Y-55136473D01*
X208522025Y-55136474D01*
X208571714Y-55145440D01*
X208684664Y-55032492D01*
X208900000Y-55032492D01*
X208938197Y-55085065D01*
X208984162Y-55100000D01*
X209015838Y-55100000D01*
X209061803Y-55085065D01*
X209100000Y-55032492D01*
X209100000Y-54999998D01*
X209282843Y-54999998D01*
X209428284Y-55145440D01*
X209477987Y-55136473D01*
X209522025Y-55136474D01*
X209571714Y-55145440D01*
X209684663Y-55032492D01*
X209900000Y-55032492D01*
X209938197Y-55085065D01*
X209984162Y-55100000D01*
X210015838Y-55100000D01*
X210061803Y-55085065D01*
X210100000Y-55032492D01*
X210100000Y-55000001D01*
X210282843Y-55000001D01*
X210428283Y-55145441D01*
X210436211Y-55128082D01*
X210454626Y-55000000D01*
X210436211Y-54871916D01*
X210428284Y-54854558D01*
X210428283Y-54854558D01*
X210282843Y-55000000D01*
X210282843Y-55000001D01*
X210100000Y-55000001D01*
X210100000Y-54967508D01*
X210061803Y-54914935D01*
X210015838Y-54900000D01*
X209984162Y-54900000D01*
X209938197Y-54914935D01*
X209900000Y-54967508D01*
X209900000Y-55032492D01*
X209684663Y-55032492D01*
X209717156Y-54999999D01*
X209571715Y-54854557D01*
X209522026Y-54863525D01*
X209477986Y-54863526D01*
X209428283Y-54854558D01*
X209282843Y-54999998D01*
X209100000Y-54999998D01*
X209100000Y-54967508D01*
X209061803Y-54914935D01*
X209015838Y-54900000D01*
X208984162Y-54900000D01*
X208938197Y-54914935D01*
X208900000Y-54967508D01*
X208900000Y-55032492D01*
X208684664Y-55032492D01*
X208717157Y-54999999D01*
X208571715Y-54854557D01*
X208522026Y-54863525D01*
X208477986Y-54863526D01*
X208428283Y-54854558D01*
X208282843Y-54999998D01*
X208100000Y-54999998D01*
X208100000Y-54967508D01*
X208061803Y-54914935D01*
X208015838Y-54900000D01*
X207984162Y-54900000D01*
X207938197Y-54914935D01*
X207900000Y-54967508D01*
X207900000Y-55032492D01*
X207684664Y-55032492D01*
X207717157Y-54999999D01*
X207571715Y-54854558D01*
X207571714Y-54854558D01*
X207563789Y-54871915D01*
X207545373Y-55000000D01*
X205803919Y-55000000D01*
X205836697Y-54928226D01*
X205855133Y-54800000D01*
X205836697Y-54671774D01*
X205834160Y-54654127D01*
X205835305Y-54653962D01*
X205828459Y-54606358D01*
X205843576Y-54573254D01*
X207856097Y-54573254D01*
X207999999Y-54717156D01*
X208143900Y-54573254D01*
X208856097Y-54573254D01*
X208999999Y-54717156D01*
X209143900Y-54573254D01*
X209856097Y-54573254D01*
X209999999Y-54717156D01*
X210143900Y-54573254D01*
X210133030Y-54530667D01*
X210133030Y-54469333D01*
X210143900Y-54426742D01*
X210000001Y-54282843D01*
X209856097Y-54426744D01*
X209866968Y-54469334D01*
X209866968Y-54530666D01*
X209856097Y-54573254D01*
X209143900Y-54573254D01*
X209133030Y-54530667D01*
X209133030Y-54469333D01*
X209143900Y-54426742D01*
X209000001Y-54282843D01*
X208856097Y-54426744D01*
X208866968Y-54469334D01*
X208866968Y-54530666D01*
X208856097Y-54573254D01*
X208143900Y-54573254D01*
X208133030Y-54530667D01*
X208133030Y-54469333D01*
X208143900Y-54426742D01*
X208000001Y-54282843D01*
X207856097Y-54426744D01*
X207866968Y-54469334D01*
X207866968Y-54530666D01*
X207856097Y-54573254D01*
X205843576Y-54573254D01*
X205857482Y-54542801D01*
X205916259Y-54505024D01*
X205951198Y-54500000D01*
X207000000Y-54500000D01*
X207000000Y-54000000D01*
X207545373Y-54000000D01*
X207563789Y-54128082D01*
X207571715Y-54145440D01*
X207684664Y-54032492D01*
X207900000Y-54032492D01*
X207938197Y-54085065D01*
X207984162Y-54100000D01*
X208015838Y-54100000D01*
X208061803Y-54085065D01*
X208100000Y-54032492D01*
X208100000Y-53999998D01*
X208282843Y-53999998D01*
X208428284Y-54145440D01*
X208477987Y-54136473D01*
X208522025Y-54136474D01*
X208571714Y-54145440D01*
X208684664Y-54032492D01*
X208900000Y-54032492D01*
X208938197Y-54085065D01*
X208984162Y-54100000D01*
X209015838Y-54100000D01*
X209061803Y-54085065D01*
X209100000Y-54032492D01*
X209100000Y-54000001D01*
X209282843Y-54000001D01*
X209428282Y-54145440D01*
X209477987Y-54136473D01*
X209522025Y-54136474D01*
X209571714Y-54145440D01*
X209684663Y-54032492D01*
X209900000Y-54032492D01*
X209938197Y-54085065D01*
X209984162Y-54100000D01*
X210015838Y-54100000D01*
X210061803Y-54085065D01*
X210100000Y-54032492D01*
X210100000Y-54000000D01*
X210282843Y-54000000D01*
X210428283Y-54145441D01*
X210436211Y-54128082D01*
X210454626Y-54000000D01*
X211000000Y-54000000D01*
X212448638Y-54000000D01*
X212515677Y-54019685D01*
X212536319Y-54036319D01*
X213500000Y-55000000D01*
X215500000Y-55000000D01*
X223544867Y-55000000D01*
X223563302Y-55128226D01*
X223617118Y-55246064D01*
X223701950Y-55343966D01*
X223701951Y-55343967D01*
X223730640Y-55362404D01*
X223810931Y-55414005D01*
X223935227Y-55450500D01*
X223935228Y-55450500D01*
X224064773Y-55450500D01*
X224189068Y-55414005D01*
X224254780Y-55371774D01*
X224298049Y-55343967D01*
X224382882Y-55246063D01*
X224436697Y-55128226D01*
X224452762Y-55016485D01*
X224458511Y-55003895D01*
X224456523Y-55000801D01*
X224452762Y-54983512D01*
X224444813Y-54928226D01*
X224440755Y-54900000D01*
X224436697Y-54871773D01*
X224382881Y-54753935D01*
X224298049Y-54656033D01*
X224189068Y-54585994D01*
X224064773Y-54549500D01*
X224064772Y-54549500D01*
X223935228Y-54549500D01*
X223935227Y-54549500D01*
X223810931Y-54585994D01*
X223701950Y-54656033D01*
X223617118Y-54753935D01*
X223563302Y-54871773D01*
X223544867Y-55000000D01*
X215500000Y-55000000D01*
X215963680Y-54536319D01*
X216025004Y-54502834D01*
X216051362Y-54500000D01*
X217000000Y-54500000D01*
X217500000Y-54000000D01*
X217500000Y-53100000D01*
X218244867Y-53100000D01*
X218263302Y-53228226D01*
X218317118Y-53346064D01*
X218375495Y-53413435D01*
X218401951Y-53443967D01*
X218405214Y-53446064D01*
X218510931Y-53514005D01*
X218635227Y-53550500D01*
X218635228Y-53550500D01*
X218764773Y-53550500D01*
X218889068Y-53514005D01*
X218954780Y-53471774D01*
X218998049Y-53443967D01*
X219082882Y-53346063D01*
X219136697Y-53228226D01*
X219155133Y-53100000D01*
X221044867Y-53100000D01*
X221063302Y-53228226D01*
X221117118Y-53346064D01*
X221175495Y-53413435D01*
X221201951Y-53443967D01*
X221205214Y-53446064D01*
X221310931Y-53514005D01*
X221435227Y-53550500D01*
X221435228Y-53550500D01*
X221564773Y-53550500D01*
X221689068Y-53514005D01*
X221754780Y-53471774D01*
X221798049Y-53443967D01*
X221882882Y-53346063D01*
X221936697Y-53228226D01*
X221955133Y-53100000D01*
X221940755Y-53000000D01*
X223544867Y-53000000D01*
X223563302Y-53128226D01*
X223617118Y-53246064D01*
X223697639Y-53338991D01*
X223701951Y-53343967D01*
X223705214Y-53346064D01*
X223810931Y-53414005D01*
X223935227Y-53450500D01*
X223935228Y-53450500D01*
X224064773Y-53450500D01*
X224189068Y-53414005D01*
X224232650Y-53385996D01*
X224298049Y-53343967D01*
X224382882Y-53246063D01*
X224436697Y-53128226D01*
X224452762Y-53016486D01*
X224458512Y-53003895D01*
X224456523Y-53000800D01*
X224452762Y-52983511D01*
X224451074Y-52971773D01*
X224436697Y-52871774D01*
X224429508Y-52856033D01*
X224382881Y-52753935D01*
X224298049Y-52656033D01*
X224189068Y-52585994D01*
X224064773Y-52549500D01*
X224064772Y-52549500D01*
X223935228Y-52549500D01*
X223935227Y-52549500D01*
X223810931Y-52585994D01*
X223701950Y-52656033D01*
X223617118Y-52753935D01*
X223563302Y-52871773D01*
X223544867Y-53000000D01*
X221940755Y-53000000D01*
X221936697Y-52971774D01*
X221933998Y-52965865D01*
X221882881Y-52853935D01*
X221798049Y-52756033D01*
X221689068Y-52685994D01*
X221564773Y-52649500D01*
X221564772Y-52649500D01*
X221435228Y-52649500D01*
X221435227Y-52649500D01*
X221310931Y-52685994D01*
X221201950Y-52756033D01*
X221117118Y-52853935D01*
X221063302Y-52971773D01*
X221044867Y-53100000D01*
X219155133Y-53100000D01*
X219136697Y-52971774D01*
X219133998Y-52965865D01*
X219082881Y-52853935D01*
X218998049Y-52756033D01*
X218889068Y-52685994D01*
X218764773Y-52649500D01*
X218764772Y-52649500D01*
X218635228Y-52649500D01*
X218635227Y-52649500D01*
X218510931Y-52685994D01*
X218401950Y-52756033D01*
X218317118Y-52853935D01*
X218263302Y-52971773D01*
X218244867Y-53100000D01*
X217500000Y-53100000D01*
X217500000Y-51500000D01*
X217000000Y-51000000D01*
X223544867Y-51000000D01*
X223563302Y-51128226D01*
X223617118Y-51246064D01*
X223669661Y-51306702D01*
X223701951Y-51343967D01*
X223702745Y-51344477D01*
X223810931Y-51414005D01*
X223935227Y-51450500D01*
X223935228Y-51450500D01*
X224064773Y-51450500D01*
X224189068Y-51414005D01*
X224232650Y-51385996D01*
X224298049Y-51343967D01*
X224382882Y-51246063D01*
X224436697Y-51128226D01*
X224452763Y-51016487D01*
X224458513Y-51003895D01*
X224456523Y-51000799D01*
X224452762Y-50983510D01*
X224436697Y-50871773D01*
X224382881Y-50753935D01*
X224298049Y-50656033D01*
X224189068Y-50585994D01*
X224064773Y-50549500D01*
X224064772Y-50549500D01*
X223935228Y-50549500D01*
X223935227Y-50549500D01*
X223810931Y-50585994D01*
X223701950Y-50656033D01*
X223617118Y-50753935D01*
X223563302Y-50871773D01*
X223544867Y-51000000D01*
X217000000Y-51000000D01*
X216500000Y-50500000D01*
X214000000Y-50500000D01*
X213999999Y-50500000D01*
X213500000Y-50999999D01*
X213500000Y-51948638D01*
X213480315Y-52015677D01*
X213463681Y-52036319D01*
X212536319Y-52963681D01*
X212474996Y-52997166D01*
X212448638Y-53000000D01*
X211000000Y-53000000D01*
X211000000Y-54000000D01*
X210454626Y-54000000D01*
X210436211Y-53871916D01*
X210428284Y-53854558D01*
X210282843Y-54000000D01*
X210100000Y-54000000D01*
X210100000Y-53967508D01*
X210061803Y-53914935D01*
X210015838Y-53900000D01*
X209984162Y-53900000D01*
X209938197Y-53914935D01*
X209900000Y-53967508D01*
X209900000Y-54032492D01*
X209684663Y-54032492D01*
X209717156Y-53999999D01*
X209571715Y-53854557D01*
X209522026Y-53863525D01*
X209477987Y-53863526D01*
X209428284Y-53854558D01*
X209282843Y-54000000D01*
X209282843Y-54000001D01*
X209100000Y-54000001D01*
X209100000Y-53967508D01*
X209061803Y-53914935D01*
X209015838Y-53900000D01*
X208984162Y-53900000D01*
X208938197Y-53914935D01*
X208900000Y-53967508D01*
X208900000Y-54032492D01*
X208684664Y-54032492D01*
X208717157Y-53999999D01*
X208571715Y-53854557D01*
X208522026Y-53863525D01*
X208477986Y-53863526D01*
X208428283Y-53854558D01*
X208282843Y-53999998D01*
X208100000Y-53999998D01*
X208100000Y-53967508D01*
X208061803Y-53914935D01*
X208015838Y-53900000D01*
X207984162Y-53900000D01*
X207938197Y-53914935D01*
X207900000Y-53967508D01*
X207900000Y-54032492D01*
X207684664Y-54032492D01*
X207717157Y-53999999D01*
X207571715Y-53854558D01*
X207571714Y-53854558D01*
X207563789Y-53871915D01*
X207545373Y-54000000D01*
X207000000Y-54000000D01*
X207000000Y-53573255D01*
X207856098Y-53573255D01*
X207999999Y-53717156D01*
X208143899Y-53573255D01*
X208856098Y-53573255D01*
X208999999Y-53717156D01*
X209143899Y-53573255D01*
X209856098Y-53573255D01*
X209999999Y-53717156D01*
X210143900Y-53573254D01*
X210064701Y-53550000D01*
X209935301Y-53550000D01*
X209856098Y-53573255D01*
X209143899Y-53573255D01*
X209143900Y-53573254D01*
X209064701Y-53550000D01*
X208935301Y-53550000D01*
X208856098Y-53573255D01*
X208143899Y-53573255D01*
X208143900Y-53573254D01*
X208064701Y-53550000D01*
X207935301Y-53550000D01*
X207856098Y-53573255D01*
X207000000Y-53573255D01*
X207000000Y-53500000D01*
X205151362Y-53500000D01*
X205084323Y-53480315D01*
X205063681Y-53463681D01*
X204536319Y-52936318D01*
X204502834Y-52874995D01*
X204500000Y-52848637D01*
X204500000Y-52400000D01*
X203900000Y-51800000D01*
X206344867Y-51800000D01*
X206363302Y-51928226D01*
X206417118Y-52046064D01*
X206472879Y-52110416D01*
X206501951Y-52143967D01*
X206520726Y-52156033D01*
X206610931Y-52214005D01*
X206735227Y-52250500D01*
X206735228Y-52250500D01*
X206864773Y-52250500D01*
X206989068Y-52214005D01*
X207054780Y-52171774D01*
X207098049Y-52143967D01*
X207182882Y-52046063D01*
X207236697Y-51928226D01*
X207255133Y-51800000D01*
X207236697Y-51671774D01*
X207182882Y-51553937D01*
X207182881Y-51553936D01*
X207182881Y-51553935D01*
X207136146Y-51500000D01*
X209044867Y-51500000D01*
X209063302Y-51628226D01*
X209117118Y-51746064D01*
X209201950Y-51843966D01*
X209201951Y-51843967D01*
X209210561Y-51849500D01*
X209310931Y-51914005D01*
X209435227Y-51950500D01*
X209435228Y-51950500D01*
X209564773Y-51950500D01*
X209689068Y-51914005D01*
X209732650Y-51885996D01*
X209798049Y-51843967D01*
X209882882Y-51746063D01*
X209936697Y-51628226D01*
X209955133Y-51500000D01*
X210544867Y-51500000D01*
X210563302Y-51628226D01*
X210617118Y-51746064D01*
X210701950Y-51843966D01*
X210701951Y-51843967D01*
X210710561Y-51849500D01*
X210810931Y-51914005D01*
X210935227Y-51950500D01*
X210935228Y-51950500D01*
X211064773Y-51950500D01*
X211189068Y-51914005D01*
X211232650Y-51885996D01*
X211298049Y-51843967D01*
X211382882Y-51746063D01*
X211436697Y-51628226D01*
X211455133Y-51500000D01*
X212044867Y-51500000D01*
X212063302Y-51628226D01*
X212117118Y-51746064D01*
X212201950Y-51843966D01*
X212201951Y-51843967D01*
X212210561Y-51849500D01*
X212310931Y-51914005D01*
X212435227Y-51950500D01*
X212435228Y-51950500D01*
X212564773Y-51950500D01*
X212689068Y-51914005D01*
X212732650Y-51885996D01*
X212798049Y-51843967D01*
X212882882Y-51746063D01*
X212936697Y-51628226D01*
X212955133Y-51500000D01*
X212936697Y-51371774D01*
X212923997Y-51343966D01*
X212882881Y-51253935D01*
X212798049Y-51156033D01*
X212689068Y-51085994D01*
X212564773Y-51049500D01*
X212564772Y-51049500D01*
X212435228Y-51049500D01*
X212435227Y-51049500D01*
X212310931Y-51085994D01*
X212201950Y-51156033D01*
X212117118Y-51253935D01*
X212063302Y-51371773D01*
X212044867Y-51500000D01*
X211455133Y-51500000D01*
X211436697Y-51371774D01*
X211423997Y-51343966D01*
X211382881Y-51253935D01*
X211298049Y-51156033D01*
X211189068Y-51085994D01*
X211064773Y-51049500D01*
X211064772Y-51049500D01*
X210935228Y-51049500D01*
X210935227Y-51049500D01*
X210810931Y-51085994D01*
X210701950Y-51156033D01*
X210617118Y-51253935D01*
X210563302Y-51371773D01*
X210544867Y-51500000D01*
X209955133Y-51500000D01*
X209936697Y-51371774D01*
X209923997Y-51343966D01*
X209882881Y-51253935D01*
X209798049Y-51156033D01*
X209689068Y-51085994D01*
X209564773Y-51049500D01*
X209564772Y-51049500D01*
X209435228Y-51049500D01*
X209435227Y-51049500D01*
X209310931Y-51085994D01*
X209201950Y-51156033D01*
X209117118Y-51253935D01*
X209063302Y-51371773D01*
X209044867Y-51500000D01*
X207136146Y-51500000D01*
X207098049Y-51456033D01*
X206989068Y-51385994D01*
X206864773Y-51349500D01*
X206864772Y-51349500D01*
X206735228Y-51349500D01*
X206735227Y-51349500D01*
X206610931Y-51385994D01*
X206501950Y-51456033D01*
X206417118Y-51553935D01*
X206363302Y-51671773D01*
X206344867Y-51800000D01*
X203900000Y-51800000D01*
X203600000Y-51500000D01*
X202600000Y-51500000D01*
X202600000Y-56075500D01*
X202580315Y-56142539D01*
X202527511Y-56188294D01*
X202476000Y-56199500D01*
X199775834Y-56199500D01*
X199708795Y-56179815D01*
X199688153Y-56163181D01*
X198524973Y-55000000D01*
X200044867Y-55000000D01*
X200063302Y-55128226D01*
X200117118Y-55246064D01*
X200201950Y-55343966D01*
X200201951Y-55343967D01*
X200230640Y-55362404D01*
X200310931Y-55414005D01*
X200435227Y-55450500D01*
X200435228Y-55450500D01*
X200564773Y-55450500D01*
X200689068Y-55414005D01*
X200754780Y-55371774D01*
X200798049Y-55343967D01*
X200882882Y-55246063D01*
X200936697Y-55128226D01*
X200955133Y-55000000D01*
X200939014Y-54887891D01*
X200936697Y-54871773D01*
X200882881Y-54753935D01*
X200798049Y-54656033D01*
X200689068Y-54585994D01*
X200564773Y-54549500D01*
X200564772Y-54549500D01*
X200435228Y-54549500D01*
X200435227Y-54549500D01*
X200310931Y-54585994D01*
X200201950Y-54656033D01*
X200117118Y-54753935D01*
X200063302Y-54871773D01*
X200044867Y-55000000D01*
X198524973Y-55000000D01*
X197836819Y-54311846D01*
X197803334Y-54250523D01*
X197800500Y-54224168D01*
X197800500Y-54187385D01*
X197820182Y-54120349D01*
X197830773Y-54106200D01*
X197882882Y-54046063D01*
X197936697Y-53928226D01*
X197955133Y-53800000D01*
X197936697Y-53671774D01*
X197926981Y-53650500D01*
X197882881Y-53553935D01*
X197798049Y-53456033D01*
X197689068Y-53385994D01*
X197564773Y-53349500D01*
X197564772Y-53349500D01*
X197435228Y-53349500D01*
X197435227Y-53349500D01*
X197310931Y-53385994D01*
X197201950Y-53456033D01*
X197117118Y-53553935D01*
X197063302Y-53671773D01*
X197044867Y-53800000D01*
X197063302Y-53928226D01*
X197102477Y-54014004D01*
X197117118Y-54046063D01*
X197169214Y-54106186D01*
X197198238Y-54169739D01*
X197199500Y-54187386D01*
X197199500Y-54330756D01*
X197196756Y-54347577D01*
X197199368Y-54404078D01*
X197199500Y-54409804D01*
X197199500Y-54428818D01*
X197201181Y-54443307D01*
X197202415Y-54469993D01*
X197205213Y-54476330D01*
X197213666Y-54503626D01*
X197214938Y-54510434D01*
X197228997Y-54533140D01*
X197237002Y-54548327D01*
X197247792Y-54572763D01*
X197252688Y-54577659D01*
X197270434Y-54600063D01*
X197274081Y-54605952D01*
X197295396Y-54622048D01*
X197308351Y-54633322D01*
X199062848Y-56387819D01*
X199096333Y-56449142D01*
X199091349Y-56518834D01*
X199049477Y-56574767D01*
X198984013Y-56599184D01*
X198975167Y-56599500D01*
X195946491Y-56599500D01*
X195907082Y-56587928D01*
X195906175Y-56591018D01*
X195764773Y-56549500D01*
X195764772Y-56549500D01*
X195635228Y-56549500D01*
X195635227Y-56549500D01*
X195510931Y-56585994D01*
X195401950Y-56656033D01*
X195317118Y-56753935D01*
X195263302Y-56871773D01*
X195244867Y-57000000D01*
X194149404Y-57000000D01*
X194139677Y-56932353D01*
X194168702Y-56868798D01*
X194195374Y-56845686D01*
X194198049Y-56843967D01*
X194282882Y-56746063D01*
X194336697Y-56628226D01*
X194355133Y-56500000D01*
X194336697Y-56371774D01*
X194322939Y-56341649D01*
X194282881Y-56253935D01*
X194198048Y-56156032D01*
X194195372Y-56154312D01*
X194149619Y-56101506D01*
X194139678Y-56032348D01*
X194168705Y-55968793D01*
X194195374Y-55945685D01*
X194198049Y-55943967D01*
X194282882Y-55846063D01*
X194336697Y-55728226D01*
X194355133Y-55600000D01*
X194336697Y-55471774D01*
X194335582Y-55469333D01*
X194282881Y-55353935D01*
X194198049Y-55256033D01*
X194089068Y-55185994D01*
X193964773Y-55149500D01*
X193964772Y-55149500D01*
X193835228Y-55149500D01*
X193835227Y-55149500D01*
X193710931Y-55185994D01*
X193601950Y-55256033D01*
X193517118Y-55353935D01*
X193463302Y-55471773D01*
X193444867Y-55600000D01*
X193463302Y-55728226D01*
X193517118Y-55846064D01*
X193575988Y-55914004D01*
X193601951Y-55943967D01*
X193604618Y-55945681D01*
X193604626Y-55945686D01*
X193650379Y-55998491D01*
X193660321Y-56067650D01*
X193631295Y-56131205D01*
X193604626Y-56154314D01*
X193601950Y-56156033D01*
X193517118Y-56253935D01*
X193463302Y-56371773D01*
X193444867Y-56500000D01*
X193463302Y-56628226D01*
X193517118Y-56746064D01*
X193539396Y-56771774D01*
X193601951Y-56843967D01*
X193604623Y-56845684D01*
X193604626Y-56845686D01*
X193650379Y-56898491D01*
X193660321Y-56967650D01*
X193631295Y-57031205D01*
X193604626Y-57054314D01*
X193601950Y-57056033D01*
X193517118Y-57153935D01*
X193463302Y-57271773D01*
X193444867Y-57400000D01*
X177300500Y-57400000D01*
X177300500Y-55197198D01*
X187774920Y-55197198D01*
X187793355Y-55325424D01*
X187847171Y-55443262D01*
X187932003Y-55541164D01*
X187932004Y-55541165D01*
X187960693Y-55559602D01*
X188040984Y-55611203D01*
X188165280Y-55647698D01*
X188165281Y-55647698D01*
X188294826Y-55647698D01*
X188419121Y-55611203D01*
X188478170Y-55573254D01*
X188528102Y-55541165D01*
X188612935Y-55443261D01*
X188666750Y-55325424D01*
X188685186Y-55197198D01*
X188666750Y-55068972D01*
X188650839Y-55034133D01*
X188620412Y-54967508D01*
X188612935Y-54951135D01*
X188612934Y-54951134D01*
X188612934Y-54951133D01*
X188528102Y-54853231D01*
X188419121Y-54783192D01*
X188294826Y-54746698D01*
X188294825Y-54746698D01*
X188165281Y-54746698D01*
X188165280Y-54746698D01*
X188040984Y-54783192D01*
X187932003Y-54853231D01*
X187847171Y-54951133D01*
X187793355Y-55068971D01*
X187774920Y-55197198D01*
X177300500Y-55197198D01*
X177300500Y-54400000D01*
X191944867Y-54400000D01*
X191963302Y-54528226D01*
X192017118Y-54646064D01*
X192039396Y-54671774D01*
X192101951Y-54743967D01*
X192106201Y-54746698D01*
X192210931Y-54814005D01*
X192335227Y-54850500D01*
X192335228Y-54850500D01*
X192464773Y-54850500D01*
X192589068Y-54814005D01*
X192637010Y-54783194D01*
X192698049Y-54743967D01*
X192782882Y-54646063D01*
X192836697Y-54528226D01*
X192855133Y-54400000D01*
X192839014Y-54287891D01*
X192836697Y-54271773D01*
X192782881Y-54153935D01*
X192698049Y-54056033D01*
X192589068Y-53985994D01*
X192464773Y-53949500D01*
X192464772Y-53949500D01*
X192335228Y-53949500D01*
X192335227Y-53949500D01*
X192210931Y-53985994D01*
X192101950Y-54056033D01*
X192017118Y-54153935D01*
X191963302Y-54271773D01*
X191944867Y-54400000D01*
X177300500Y-54400000D01*
X177300500Y-53600000D01*
X185844867Y-53600000D01*
X185863302Y-53728226D01*
X185917118Y-53846064D01*
X186001950Y-53943966D01*
X186001951Y-53943967D01*
X186030640Y-53962404D01*
X186110931Y-54014005D01*
X186235227Y-54050500D01*
X186235228Y-54050500D01*
X186364773Y-54050500D01*
X186489066Y-54014005D01*
X186489066Y-54014004D01*
X186489069Y-54014004D01*
X186582963Y-53953661D01*
X186649999Y-53933978D01*
X186717035Y-53953661D01*
X186810931Y-54014004D01*
X186810933Y-54014005D01*
X186935227Y-54050500D01*
X186935228Y-54050500D01*
X187064773Y-54050500D01*
X187189068Y-54014005D01*
X187232650Y-53985996D01*
X187298049Y-53943967D01*
X187382882Y-53846063D01*
X187436697Y-53728226D01*
X187455133Y-53600000D01*
X187436697Y-53471774D01*
X187429508Y-53456033D01*
X187382881Y-53353935D01*
X187298049Y-53256033D01*
X187210861Y-53200000D01*
X188644867Y-53200000D01*
X188663302Y-53328226D01*
X188717118Y-53446064D01*
X188801950Y-53543966D01*
X188801951Y-53543967D01*
X188811339Y-53550000D01*
X188910931Y-53614005D01*
X189035227Y-53650500D01*
X189035228Y-53650500D01*
X189164773Y-53650500D01*
X189289068Y-53614005D01*
X189310859Y-53600000D01*
X193844867Y-53600000D01*
X193863302Y-53728226D01*
X193917118Y-53846064D01*
X194001950Y-53943966D01*
X194001951Y-53943967D01*
X194030640Y-53962404D01*
X194110931Y-54014005D01*
X194235227Y-54050500D01*
X194235228Y-54050500D01*
X194364773Y-54050500D01*
X194489066Y-54014005D01*
X194489066Y-54014004D01*
X194489069Y-54014004D01*
X194582963Y-53953661D01*
X194649999Y-53933978D01*
X194717035Y-53953661D01*
X194810931Y-54014004D01*
X194810933Y-54014005D01*
X194935227Y-54050500D01*
X194935228Y-54050500D01*
X195064773Y-54050500D01*
X195189068Y-54014005D01*
X195232650Y-53985996D01*
X195298049Y-53943967D01*
X195382882Y-53846063D01*
X195436697Y-53728226D01*
X195455133Y-53600000D01*
X195436697Y-53471774D01*
X195429508Y-53456033D01*
X195382881Y-53353935D01*
X195298049Y-53256033D01*
X195189068Y-53185994D01*
X195064773Y-53149500D01*
X195064772Y-53149500D01*
X194935228Y-53149500D01*
X194935227Y-53149500D01*
X194810932Y-53185994D01*
X194717039Y-53246336D01*
X194650000Y-53266020D01*
X194582961Y-53246336D01*
X194489067Y-53185994D01*
X194364773Y-53149500D01*
X194364772Y-53149500D01*
X194235228Y-53149500D01*
X194235227Y-53149500D01*
X194110931Y-53185994D01*
X194001950Y-53256033D01*
X193917118Y-53353935D01*
X193863302Y-53471773D01*
X193844867Y-53600000D01*
X189310859Y-53600000D01*
X189317758Y-53595566D01*
X189398049Y-53543967D01*
X189482882Y-53446063D01*
X189536697Y-53328226D01*
X189555133Y-53200000D01*
X189536697Y-53071774D01*
X189511448Y-53016488D01*
X189482881Y-52953935D01*
X189398049Y-52856033D01*
X189274070Y-52776356D01*
X189276737Y-52772206D01*
X189247054Y-52753111D01*
X189218058Y-52689543D01*
X189228033Y-52620389D01*
X189273812Y-52567605D01*
X189305867Y-52552974D01*
X189403118Y-52524420D01*
X189512098Y-52454383D01*
X189596931Y-52356479D01*
X189622724Y-52300000D01*
X194744867Y-52300000D01*
X194763302Y-52428226D01*
X194817118Y-52546064D01*
X194901950Y-52643966D01*
X194901951Y-52643967D01*
X194909187Y-52648617D01*
X195010931Y-52714005D01*
X195135227Y-52750500D01*
X195135228Y-52750500D01*
X195264773Y-52750500D01*
X195389068Y-52714005D01*
X195432650Y-52685996D01*
X195498049Y-52643967D01*
X195582882Y-52546063D01*
X195636697Y-52428226D01*
X195655133Y-52300000D01*
X195640755Y-52200000D01*
X196544867Y-52200000D01*
X196563302Y-52328226D01*
X196617118Y-52446064D01*
X196696962Y-52538209D01*
X196701951Y-52543967D01*
X196705214Y-52546064D01*
X196810931Y-52614005D01*
X196935227Y-52650500D01*
X196935228Y-52650500D01*
X197064773Y-52650500D01*
X197189068Y-52614005D01*
X197232650Y-52585996D01*
X197298049Y-52543967D01*
X197336146Y-52500000D01*
X200524867Y-52500000D01*
X200543302Y-52628226D01*
X200597118Y-52746064D01*
X200681950Y-52843966D01*
X200681951Y-52843967D01*
X200685748Y-52846407D01*
X200790931Y-52914005D01*
X200915227Y-52950500D01*
X200915228Y-52950500D01*
X201044770Y-52950500D01*
X201044772Y-52950500D01*
X201094885Y-52935786D01*
X201164750Y-52935786D01*
X201223528Y-52973559D01*
X201252554Y-53037115D01*
X201264938Y-53123251D01*
X201270055Y-53134454D01*
X201279999Y-53203612D01*
X201250975Y-53267168D01*
X201224302Y-53290281D01*
X201185007Y-53315534D01*
X201100176Y-53413435D01*
X201046360Y-53531273D01*
X201027925Y-53659500D01*
X201046360Y-53787726D01*
X201100176Y-53905564D01*
X201182003Y-53999998D01*
X201185009Y-54003467D01*
X201210245Y-54019685D01*
X201293989Y-54073505D01*
X201418285Y-54110000D01*
X201418286Y-54110000D01*
X201547831Y-54110000D01*
X201672126Y-54073505D01*
X201729988Y-54036319D01*
X201781107Y-54003467D01*
X201865940Y-53905563D01*
X201919755Y-53787726D01*
X201938191Y-53659500D01*
X201919755Y-53531274D01*
X201914638Y-53520071D01*
X201904694Y-53450914D01*
X201933717Y-53387358D01*
X201960390Y-53364244D01*
X201999685Y-53338992D01*
X202084518Y-53241088D01*
X202138333Y-53123251D01*
X202156769Y-52995025D01*
X202138333Y-52866799D01*
X202133416Y-52856033D01*
X202084517Y-52748960D01*
X201999685Y-52651058D01*
X201890704Y-52581019D01*
X201766409Y-52544525D01*
X201766408Y-52544525D01*
X201636864Y-52544525D01*
X201636863Y-52544525D01*
X201586753Y-52559238D01*
X201516883Y-52559238D01*
X201458105Y-52521463D01*
X201429081Y-52457908D01*
X201424813Y-52428226D01*
X201416697Y-52371774D01*
X201409712Y-52356480D01*
X201362881Y-52253935D01*
X201278049Y-52156033D01*
X201169068Y-52085994D01*
X201044773Y-52049500D01*
X201044772Y-52049500D01*
X200915228Y-52049500D01*
X200915227Y-52049500D01*
X200790931Y-52085994D01*
X200681950Y-52156033D01*
X200597118Y-52253935D01*
X200543302Y-52371773D01*
X200524867Y-52500000D01*
X197336146Y-52500000D01*
X197382882Y-52446063D01*
X197436697Y-52328226D01*
X197455133Y-52200000D01*
X197436697Y-52071774D01*
X197424955Y-52046064D01*
X197382881Y-51953935D01*
X197298049Y-51856033D01*
X197189068Y-51785994D01*
X197064773Y-51749500D01*
X197064772Y-51749500D01*
X196935228Y-51749500D01*
X196935227Y-51749500D01*
X196810931Y-51785994D01*
X196701950Y-51856033D01*
X196617118Y-51953935D01*
X196563302Y-52071773D01*
X196544867Y-52200000D01*
X195640755Y-52200000D01*
X195636697Y-52171774D01*
X195629508Y-52156033D01*
X195582881Y-52053935D01*
X195498049Y-51956033D01*
X195389068Y-51885994D01*
X195264773Y-51849500D01*
X195264772Y-51849500D01*
X195135228Y-51849500D01*
X195135227Y-51849500D01*
X195010931Y-51885994D01*
X194901950Y-51956033D01*
X194817118Y-52053935D01*
X194763302Y-52171773D01*
X194744867Y-52300000D01*
X189622724Y-52300000D01*
X189650746Y-52238642D01*
X189669182Y-52110416D01*
X189650746Y-51982190D01*
X189638800Y-51956033D01*
X189596930Y-51864351D01*
X189512098Y-51766449D01*
X189403117Y-51696410D01*
X189278822Y-51659916D01*
X189278821Y-51659916D01*
X189149277Y-51659916D01*
X189149276Y-51659916D01*
X189024980Y-51696410D01*
X188915999Y-51766449D01*
X188831167Y-51864351D01*
X188777351Y-51982189D01*
X188758916Y-52110416D01*
X188777351Y-52238642D01*
X188831167Y-52356480D01*
X188915999Y-52454382D01*
X188916000Y-52454383D01*
X188955841Y-52479987D01*
X189039979Y-52534060D01*
X189037311Y-52538209D01*
X189066820Y-52557104D01*
X189095952Y-52620611D01*
X189086125Y-52689786D01*
X189040459Y-52742667D01*
X189008178Y-52757441D01*
X188910932Y-52785994D01*
X188801950Y-52856033D01*
X188717118Y-52953935D01*
X188663302Y-53071773D01*
X188644867Y-53200000D01*
X187210861Y-53200000D01*
X187189068Y-53185994D01*
X187064773Y-53149500D01*
X187064772Y-53149500D01*
X186935228Y-53149500D01*
X186935227Y-53149500D01*
X186810932Y-53185994D01*
X186717039Y-53246336D01*
X186650000Y-53266020D01*
X186582961Y-53246336D01*
X186489067Y-53185994D01*
X186364773Y-53149500D01*
X186364772Y-53149500D01*
X186235228Y-53149500D01*
X186235227Y-53149500D01*
X186110931Y-53185994D01*
X186001950Y-53256033D01*
X185917118Y-53353935D01*
X185863302Y-53471773D01*
X185844867Y-53600000D01*
X177300500Y-53600000D01*
X177300500Y-51800000D01*
X186544867Y-51800000D01*
X186563302Y-51928226D01*
X186617118Y-52046064D01*
X186672879Y-52110416D01*
X186701951Y-52143967D01*
X186720726Y-52156033D01*
X186810931Y-52214005D01*
X186935227Y-52250500D01*
X186935228Y-52250500D01*
X187064773Y-52250500D01*
X187189068Y-52214005D01*
X187254780Y-52171774D01*
X187298049Y-52143967D01*
X187382882Y-52046063D01*
X187436697Y-51928226D01*
X187455133Y-51800000D01*
X187436697Y-51671774D01*
X187415798Y-51626012D01*
X187405854Y-51556854D01*
X187434878Y-51493298D01*
X187493656Y-51455523D01*
X187528592Y-51450500D01*
X187564773Y-51450500D01*
X187689068Y-51414005D01*
X187732650Y-51385996D01*
X187798049Y-51343967D01*
X187882882Y-51246063D01*
X187936697Y-51128226D01*
X187955133Y-51000000D01*
X196944867Y-51000000D01*
X196963302Y-51128226D01*
X197017118Y-51246064D01*
X197069661Y-51306702D01*
X197101951Y-51343967D01*
X197102745Y-51344477D01*
X197210931Y-51414005D01*
X197335227Y-51450500D01*
X197335228Y-51450500D01*
X197464773Y-51450500D01*
X197589068Y-51414005D01*
X197632650Y-51385996D01*
X197698049Y-51343967D01*
X197782882Y-51246063D01*
X197836697Y-51128226D01*
X197855133Y-51000000D01*
X197836697Y-50871774D01*
X197782882Y-50753937D01*
X197782881Y-50753936D01*
X197782881Y-50753935D01*
X197698049Y-50656033D01*
X197589068Y-50585994D01*
X197464773Y-50549500D01*
X197464772Y-50549500D01*
X197335228Y-50549500D01*
X197335227Y-50549500D01*
X197210931Y-50585994D01*
X197101950Y-50656033D01*
X197017118Y-50753935D01*
X196963302Y-50871773D01*
X196944867Y-51000000D01*
X187955133Y-51000000D01*
X187936697Y-50871774D01*
X187882882Y-50753937D01*
X187882881Y-50753936D01*
X187882881Y-50753935D01*
X187798049Y-50656033D01*
X187689068Y-50585994D01*
X187564773Y-50549500D01*
X187564772Y-50549500D01*
X187435228Y-50549500D01*
X187435227Y-50549500D01*
X187310931Y-50585994D01*
X187201950Y-50656033D01*
X187117118Y-50753935D01*
X187063302Y-50871773D01*
X187044867Y-51000000D01*
X187063302Y-51128226D01*
X187084202Y-51173988D01*
X187094146Y-51243146D01*
X187065122Y-51306702D01*
X187006344Y-51344477D01*
X186971408Y-51349500D01*
X186935227Y-51349500D01*
X186810931Y-51385994D01*
X186701950Y-51456033D01*
X186617118Y-51553935D01*
X186563302Y-51671773D01*
X186544867Y-51800000D01*
X177300500Y-51800000D01*
X177300500Y-50300000D01*
X206044867Y-50300000D01*
X206063302Y-50428226D01*
X206117118Y-50546064D01*
X206201950Y-50643966D01*
X206201951Y-50643967D01*
X206220726Y-50656033D01*
X206310931Y-50714005D01*
X206435227Y-50750500D01*
X206435228Y-50750500D01*
X206564773Y-50750500D01*
X206689068Y-50714005D01*
X206717758Y-50695566D01*
X206798049Y-50643967D01*
X206882882Y-50546063D01*
X206936697Y-50428226D01*
X206955133Y-50300000D01*
X206936697Y-50171774D01*
X206882882Y-50053937D01*
X206882881Y-50053936D01*
X206882881Y-50053935D01*
X206798049Y-49956033D01*
X206689068Y-49885994D01*
X206564773Y-49849500D01*
X206564772Y-49849500D01*
X206435228Y-49849500D01*
X206435227Y-49849500D01*
X206310931Y-49885994D01*
X206201950Y-49956033D01*
X206117118Y-50053935D01*
X206063302Y-50171773D01*
X206044867Y-50300000D01*
X177300500Y-50300000D01*
X177300500Y-48506091D01*
X177301097Y-48493937D01*
X177305037Y-48453935D01*
X177312744Y-48375680D01*
X177317483Y-48351856D01*
X177350203Y-48243990D01*
X177359499Y-48221549D01*
X177412632Y-48122144D01*
X177426133Y-48101940D01*
X177465528Y-48053937D01*
X177497635Y-48014814D01*
X177514814Y-47997635D01*
X177601942Y-47926131D01*
X177622144Y-47912632D01*
X177721549Y-47859499D01*
X177743990Y-47850203D01*
X177851856Y-47817483D01*
X177875682Y-47812744D01*
X177975730Y-47802890D01*
X177993940Y-47801097D01*
X178006093Y-47800500D01*
X178047595Y-47800500D01*
X182065200Y-47800500D01*
X182132239Y-47820185D01*
G37*
%TD.AperFunction*%
M02*
