%TF.GenerationSoftware,KiCad,Pcbnew,7.0.2*%
%TF.CreationDate,2024-01-22T16:16:07-06:00*%
%TF.ProjectId,imu-harvester,696d752d-6861-4727-9665-737465722e6b,rev?*%
%TF.SameCoordinates,Original*%
%TF.FileFunction,Soldermask,Top*%
%TF.FilePolarity,Negative*%
%FSLAX46Y46*%
G04 Gerber Fmt 4.6, Leading zero omitted, Abs format (unit mm)*
G04 Created by KiCad (PCBNEW 7.0.2) date 2024-01-22 16:16:07*
%MOMM*%
%LPD*%
G01*
G04 APERTURE LIST*
G04 Aperture macros list*
%AMRoundRect*
0 Rectangle with rounded corners*
0 $1 Rounding radius*
0 $2 $3 $4 $5 $6 $7 $8 $9 X,Y pos of 4 corners*
0 Add a 4 corners polygon primitive as box body*
4,1,4,$2,$3,$4,$5,$6,$7,$8,$9,$2,$3,0*
0 Add four circle primitives for the rounded corners*
1,1,$1+$1,$2,$3*
1,1,$1+$1,$4,$5*
1,1,$1+$1,$6,$7*
1,1,$1+$1,$8,$9*
0 Add four rect primitives between the rounded corners*
20,1,$1+$1,$2,$3,$4,$5,0*
20,1,$1+$1,$4,$5,$6,$7,0*
20,1,$1+$1,$6,$7,$8,$9,0*
20,1,$1+$1,$8,$9,$2,$3,0*%
%AMFreePoly0*
4,1,26,0.699997,0.700000,0.700000,0.700000,0.700000,-0.700000,0.699997,-0.700000,0.699997,-0.911152,0.653973,-0.964913,0.609621,-1.019924,0.566962,-1.076143,0.526018,-1.133531,0.486810,-1.192047,0.449359,-1.251651,0.413686,-1.312301,0.379814,-1.373958,0.347763,-1.436582,0.317555,-1.500131,0.289212,-1.564566,0.262754,-1.629846,0.238203,-1.695931,0.215581,-1.762780,0.194908,-1.830353,
0.176207,-1.898609,-0.700006,-1.898365,-0.700006,0.300579,-0.300009,0.700115,0.699997,0.700115,0.699997,0.700000,0.699997,0.700000,$1*%
%AMFreePoly1*
4,1,25,0.699200,0.700000,0.700000,0.700000,0.700000,-0.700000,-0.700000,-0.700000,-0.700000,0.700000,-0.699576,0.700000,-0.699512,0.912553,-0.653489,0.966317,-0.609138,1.021329,-0.566481,1.077549,-0.525540,1.134937,-0.486338,1.193452,-0.448896,1.253055,-0.413237,1.313705,-0.379383,1.375360,-0.347355,1.437982,-0.317176,1.501530,-0.288869,1.565964,-0.262454,1.631242,-0.237954,1.697326,
-0.215391,1.764174,-0.194788,1.831746,-0.176166,1.900002,0.699200,1.900002,0.699200,0.700000,0.699200,0.700000,$1*%
%AMFreePoly2*
4,1,23,0.967663,0.653979,1.022682,0.609627,1.078909,0.566968,1.136302,0.526024,1.194822,0.486816,1.254428,0.449364,1.315081,0.413692,1.376740,0.379820,1.439365,0.347769,1.502915,0.317561,1.567351,0.289218,1.632633,0.262760,1.698720,0.238209,1.765572,0.215587,1.833148,0.194914,1.901409,0.176213,1.901409,-0.700000,-0.700000,-0.700000,-0.700000,0.700000,-0.697498,0.700000,
-0.697498,0.700003,0.913891,0.700003,0.967663,0.653979,0.967663,0.653979,$1*%
%AMFreePoly3*
4,1,25,0.702160,-0.912547,0.656137,-0.966310,0.611787,-1.021322,0.569130,-1.077542,0.528190,-1.134930,0.488988,-1.193445,0.451546,-1.253047,0.415885,-1.313697,0.382027,-1.375353,0.349994,-1.437975,0.319808,-1.501523,0.291490,-1.565956,0.265063,-1.631235,0.240548,-1.697319,0.217966,-1.764167,0.197341,-1.831740,0.178692,-1.899996,-0.696735,-1.899996,-0.696735,-0.700000,-0.700000,-0.700000,
-0.700000,0.700000,-0.696735,0.700000,-0.696735,0.700006,0.702526,0.700006,0.702160,-0.912547,0.702160,-0.912547,$1*%
G04 Aperture macros list end*
%ADD10FreePoly0,0.000000*%
%ADD11FreePoly1,90.000000*%
%ADD12FreePoly2,90.000000*%
%ADD13FreePoly3,90.000000*%
%ADD14RoundRect,0.140000X0.170000X-0.140000X0.170000X0.140000X-0.170000X0.140000X-0.170000X-0.140000X0*%
%ADD15R,1.100000X0.600000*%
%ADD16RoundRect,0.062500X-0.337500X-0.062500X0.337500X-0.062500X0.337500X0.062500X-0.337500X0.062500X0*%
%ADD17RoundRect,0.062500X-0.062500X-0.337500X0.062500X-0.337500X0.062500X0.337500X-0.062500X0.337500X0*%
%ADD18R,3.600000X3.600000*%
%ADD19RoundRect,0.140000X0.140000X0.170000X-0.140000X0.170000X-0.140000X-0.170000X0.140000X-0.170000X0*%
%ADD20C,1.000000*%
%ADD21RoundRect,0.250000X-1.210920X-0.097227X-0.097227X-1.210920X1.210920X0.097227X0.097227X1.210920X0*%
%ADD22RoundRect,0.147500X-0.172500X0.147500X-0.172500X-0.147500X0.172500X-0.147500X0.172500X0.147500X0*%
%ADD23RoundRect,0.400000X-0.400000X-0.400000X0.400000X-0.400000X0.400000X0.400000X-0.400000X0.400000X0*%
%ADD24C,1.600000*%
%ADD25RoundRect,0.218750X-0.218750X-0.256250X0.218750X-0.256250X0.218750X0.256250X-0.218750X0.256250X0*%
%ADD26RoundRect,0.225000X0.225000X0.250000X-0.225000X0.250000X-0.225000X-0.250000X0.225000X-0.250000X0*%
%ADD27R,1.600000X0.800000*%
%ADD28R,3.000000X2.100000*%
%ADD29RoundRect,0.140000X-0.170000X0.140000X-0.170000X-0.140000X0.170000X-0.140000X0.170000X0.140000X0*%
%ADD30RoundRect,0.147500X-0.147500X-0.172500X0.147500X-0.172500X0.147500X0.172500X-0.147500X0.172500X0*%
%ADD31RoundRect,0.140000X-0.140000X-0.170000X0.140000X-0.170000X0.140000X0.170000X-0.140000X0.170000X0*%
%ADD32R,0.800000X0.900000*%
%ADD33R,0.863600X1.600200*%
G04 APERTURE END LIST*
D10*
X186000000Y-49000000D03*
D11*
X191000000Y-49000000D03*
D12*
X191000000Y-54000000D03*
D13*
X186000000Y-54000000D03*
D14*
X211000000Y-49980000D03*
X211000000Y-49020000D03*
D15*
X203500000Y-54700000D03*
X203500000Y-53300000D03*
D16*
X206550000Y-53250000D03*
X206550000Y-53750000D03*
X206550000Y-54250000D03*
X206550000Y-54750000D03*
X206550000Y-55250000D03*
X206550000Y-55750000D03*
X206550000Y-56250000D03*
X206550000Y-56750000D03*
D17*
X207250000Y-57450000D03*
X207750000Y-57450000D03*
X208250000Y-57450000D03*
X208750000Y-57450000D03*
X209250000Y-57450000D03*
X209750000Y-57450000D03*
X210250000Y-57450000D03*
X210750000Y-57450000D03*
D16*
X211450000Y-56750000D03*
X211450000Y-56250000D03*
X211450000Y-55750000D03*
X211450000Y-55250000D03*
X211450000Y-54750000D03*
X211450000Y-54250000D03*
X211450000Y-53750000D03*
X211450000Y-53250000D03*
D17*
X210750000Y-52550000D03*
X210250000Y-52550000D03*
X209750000Y-52550000D03*
X209250000Y-52550000D03*
X208750000Y-52550000D03*
X208250000Y-52550000D03*
X207750000Y-52550000D03*
X207250000Y-52550000D03*
D18*
X209000000Y-55000000D03*
D19*
X215480000Y-51000000D03*
X214520000Y-51000000D03*
D20*
X196900000Y-55700000D03*
D21*
X193758750Y-56758750D03*
X197241250Y-60241250D03*
D22*
X210000000Y-49015000D03*
X210000000Y-49985000D03*
D19*
X203980000Y-56000000D03*
X203020000Y-56000000D03*
D23*
X185500000Y-60000000D03*
D24*
X188000000Y-60000000D03*
X190500000Y-60000000D03*
D14*
X203000000Y-49980000D03*
X203000000Y-49020000D03*
D25*
X207212500Y-49500000D03*
X208787500Y-49500000D03*
D26*
X205775000Y-49500000D03*
X204225000Y-49500000D03*
D10*
X194000000Y-49000000D03*
D11*
X199000000Y-49000000D03*
D12*
X199000000Y-54000000D03*
D13*
X194000000Y-54000000D03*
D19*
X206980000Y-60000000D03*
X206020000Y-60000000D03*
D21*
X199258750Y-56758750D03*
X202741250Y-60241250D03*
D20*
X190700000Y-55700000D03*
D25*
X187212500Y-56500000D03*
X188787500Y-56500000D03*
D27*
X181900000Y-51875000D03*
X181900000Y-53125000D03*
X181900000Y-54375000D03*
X181900000Y-55625000D03*
X181900000Y-56875000D03*
X181900000Y-58125000D03*
D28*
X179000000Y-49325000D03*
X179000000Y-60675000D03*
D19*
X203980000Y-52000000D03*
X203020000Y-52000000D03*
D29*
X217000000Y-52520000D03*
X217000000Y-53480000D03*
D30*
X214515000Y-58000000D03*
X215485000Y-58000000D03*
D27*
X220100000Y-58125000D03*
X220100000Y-56875000D03*
X220100000Y-55625000D03*
X220100000Y-54375000D03*
X220100000Y-53125000D03*
X220100000Y-51875000D03*
D28*
X223000000Y-60675000D03*
X223000000Y-49325000D03*
D14*
X212500000Y-49980000D03*
X212500000Y-49020000D03*
D31*
X214520000Y-56000000D03*
X215480000Y-56000000D03*
X214520000Y-57000000D03*
X215480000Y-57000000D03*
D32*
X214450000Y-52300000D03*
X214450000Y-53700000D03*
X215550000Y-53700000D03*
X215550000Y-52300000D03*
D33*
X215523801Y-61000000D03*
X212476199Y-61000000D03*
M02*
